<?xml version="1.0" encoding="utf-8"?>
<svg viewBox="0 0 425 3120" xmlns="http://www.w3.org/2000/svg">
  <g id="Layer_1">
    <g id="plane_bgr_1_">
      <g>
        <defs>
          <polygon id="SVGID_1_" points="10.6,3064.1 412.9,3073.1 412.9,-26.5 10.6,-35.6 &#9;&#9;&#9;&#9;"/>
        </defs>
        <defs>
          <polygon id="SVGID_2_" points="10.7,-35.5 413,-26.4 413,3073.2 10.7,3064.1 &#9;&#9;&#9;&#9;"/>
        </defs>
      </g>
      <g>
        <defs>
          <polygon id="SVGID_5_" points="10.6,3064.1 412.9,3073.1 412.9,-26.5 10.6,-35.6 &#9;&#9;&#9;&#9;"/>
        </defs>
        <defs>
          <polygon id="SVGID_6_" points="10.7,-35.5 413,-26.4 413,3073.2 10.7,3064.1 &#9;&#9;&#9;&#9;"/>
        </defs>
      </g>
      <g>
        <defs>
          <polygon id="SVGID_9_" points="10.6,3064.1 412.9,3073.1 412.9,-26.5 10.6,-35.6 &#9;&#9;&#9;&#9;"/>
        </defs>
        <defs>
          <path id="SVGID_10_" d="M35.3,307.6c65.2-229.1,141.1-255.1,177-255.1c35.5,0,110.2,29.6,177,255.1l0,0 c2.3,8.8,3.4,17.8,3.4,26.8v2134.5l0,0c0,8.9-1.1,17.8-3.3,26.5C302,2838.5,243,3034.6,212.3,3034.6 c-30.7,0-89.7-196.1-177.1-539.2l0,0c-2.2-8.6-3.3-17.5-3.3-26.5V334.4l0,0C31.9,325.3,33,316.3,35.3,307.6L35.3,307.6z"/>
        </defs>
        <defs>
          <polygon id="SVGID_11_" points="10.7,-35.5 413,-26.4 413,3073.2 10.7,3064.1 &#9;&#9;&#9;&#9;"/>
        </defs>
        <clipPath id="SVGID_12_">
          <polygon points="10.6,3064.1 412.9,3073.1 412.9,-26.5 10.6,-35.6 &#9;&#9;&#9;&#9;" transform="matrix(1, 0, 0, 1, 0, 0)" overflow="visible"/>
        </clipPath>
        <clipPath id="SVGID_13_" clip-path="url(#SVGID_12_)">
          <path d="M35.3,307.6c65.2-229.1,141.1-255.1,177-255.1c35.5,0,110.2,29.6,177,255.1l0,0 c2.3,8.8,3.4,17.8,3.4,26.8v2134.5l0,0c0,8.9-1.1,17.8-3.3,26.5C302,2838.5,243,3034.6,212.3,3034.6 c-30.7,0-89.7-196.1-177.1-539.2l0,0c-2.2-8.6-3.3-17.5-3.3-26.5V334.4l0,0C31.9,325.3,33,316.3,35.3,307.6L35.3,307.6z" transform="matrix(1, 0, 0, 1, 0, 0)" overflow="visible"/>
        </clipPath>
        <clipPath id="SVGID_14_" clip-path="url(#SVGID_13_)">
          <polygon points="10.7,-35.5 413,-26.4 413,3073.2 10.7,3064.1 &#9;&#9;&#9;&#9;" transform="matrix(1, 0, 0, 1, 0, 0)" overflow="visible"/>
        </clipPath>
        <rect x="26.5" y="-31.9" clip-path="url(#SVGID_14_)" fill="#F3F3F3" width="371.5" height="3092.7"/>
      </g>
      <g>
        <defs>
          <polygon id="SVGID_15_" points="10.6,3059.2 412.9,3068.3 414.4,-31.3 12.1,-40.4 &#9;&#9;&#9;&#9;"/>
        </defs>
        <defs>
          <path id="SVGID_16_" d="M40.6,352.5L40.6,352.5v2086.8c50.3,247.7,107.5,326.2,171.7,326.2c64.2,0,121.5-78.5,171.7-326.2V352.2 c0,0,0-33.2-9.3-56.8c0,0-42.1-17.5-164.5-17.5c0,0-134.8,2.4-162.2,19.6C48.1,297.5,37.9,334.5,40.6,352.5z"/>
        </defs>
        <clipPath id="SVGID_17_">
          <polygon points="10.6,3059.2 412.9,3068.3 414.4,-31.3 12.1,-40.4 &#9;&#9;&#9;&#9;" transform="matrix(1, 0, 0, 1, 0, 0)" overflow="visible"/>
        </clipPath>
        <clipPath id="SVGID_18_" clip-path="url(#SVGID_17_)">
          <path d="M40.6,352.5L40.6,352.5v2086.8c50.3,247.7,107.5,326.2,171.7,326.2c64.2,0,121.5-78.5,171.7-326.2V352.2 c0,0,0-33.2-9.3-56.8c0,0-42.1-17.5-164.5-17.5c0,0-134.8,2.4-162.2,19.6C48.1,297.5,37.9,334.5,40.6,352.5z" transform="matrix(1, 0, 0, 1, 0, 0)" overflow="visible"/>
        </clipPath>
        <rect x="37.9" y="98.6" clip-path="url(#SVGID_18_)" fill="#FFFFFF" width="354.2" height="2717.6"/>
      </g>
      <g>
        <defs>
          <rect id="SVGID_19_" x="10.6" y="-35" width="402.3" height="3099.6"/>
        </defs>
      </g>
      <g/>
    </g>
    <g id="wings_1_">
      <polygon fill="#E5E5E5" points="40.5,879.4 19.8,908.8 19.8,1475.7 40.5,1462.7 &#9;&#9;"/>
      <polygon fill="#E5E5E5" points="384.5,879.4 405.2,908.8 405.2,1475.7 384.5,1462.7 &#9;&#9;"/>
    </g>
    <path id="nose_mobile" fill-rule="evenodd" clip-rule="evenodd" fill="#FFFFFF" d="M49.2,297.5c0,0,42-200.8,163.7-197.5 c0,0,115.7-11.3,163,195.4"/>
    <g id="wings_back">
      <path fill="#F3F3F3" d="M14.4,2813.4l46.6-38.2l33.9-61.8c0,0,44.4,171.2,81.7,265.7c0,0-34.4,4.9-51.9,14l-110.3,51.1V2813.4z"/>
      <path fill="#F3F3F3" d="M410.6,2813.4l-46.6-38.2l-33.9-61.8c0,0-44.2,169.7-81.7,265.7c0,0,34.4,4.9,51.9,14l110.3,51.1V2813.4z"/>
    </g>
  </g>
  <g id="power" display="none"/>
  <g id="rooms">
    <g>
      <defs>
        <path id="SVGID_21_" d="M179.6,104.1v87.5c0,1.4-1.1,2.5-2.5,2.5h-91C86.2,194,121.8,119.6,179.6,104.1z"/>
      </defs>
      <path d="M179.6,104.1v87.5c0,1.4-1.1,2.5-2.5,2.5h-91C86.2,194,121.8,119.6,179.6,104.1z" transform="matrix(1, 0, 0, 1, 0, 0)" overflow="visible" fill-rule="evenodd" clip-rule="evenodd" fill="#2DB4D0"/>
    </g>
    <g>
      <defs>
        <path id="SVGID_23_" d="M238.3,194c-1.4,0-2.5-1.1-2.5-2.5l0-88.9c45.8,12.2,78.8,47.4,102.5,91.4H238.3z"/>
      </defs>
      <path d="M238.3,194c-1.4,0-2.5-1.1-2.5-2.5l0-88.9c45.8,12.2,78.8,47.4,102.5,91.4H238.3z" transform="matrix(1, 0, 0, 1, 0, 0)" overflow="visible" fill-rule="evenodd" clip-rule="evenodd" fill="#2DB4D0"/>
    </g>
    <g>
      <g>
        <defs>
          <rect id="SVGID_25_" x="257.2" y="152.2" width="28.8" height="16.9"/>
        </defs>
        <defs>
          <path id="SVGID_26_" d="M270.5,169.1c7.4,0,13.3-0.6,13.3-1.4c0-0.8-6-1.4-13.3-1.4c-7.4,0-13.3,0.6-13.3,1.4 C257.2,168.4,263.1,169.1,270.5,169.1L270.5,169.1z"/>
        </defs>
        <clipPath id="SVGID_27_">
          <rect x="257.2" y="152.2" width="28.8" height="16.9" transform="matrix(1, 0, 0, 1, 0, 0)" overflow="visible"/>
        </clipPath>
        <clipPath id="SVGID_28_" clip-path="url(#SVGID_27_)">
          <path d="M270.5,169.1c7.4,0,13.3-0.6,13.3-1.4c0-0.8-6-1.4-13.3-1.4c-7.4,0-13.3,0.6-13.3,1.4 C257.2,168.4,263.1,169.1,270.5,169.1L270.5,169.1z" transform="matrix(1, 0, 0, 1, 0, 0)" overflow="visible"/>
        </clipPath>
        <rect x="253.7" y="162.8" clip-path="url(#SVGID_28_)" fill="#FFFFFF" width="33.7" height="9.8"/>
      </g>
      <g>
        <defs>
          <rect id="SVGID_29_" x="257.2" y="152.2" width="28.8" height="16.9"/>
        </defs>
        <defs>
          <path id="SVGID_30_" d="M261.9,152.2h17.1l0,0c0.3,0,0.6,0.2,0.7,0.6c0.6,3,0.8,5.6,0.6,7.9c-0.2,2.3-1.3,4.6-3.3,6.8l0,0 c-0.1,0.2-0.3,0.2-0.5,0.2h-12.1l0,0c-0.2,0-0.4-0.1-0.5-0.2c-2-1.9-3.1-4.1-3.3-6.8c-0.2-2.6,0-5.2,0.6-7.9l0,0 C261.3,152.4,261.6,152.2,261.9,152.2L261.9,152.2z"/>
        </defs>
        <clipPath id="SVGID_31_">
          <rect x="257.2" y="152.2" width="28.8" height="16.9" transform="matrix(1, 0, 0, 1, 0, 0)" overflow="visible"/>
        </clipPath>
        <clipPath id="SVGID_32_" clip-path="url(#SVGID_31_)">
          <path d="M261.9,152.2h17.1l0,0c0.3,0,0.6,0.2,0.7,0.6c0.6,3,0.8,5.6,0.6,7.9c-0.2,2.3-1.3,4.6-3.3,6.8l0,0 c-0.1,0.2-0.3,0.2-0.5,0.2h-12.1l0,0c-0.2,0-0.4-0.1-0.5-0.2c-2-1.9-3.1-4.1-3.3-6.8c-0.2-2.6,0-5.2,0.6-7.9l0,0 C261.3,152.4,261.6,152.2,261.9,152.2L261.9,152.2z" transform="matrix(1, 0, 0, 1, 0, 0)" overflow="visible"/>
        </clipPath>
        <rect x="257.1" y="148.7" clip-path="url(#SVGID_32_)" fill="#FFFFFF" width="26.9" height="22.5"/>
      </g>
      <g>
        <defs>
          <rect id="SVGID_33_" x="257.2" y="152.2" width="28.8" height="16.9"/>
        </defs>
        <clipPath id="SVGID_34_">
          <rect x="257.2" y="152.2" width="28.8" height="16.9" transform="matrix(1, 0, 0, 1, 0, 0)" overflow="visible"/>
        </clipPath>
        <path clip-path="url(#SVGID_34_)" fill="#FFFFFF" d="M281.7,164.2c-2.3,0-4.2-1.9-4.2-4.2c0-2.3,1.9-4.2,4.2-4.2 c2.3,0,4.2,1.9,4.2,4.2C286,162.3,284.1,164.2,281.7,164.2z M281.7,157.1c-1.5,0-2.8,1.3-2.8,2.8c0,1.6,1.3,2.8,2.8,2.8 c1.6,0,2.8-1.3,2.8-2.8C284.6,158.4,283.3,157.1,281.7,157.1z"/>
      </g>
    </g>
    <g>
      <g>
        <defs>
          <rect id="SVGID_35_" x="130.6" y="144.7" width="35.4" height="31.8"/>
        </defs>
        <defs>
          <path id="SVGID_36_" d="M134.9,151.5L134.9,151.5L134.9,151.5c0.5,0.2,0.8,0.8,0.6,1.3l-2.6,7.1l0,0c-0.2,0.5-0.8,0.8-1.3,0.6 l0,0l0,0c-0.5-0.2-0.8-0.8-0.6-1.3l2.6-7.1l0,0C133.8,151.6,134.3,151.3,134.9,151.5L134.9,151.5z"/>
        </defs>
        <clipPath id="SVGID_37_">
          <rect x="130.6" y="144.7" width="35.4" height="31.8" transform="matrix(1, 0, 0, 1, 0, 0)" overflow="visible"/>
        </clipPath>
        <clipPath id="SVGID_38_" clip-path="url(#SVGID_37_)">
          <path d="M134.9,151.5L134.9,151.5L134.9,151.5c0.5,0.2,0.8,0.8,0.6,1.3l-2.6,7.1l0,0c-0.2,0.5-0.8,0.8-1.3,0.6 l0,0l0,0c-0.5-0.2-0.8-0.8-0.6-1.3l2.6-7.1l0,0C133.8,151.6,134.3,151.3,134.9,151.5L134.9,151.5z" transform="matrix(1, 0, 0, 1, 0, 0)" overflow="visible"/>
        </clipPath>
        <rect x="123.9" y="150.5" transform="matrix(0.3419 -0.9397 0.9397 0.3419 -58.9278 227.8589)" clip-path="url(#SVGID_38_)" fill="#FFFFFF" width="18.6" height="11.1"/>
      </g>
      <g>
        <defs>
          <rect id="SVGID_39_" x="130.6" y="144.7" width="35.4" height="31.8"/>
        </defs>
        <defs>
          <path id="SVGID_40_" d="M135.9,164.8L135.9,164.8L135.9,164.8c0.7,0,1.3,0.6,1.3,1.3v8.5l0,0c0,0.7-0.6,1.3-1.3,1.3l0,0l0,0 c-0.7,0-1.3-0.6-1.3-1.3v-8.5l0,0C134.6,165.4,135.2,164.8,135.9,164.8L135.9,164.8z"/>
        </defs>
        <clipPath id="SVGID_41_">
          <rect x="130.6" y="144.7" width="35.4" height="31.8" transform="matrix(1, 0, 0, 1, 0, 0)" overflow="visible"/>
        </clipPath>
        <clipPath id="SVGID_42_" clip-path="url(#SVGID_41_)">
          <path d="M135.9,164.8L135.9,164.8L135.9,164.8c0.7,0,1.3,0.6,1.3,1.3v8.5l0,0c0,0.7-0.6,1.3-1.3,1.3l0,0l0,0 c-0.7,0-1.3-0.6-1.3-1.3v-8.5l0,0C134.6,165.4,135.2,164.8,135.9,164.8L135.9,164.8z" transform="matrix(1, 0, 0, 1, 0, 0)" overflow="visible"/>
        </clipPath>
        <rect x="130.1" y="160.3" clip-path="url(#SVGID_42_)" fill="#FFFFFF" width="11.6" height="20.1"/>
      </g>
      <g>
        <defs>
          <rect id="SVGID_43_" x="130.6" y="144.7" width="35.4" height="31.8"/>
        </defs>
        <defs>
          <path id="SVGID_44_" d="M139.4,164.8L139.4,164.8L139.4,164.8c0.7,0,1.3,0.6,1.3,1.3v8.5l0,0c0,0.7-0.6,1.3-1.3,1.3l0,0l0,0 c-0.7,0-1.3-0.6-1.3-1.3v-8.5l0,0C138.2,165.4,138.7,164.8,139.4,164.8L139.4,164.8z"/>
        </defs>
        <clipPath id="SVGID_45_">
          <rect x="130.6" y="144.7" width="35.4" height="31.8" transform="matrix(1, 0, 0, 1, 0, 0)" overflow="visible"/>
        </clipPath>
        <clipPath id="SVGID_46_" clip-path="url(#SVGID_45_)">
          <path d="M139.4,164.8L139.4,164.8L139.4,164.8c0.7,0,1.3,0.6,1.3,1.3v8.5l0,0c0,0.7-0.6,1.3-1.3,1.3l0,0l0,0 c-0.7,0-1.3-0.6-1.3-1.3v-8.5l0,0C138.2,165.4,138.7,164.8,139.4,164.8L139.4,164.8z" transform="matrix(1, 0, 0, 1, 0, 0)" overflow="visible"/>
        </clipPath>
        <rect x="133.6" y="160.3" clip-path="url(#SVGID_46_)" fill="#FFFFFF" width="11.6" height="20.1"/>
      </g>
      <g>
        <defs>
          <rect id="SVGID_47_" x="130.6" y="144.7" width="35.4" height="31.8"/>
        </defs>
        <defs>
          <path id="SVGID_48_" d="M140.6,151.5L140.6,151.5L140.6,151.5c0.5-0.2,1.1,0.1,1.3,0.6l2.6,7.1l0,0c0.2,0.5-0.1,1.1-0.6,1.3l0,0 l0,0c-0.5,0.2-1.1-0.1-1.3-0.6l-2.6-7.1l0,0C139.8,152.3,140.1,151.7,140.6,151.5L140.6,151.5z"/>
        </defs>
        <clipPath id="SVGID_49_">
          <rect x="130.6" y="144.7" width="35.4" height="31.8" transform="matrix(1, 0, 0, 1, 0, 0)" overflow="visible"/>
        </clipPath>
        <clipPath id="SVGID_50_" clip-path="url(#SVGID_49_)">
          <path d="M140.6,151.5L140.6,151.5L140.6,151.5c0.5-0.2,1.1,0.1,1.3,0.6l2.6,7.1l0,0c0.2,0.5-0.1,1.1-0.6,1.3l0,0 l0,0c-0.5,0.2-1.1-0.1-1.3-0.6l-2.6-7.1l0,0C139.8,152.3,140.1,151.7,140.6,151.5L140.6,151.5z" transform="matrix(1, 0, 0, 1, 0, 0)" overflow="visible"/>
        </clipPath>
        <rect x="136.7" y="146.7" transform="matrix(0.9398 -0.3418 0.3418 0.9398 -44.7571 58.0228)" clip-path="url(#SVGID_50_)" fill="#FFFFFF" width="11.1" height="18.6"/>
      </g>
      <g>
        <defs>
          <rect id="SVGID_51_" x="130.6" y="144.7" width="35.4" height="31.8"/>
        </defs>
        <defs>
          <path id="SVGID_52_" d="M134.7,151.3h6l0,0c0.5,0,0.9,0.4,0.9,0.9c0,0,0,0.1,0,0.1l-0.9,7h-6l-0.9-7l0,0c-0.1-0.5,0.3-1,0.8-1 C134.6,151.3,134.6,151.3,134.7,151.3L134.7,151.3z"/>
        </defs>
        <clipPath id="SVGID_53_">
          <rect x="130.6" y="144.7" width="35.4" height="31.8" transform="matrix(1, 0, 0, 1, 0, 0)" overflow="visible"/>
        </clipPath>
        <clipPath id="SVGID_54_" clip-path="url(#SVGID_53_)">
          <path d="M134.7,151.3h6l0,0c0.5,0,0.9,0.4,0.9,0.9c0,0,0,0.1,0,0.1l-0.9,7h-6l-0.9-7l0,0c-0.1-0.5,0.3-1,0.8-1 C134.6,151.3,134.6,151.3,134.7,151.3L134.7,151.3z" transform="matrix(1, 0, 0, 1, 0, 0)" overflow="visible"/>
        </clipPath>
        <rect x="129.2" y="146.7" clip-path="url(#SVGID_54_)" fill="#FFFFFF" width="16.9" height="17.1"/>
      </g>
      <g>
        <defs>
          <rect id="SVGID_55_" x="130.6" y="144.7" width="35.4" height="31.8"/>
        </defs>
        <defs>
          <path id="SVGID_56_" d="M133.8,165.8h7.7l0,0c0.5,0,0.9-0.4,0.9-0.9c0-0.1,0-0.1,0-0.2l-1.7-6.9h-6l-1.7,6.9l0,0 c-0.1,0.5,0.2,1,0.7,1.1C133.7,165.8,133.7,165.8,133.8,165.8L133.8,165.8z"/>
        </defs>
        <clipPath id="SVGID_57_">
          <rect x="130.6" y="144.7" width="35.4" height="31.8" transform="matrix(1, 0, 0, 1, 0, 0)" overflow="visible"/>
        </clipPath>
        <clipPath id="SVGID_58_" clip-path="url(#SVGID_57_)">
          <path d="M133.8,165.8h7.7l0,0c0.5,0,0.9-0.4,0.9-0.9c0-0.1,0-0.1,0-0.2l-1.7-6.9h-6l-1.7,6.9l0,0 c-0.1,0.5,0.2,1,0.7,1.1C133.7,165.8,133.7,165.8,133.8,165.8L133.8,165.8z" transform="matrix(1, 0, 0, 1, 0, 0)" overflow="visible"/>
        </clipPath>
        <rect x="128.4" y="153.2" clip-path="url(#SVGID_58_)" fill="#FFFFFF" width="18.6" height="17.1"/>
      </g>
      <g>
        <defs>
          <rect id="SVGID_59_" x="130.6" y="144.7" width="35.4" height="31.8"/>
        </defs>
        <defs>
          <path id="SVGID_60_" d="M137.9,150.3c1.5,0,2.8-1.2,2.8-2.8c0-1.5-1.2-2.8-2.8-2.8c-1.5,0-2.8,1.2-2.8,2.8 C135.1,149,136.4,150.3,137.9,150.3L137.9,150.3z"/>
        </defs>
        <clipPath id="SVGID_61_">
          <rect x="130.6" y="144.7" width="35.4" height="31.8" transform="matrix(1, 0, 0, 1, 0, 0)" overflow="visible"/>
        </clipPath>
        <clipPath id="SVGID_62_" clip-path="url(#SVGID_61_)">
          <path d="M137.9,150.3c1.5,0,2.8-1.2,2.8-2.8c0-1.5-1.2-2.8-2.8-2.8c-1.5,0-2.8,1.2-2.8,2.8 C135.1,149,136.4,150.3,137.9,150.3L137.9,150.3z" transform="matrix(1, 0, 0, 1, 0, 0)" overflow="visible"/>
        </clipPath>
        <rect x="130.6" y="140.2" clip-path="url(#SVGID_62_)" fill="#FFFFFF" width="14.6" height="14.6"/>
      </g>
      <g>
        <defs>
          <rect id="SVGID_63_" x="130.6" y="144.7" width="35.4" height="31.8"/>
        </defs>
        <defs>
          <path id="SVGID_64_" d="M155.9,151.5L155.9,151.5L155.9,151.5c0.5,0.2,0.8,0.8,0.6,1.3l-2.6,7.1l0,0c-0.2,0.5-0.8,0.8-1.3,0.6 l0,0l0,0c-0.5-0.2-0.8-0.8-0.6-1.3l2.6-7.1l0,0C154.8,151.6,155.4,151.3,155.9,151.5L155.9,151.5z"/>
        </defs>
        <clipPath id="SVGID_65_">
          <rect x="130.6" y="144.7" width="35.4" height="31.8" transform="matrix(1, 0, 0, 1, 0, 0)" overflow="visible"/>
        </clipPath>
        <clipPath id="SVGID_66_" clip-path="url(#SVGID_65_)">
          <path d="M155.9,151.5L155.9,151.5L155.9,151.5c0.5,0.2,0.8,0.8,0.6,1.3l-2.6,7.1l0,0c-0.2,0.5-0.8,0.8-1.3,0.6 l0,0l0,0c-0.5-0.2-0.8-0.8-0.6-1.3l2.6-7.1l0,0C154.8,151.6,155.4,151.3,155.9,151.5L155.9,151.5z" transform="matrix(1, 0, 0, 1, 0, 0)" overflow="visible"/>
        </clipPath>
        <rect x="145" y="150.5" transform="matrix(0.3418 -0.9398 0.9398 0.3418 -45.0507 247.6854)" clip-path="url(#SVGID_66_)" fill="#FFFFFF" width="18.6" height="11.1"/>
      </g>
      <g>
        <defs>
          <rect id="SVGID_67_" x="130.6" y="144.7" width="35.4" height="31.8"/>
        </defs>
        <defs>
          <path id="SVGID_68_" d="M157,159.8L157,159.8L157,159.8c0.7,0,1.3,0.6,1.3,1.3v13.5l0,0c0,0.7-0.6,1.3-1.3,1.3l0,0l0,0 c-0.7,0-1.3-0.6-1.3-1.3v-13.5l0,0C155.7,160.4,156.3,159.8,157,159.8L157,159.8z"/>
        </defs>
        <clipPath id="SVGID_69_">
          <rect x="130.6" y="144.7" width="35.4" height="31.8" transform="matrix(1, 0, 0, 1, 0, 0)" overflow="visible"/>
        </clipPath>
        <clipPath id="SVGID_70_" clip-path="url(#SVGID_69_)">
          <path d="M157,159.8L157,159.8L157,159.8c0.7,0,1.3,0.6,1.3,1.3v13.5l0,0c0,0.7-0.6,1.3-1.3,1.3l0,0l0,0 c-0.7,0-1.3-0.6-1.3-1.3v-13.5l0,0C155.7,160.4,156.3,159.8,157,159.8L157,159.8z" transform="matrix(1, 0, 0, 1, 0, 0)" overflow="visible"/>
        </clipPath>
        <rect x="151.2" y="155.3" clip-path="url(#SVGID_70_)" fill="#FFFFFF" width="11.6" height="25.1"/>
      </g>
      <g>
        <defs>
          <rect id="SVGID_71_" x="130.6" y="144.7" width="35.4" height="31.8"/>
        </defs>
        <defs>
          <path id="SVGID_72_" d="M160.5,159.8L160.5,159.8L160.5,159.8c0.7,0,1.3,0.6,1.3,1.3v13.5l0,0c0,0.7-0.6,1.3-1.3,1.3l0,0l0,0 c-0.7,0-1.2-0.6-1.2-1.3v-13.5l0,0C159.2,160.4,159.8,159.8,160.5,159.8L160.5,159.8z"/>
        </defs>
        <clipPath id="SVGID_73_">
          <rect x="130.6" y="144.7" width="35.4" height="31.8" transform="matrix(1, 0, 0, 1, 0, 0)" overflow="visible"/>
        </clipPath>
        <clipPath id="SVGID_74_" clip-path="url(#SVGID_73_)">
          <path d="M160.5,159.8L160.5,159.8L160.5,159.8c0.7,0,1.3,0.6,1.3,1.3v13.5l0,0c0,0.7-0.6,1.3-1.3,1.3l0,0l0,0 c-0.7,0-1.2-0.6-1.2-1.3v-13.5l0,0C159.2,160.4,159.8,159.8,160.5,159.8L160.5,159.8z" transform="matrix(1, 0, 0, 1, 0, 0)" overflow="visible"/>
        </clipPath>
        <rect x="154.7" y="155.3" clip-path="url(#SVGID_74_)" fill="#FFFFFF" width="11.6" height="25.1"/>
      </g>
      <g>
        <defs>
          <rect id="SVGID_75_" x="130.6" y="144.7" width="35.4" height="31.8"/>
        </defs>
        <defs>
          <path id="SVGID_76_" d="M161.7,151.5L161.7,151.5L161.7,151.5c0.5-0.2,1.1,0.1,1.3,0.6l2.6,7.1l0,0c0.2,0.5-0.1,1.1-0.6,1.3l0,0 l0,0c-0.5,0.2-1.1-0.1-1.3-0.6l-2.6-7.1l0,0C160.9,152.3,161.2,151.7,161.7,151.5L161.7,151.5z"/>
        </defs>
        <clipPath id="SVGID_77_">
          <rect x="130.6" y="144.7" width="35.4" height="31.8" transform="matrix(1, 0, 0, 1, 0, 0)" overflow="visible"/>
        </clipPath>
        <clipPath id="SVGID_78_" clip-path="url(#SVGID_77_)">
          <path d="M161.7,151.5L161.7,151.5L161.7,151.5c0.5-0.2,1.1,0.1,1.3,0.6l2.6,7.1l0,0c0.2,0.5-0.1,1.1-0.6,1.3l0,0 l0,0c-0.5,0.2-1.1-0.1-1.3-0.6l-2.6-7.1l0,0C160.9,152.3,161.2,151.7,161.7,151.5L161.7,151.5z" transform="matrix(1, 0, 0, 1, 0, 0)" overflow="visible"/>
        </clipPath>
        <rect x="157.8" y="146.7" transform="matrix(0.9398 -0.3418 0.3418 0.9398 -43.4895 65.2267)" clip-path="url(#SVGID_78_)" fill="#FFFFFF" width="11.1" height="18.6"/>
      </g>
      <g>
        <defs>
          <rect id="SVGID_79_" x="130.6" y="144.7" width="35.4" height="31.8"/>
        </defs>
        <defs>
          <path id="SVGID_80_" d="M155.7,151.3h6.1l0,0c0.5,0,0.9,0.4,0.9,0.9c0,0,0,0,0,0l-0.4,10.2l0,0c0,0.5-0.4,0.9-0.9,0.9h-5.3l0,0 c-0.5,0-0.9-0.4-0.9-0.9l-0.4-10.2l0,0C154.7,151.7,155.1,151.3,155.7,151.3C155.6,151.3,155.6,151.3,155.7,151.3L155.7,151.3z"/>
        </defs>
        <clipPath id="SVGID_81_">
          <rect x="130.6" y="144.7" width="35.4" height="31.8" transform="matrix(1, 0, 0, 1, 0, 0)" overflow="visible"/>
        </clipPath>
        <clipPath id="SVGID_82_" clip-path="url(#SVGID_81_)">
          <path d="M155.7,151.3h6.1l0,0c0.5,0,0.9,0.4,0.9,0.9c0,0,0,0,0,0l-0.4,10.2l0,0c0,0.5-0.4,0.9-0.9,0.9h-5.3l0,0 c-0.5,0-0.9-0.4-0.9-0.9l-0.4-10.2l0,0C154.7,151.7,155.1,151.3,155.7,151.3C155.6,151.3,155.6,151.3,155.7,151.3L155.7,151.3z" transform="matrix(1, 0, 0, 1, 0, 0)" overflow="visible"/>
        </clipPath>
        <rect x="150.2" y="146.7" clip-path="url(#SVGID_82_)" fill="#FFFFFF" width="17" height="21.1"/>
      </g>
      <g>
        <defs>
          <rect id="SVGID_83_" x="130.6" y="144.7" width="35.4" height="31.8"/>
        </defs>
        <defs>
          <path id="SVGID_84_" d="M159,150.3c1.5,0,2.8-1.2,2.8-2.8c0-1.5-1.2-2.8-2.8-2.8c-1.5,0-2.8,1.2-2.8,2.8 C156.2,149,157.5,150.3,159,150.3L159,150.3z"/>
        </defs>
        <clipPath id="SVGID_85_">
          <rect x="130.6" y="144.7" width="35.4" height="31.8" transform="matrix(1, 0, 0, 1, 0, 0)" overflow="visible"/>
        </clipPath>
        <clipPath id="SVGID_86_" clip-path="url(#SVGID_85_)">
          <path d="M159,150.3c1.5,0,2.8-1.2,2.8-2.8c0-1.5-1.2-2.8-2.8-2.8c-1.5,0-2.8,1.2-2.8,2.8 C156.2,149,157.5,150.3,159,150.3L159,150.3z" transform="matrix(1, 0, 0, 1, 0, 0)" overflow="visible"/>
        </clipPath>
        <rect x="151.7" y="140.2" clip-path="url(#SVGID_86_)" fill="#FFFFFF" width="14.6" height="14.6"/>
      </g>
      <g>
        <defs>
          <rect id="SVGID_87_" x="147.7" y="144.7" width="1.5" height="31.6"/>
        </defs>
        <clipPath id="SVGID_88_">
          <rect x="147.7" y="144.7" width="1.5" height="31.6" transform="matrix(1, 0, 0, 1, 0, 0)" overflow="visible"/>
        </clipPath>
        <rect x="143.1" y="140.2" clip-path="url(#SVGID_88_)" fill="#FFFFFF" width="10.6" height="40.7"/>
      </g>
    </g>
    <path fill-rule="evenodd" clip-rule="evenodd" fill="#2DB4D0" d="M211.1,2765.5c-90.3,0-136.9-188.2-136.9-188.2h134.5 c1.5,0,2.8,1.2,2.8,2.8L211.1,2765.5z"/>
    <path fill-rule="evenodd" clip-rule="evenodd" fill="#2DB4D0" d="M213.5,2580.1c0-1.5,1.2-2.8,2.8-2.8h134 c0,0-44.7,188.2-137.1,188.2L213.5,2580.1z"/>
    <g>
      <g>
        <defs>
          <rect id="SVGID_89_" x="142.2" y="2630.8" width="28.7" height="16.8"/>
        </defs>
        <defs>
          <path id="SVGID_90_" d="M155.5,2647.6c7.3,0,13.3-0.6,13.3-1.4c0-0.8-5.9-1.4-13.3-1.4c-7.3,0-13.3,0.6-13.3,1.4 C142.2,2646.9,148.1,2647.6,155.5,2647.6L155.5,2647.6z"/>
        </defs>
        <clipPath id="SVGID_91_">
          <rect x="142.2" y="2630.8" width="28.7" height="16.8" transform="matrix(1, 0, 0, 1, 0, 0)" overflow="visible"/>
        </clipPath>
        <clipPath id="SVGID_92_" clip-path="url(#SVGID_91_)">
          <path d="M155.5,2647.6c7.3,0,13.3-0.6,13.3-1.4c0-0.8-5.9-1.4-13.3-1.4c-7.3,0-13.3,0.6-13.3,1.4 C142.2,2646.9,148.1,2647.6,155.5,2647.6L155.5,2647.6z" transform="matrix(1, 0, 0, 1, 0, 0)" overflow="visible"/>
        </clipPath>
        <rect x="138.7" y="2641.3" clip-path="url(#SVGID_92_)" fill="#FFFFFF" width="33.6" height="9.8"/>
      </g>
      <g>
        <defs>
          <rect id="SVGID_93_" x="142.2" y="2630.8" width="28.7" height="16.8"/>
        </defs>
        <defs>
          <path id="SVGID_94_" d="M146.9,2630.8H164l0,0c0.3,0,0.6,0.2,0.7,0.6c0.6,3,0.8,5.6,0.6,7.8c-0.2,2.3-1.3,4.5-3.3,6.8l0,0 c-0.1,0.1-0.3,0.2-0.5,0.2h-12l0,0c-0.2,0-0.4-0.1-0.5-0.2c-2-1.9-3-4.1-3.3-6.8c-0.2-2.6,0-5.2,0.6-7.9l0,0 C146.3,2631,146.6,2630.8,146.9,2630.8L146.9,2630.8z"/>
        </defs>
        <clipPath id="SVGID_95_">
          <rect x="142.2" y="2630.8" width="28.7" height="16.8" transform="matrix(1, 0, 0, 1, 0, 0)" overflow="visible"/>
        </clipPath>
        <clipPath id="SVGID_96_" clip-path="url(#SVGID_95_)">
          <path d="M146.9,2630.8H164l0,0c0.3,0,0.6,0.2,0.7,0.6c0.6,3,0.8,5.6,0.6,7.8c-0.2,2.3-1.3,4.5-3.3,6.8l0,0 c-0.1,0.1-0.3,0.2-0.5,0.2h-12l0,0c-0.2,0-0.4-0.1-0.5-0.2c-2-1.9-3-4.1-3.3-6.8c-0.2-2.6,0-5.2,0.6-7.9l0,0 C146.3,2631,146.6,2630.8,146.9,2630.8L146.9,2630.8z" transform="matrix(1, 0, 0, 1, 0, 0)" overflow="visible"/>
        </clipPath>
        <rect x="142.1" y="2627.3" clip-path="url(#SVGID_96_)" fill="#FFFFFF" width="26.8" height="22.4"/>
      </g>
      <g>
        <defs>
          <rect id="SVGID_97_" x="142.2" y="2630.8" width="28.7" height="16.8"/>
        </defs>
        <clipPath id="SVGID_98_">
          <rect x="142.2" y="2630.8" width="28.7" height="16.8" transform="matrix(1, 0, 0, 1, 0, 0)" overflow="visible"/>
        </clipPath>
        <path clip-path="url(#SVGID_98_)" fill="#FFFFFF" d="M166.6,2642.7c-2.3,0-4.2-1.9-4.2-4.2c0-2.3,1.9-4.2,4.2-4.2 c2.3,0,4.2,1.9,4.2,4.2C170.8,2640.8,169,2642.7,166.6,2642.7z M166.6,2635.7c-1.5,0-2.8,1.3-2.8,2.8c0,1.5,1.3,2.8,2.8,2.8 c1.5,0,2.8-1.3,2.8-2.8C169.4,2636.9,168.2,2635.7,166.6,2635.7z"/>
      </g>
    </g>
    <path fill="#F3F3F3" d="M378.1,305.9H253c-1.8,0-3.3-1.5-3.3-3.3c0-1.8,1.5-3.3,3.3-3.3h125.1"/>
    <path fill="#F3F3F3" d="M43.8,305.9h125.1c1.8,0,3.3-1.5,3.3-3.3c0-1.8-1.5-3.3-3.3-3.3H43.8"/>
    <g>
      <g>
        <defs>
          <rect id="SVGID_99_" x="248.4" y="2605.5" width="35.4" height="31.8"/>
        </defs>
        <defs>
          <path id="SVGID_100_" d="M252.7,2612.3L252.7,2612.3L252.7,2612.3c0.5,0.2,0.8,0.8,0.6,1.3l-2.6,7.1l0,0 c-0.2,0.5-0.8,0.8-1.3,0.6l0,0l0,0c-0.5-0.2-0.8-0.8-0.6-1.3l2.6-7.1l0,0C251.6,2612.4,252.1,2612.1,252.7,2612.3L252.7,2612.3z "/>
        </defs>
        <clipPath id="SVGID_101_">
          <rect x="248.4" y="2605.5" width="35.4" height="31.8" transform="matrix(1, 0, 0, 1, 0, 0)" overflow="visible"/>
        </clipPath>
        <clipPath id="SVGID_102_" clip-path="url(#SVGID_101_)">
          <path d="M252.7,2612.3L252.7,2612.3L252.7,2612.3c0.5,0.2,0.8,0.8,0.6,1.3l-2.6,7.1l0,0 c-0.2,0.5-0.8,0.8-1.3,0.6l0,0l0,0c-0.5-0.2-0.8-0.8-0.6-1.3l2.6-7.1l0,0C251.6,2612.4,252.1,2612.1,252.7,2612.3L252.7,2612.3z " transform="matrix(1, 0, 0, 1, 0, 0)" overflow="visible"/>
        </clipPath>
        <rect x="241.7" y="2611.2" transform="matrix(0.3419 -0.9397 0.9397 0.3419 -2293.877 1957.983)" clip-path="url(#SVGID_102_)" fill="#FFFFFF" width="18.6" height="11.1"/>
      </g>
      <g>
        <defs>
          <rect id="SVGID_103_" x="248.4" y="2605.5" width="35.4" height="31.8"/>
        </defs>
        <defs>
          <path id="SVGID_104_" d="M253.7,2625.6L253.7,2625.6L253.7,2625.6c0.7,0,1.3,0.6,1.3,1.3v8.5l0,0c0,0.7-0.6,1.3-1.3,1.3l0,0l0,0 c-0.7,0-1.3-0.6-1.3-1.3v-8.5l0,0C252.5,2626.2,253,2625.6,253.7,2625.6L253.7,2625.6z"/>
        </defs>
        <clipPath id="SVGID_105_">
          <rect x="248.4" y="2605.5" width="35.4" height="31.8" transform="matrix(1, 0, 0, 1, 0, 0)" overflow="visible"/>
        </clipPath>
        <clipPath id="SVGID_106_" clip-path="url(#SVGID_105_)">
          <path d="M253.7,2625.6L253.7,2625.6L253.7,2625.6c0.7,0,1.3,0.6,1.3,1.3v8.5l0,0c0,0.7-0.6,1.3-1.3,1.3l0,0l0,0 c-0.7,0-1.3-0.6-1.3-1.3v-8.5l0,0C252.5,2626.2,253,2625.6,253.7,2625.6L253.7,2625.6z" transform="matrix(1, 0, 0, 1, 0, 0)" overflow="visible"/>
        </clipPath>
        <rect x="247.9" y="2621.1" clip-path="url(#SVGID_106_)" fill="#FFFFFF" width="11.6" height="20.1"/>
      </g>
      <g>
        <defs>
          <rect id="SVGID_107_" x="248.4" y="2605.5" width="35.4" height="31.8"/>
        </defs>
        <defs>
          <path id="SVGID_108_" d="M257.2,2625.6L257.2,2625.6L257.2,2625.6c0.7,0,1.3,0.6,1.3,1.3v8.5l0,0c0,0.7-0.6,1.3-1.3,1.3l0,0l0,0 c-0.7,0-1.3-0.6-1.3-1.3v-8.5l0,0C256,2626.2,256.5,2625.6,257.2,2625.6L257.2,2625.6z"/>
        </defs>
        <clipPath id="SVGID_109_">
          <rect x="248.4" y="2605.5" width="35.4" height="31.8" transform="matrix(1, 0, 0, 1, 0, 0)" overflow="visible"/>
        </clipPath>
        <clipPath id="SVGID_110_" clip-path="url(#SVGID_109_)">
          <path d="M257.2,2625.6L257.2,2625.6L257.2,2625.6c0.7,0,1.3,0.6,1.3,1.3v8.5l0,0c0,0.7-0.6,1.3-1.3,1.3l0,0l0,0 c-0.7,0-1.3-0.6-1.3-1.3v-8.5l0,0C256,2626.2,256.5,2625.6,257.2,2625.6L257.2,2625.6z" transform="matrix(1, 0, 0, 1, 0, 0)" overflow="visible"/>
        </clipPath>
        <rect x="251.4" y="2621.1" clip-path="url(#SVGID_110_)" fill="#FFFFFF" width="11.6" height="20.1"/>
      </g>
      <g>
        <defs>
          <rect id="SVGID_111_" x="248.4" y="2605.5" width="35.4" height="31.8"/>
        </defs>
        <defs>
          <path id="SVGID_112_" d="M258.4,2612.3L258.4,2612.3L258.4,2612.3c0.5-0.2,1.1,0.1,1.3,0.6l2.6,7.1l0,0c0.2,0.5-0.1,1.1-0.6,1.3 l0,0l0,0c-0.5,0.2-1.1-0.1-1.3-0.6l-2.6-7.1l0,0C257.6,2613.1,257.9,2612.5,258.4,2612.3L258.4,2612.3z"/>
        </defs>
        <clipPath id="SVGID_113_">
          <rect x="248.4" y="2605.5" width="35.4" height="31.8" transform="matrix(1, 0, 0, 1, 0, 0)" overflow="visible"/>
        </clipPath>
        <clipPath id="SVGID_114_" clip-path="url(#SVGID_113_)">
          <path d="M258.4,2612.3L258.4,2612.3L258.4,2612.3c0.5-0.2,1.1,0.1,1.3,0.6l2.6,7.1l0,0c0.2,0.5-0.1,1.1-0.6,1.3 l0,0l0,0c-0.5,0.2-1.1-0.1-1.3-0.6l-2.6-7.1l0,0C257.6,2613.1,257.9,2612.5,258.4,2612.3L258.4,2612.3z" transform="matrix(1, 0, 0, 1, 0, 0)" overflow="visible"/>
        </clipPath>
        <rect x="254.5" y="2607.5" transform="matrix(0.9398 -0.3418 0.3418 0.9398 -878.8207 246.5234)" clip-path="url(#SVGID_114_)" fill="#FFFFFF" width="11.1" height="18.6"/>
      </g>
      <g>
        <defs>
          <rect id="SVGID_115_" x="248.4" y="2605.5" width="35.4" height="31.8"/>
        </defs>
        <defs>
          <path id="SVGID_116_" d="M252.5,2612.1h6l0,0c0.5,0,0.9,0.4,0.9,0.9c0,0,0,0.1,0,0.1l-0.9,7h-6l-0.9-7l0,0c-0.1-0.5,0.3-1,0.8-1 C252.4,2612.1,252.4,2612.1,252.5,2612.1L252.5,2612.1z"/>
        </defs>
        <clipPath id="SVGID_117_">
          <rect x="248.4" y="2605.5" width="35.4" height="31.8" transform="matrix(1, 0, 0, 1, 0, 0)" overflow="visible"/>
        </clipPath>
        <clipPath id="SVGID_118_" clip-path="url(#SVGID_117_)">
          <path d="M252.5,2612.1h6l0,0c0.5,0,0.9,0.4,0.9,0.9c0,0,0,0.1,0,0.1l-0.9,7h-6l-0.9-7l0,0c-0.1-0.5,0.3-1,0.8-1 C252.4,2612.1,252.4,2612.1,252.5,2612.1L252.5,2612.1z" transform="matrix(1, 0, 0, 1, 0, 0)" overflow="visible"/>
        </clipPath>
        <rect x="247" y="2607.5" clip-path="url(#SVGID_118_)" fill="#FFFFFF" width="16.9" height="17.1"/>
      </g>
      <g>
        <defs>
          <rect id="SVGID_119_" x="248.4" y="2605.5" width="35.4" height="31.8"/>
        </defs>
        <defs>
          <path id="SVGID_120_" d="M251.6,2626.6h7.7l0,0c0.5,0,0.9-0.4,0.9-0.9c0-0.1,0-0.1,0-0.2l-1.7-6.9h-6l-1.7,6.9l0,0 c-0.1,0.5,0.2,1,0.7,1.1C251.5,2626.6,251.5,2626.6,251.6,2626.6L251.6,2626.6z"/>
        </defs>
        <clipPath id="SVGID_121_">
          <rect x="248.4" y="2605.5" width="35.4" height="31.8" transform="matrix(1, 0, 0, 1, 0, 0)" overflow="visible"/>
        </clipPath>
        <clipPath id="SVGID_122_" clip-path="url(#SVGID_121_)">
          <path d="M251.6,2626.6h7.7l0,0c0.5,0,0.9-0.4,0.9-0.9c0-0.1,0-0.1,0-0.2l-1.7-6.9h-6l-1.7,6.9l0,0 c-0.1,0.5,0.2,1,0.7,1.1C251.5,2626.6,251.5,2626.6,251.6,2626.6L251.6,2626.6z" transform="matrix(1, 0, 0, 1, 0, 0)" overflow="visible"/>
        </clipPath>
        <rect x="246.2" y="2614" clip-path="url(#SVGID_122_)" fill="#FFFFFF" width="18.6" height="17.1"/>
      </g>
      <g>
        <defs>
          <rect id="SVGID_123_" x="248.4" y="2605.5" width="35.4" height="31.8"/>
        </defs>
        <defs>
          <path id="SVGID_124_" d="M255.7,2611.1c1.5,0,2.8-1.2,2.8-2.8c0-1.5-1.2-2.8-2.8-2.8c-1.5,0-2.8,1.2-2.8,2.8 C253,2609.8,254.2,2611.1,255.7,2611.1L255.7,2611.1z"/>
        </defs>
        <clipPath id="SVGID_125_">
          <rect x="248.4" y="2605.5" width="35.4" height="31.8" transform="matrix(1, 0, 0, 1, 0, 0)" overflow="visible"/>
        </clipPath>
        <clipPath id="SVGID_126_" clip-path="url(#SVGID_125_)">
          <path d="M255.7,2611.1c1.5,0,2.8-1.2,2.8-2.8c0-1.5-1.2-2.8-2.8-2.8c-1.5,0-2.8,1.2-2.8,2.8 C253,2609.8,254.2,2611.1,255.7,2611.1L255.7,2611.1z" transform="matrix(1, 0, 0, 1, 0, 0)" overflow="visible"/>
        </clipPath>
        <rect x="248.4" y="2601" clip-path="url(#SVGID_126_)" fill="#FFFFFF" width="14.6" height="14.6"/>
      </g>
      <g>
        <defs>
          <rect id="SVGID_127_" x="248.4" y="2605.5" width="35.4" height="31.8"/>
        </defs>
        <defs>
          <path id="SVGID_128_" d="M273.7,2612.3L273.7,2612.3L273.7,2612.3c0.5,0.2,0.8,0.8,0.6,1.3l-2.6,7.1l0,0 c-0.2,0.5-0.8,0.8-1.3,0.6l0,0l0,0c-0.5-0.2-0.8-0.8-0.6-1.3l2.6-7.1l0,0C272.6,2612.4,273.2,2612.1,273.7,2612.3L273.7,2612.3z "/>
        </defs>
        <clipPath id="SVGID_129_">
          <rect x="248.4" y="2605.5" width="35.4" height="31.8" transform="matrix(1, 0, 0, 1, 0, 0)" overflow="visible"/>
        </clipPath>
        <clipPath id="SVGID_130_" clip-path="url(#SVGID_129_)">
          <path d="M273.7,2612.3L273.7,2612.3L273.7,2612.3c0.5,0.2,0.8,0.8,0.6,1.3l-2.6,7.1l0,0 c-0.2,0.5-0.8,0.8-1.3,0.6l0,0l0,0c-0.5-0.2-0.8-0.8-0.6-1.3l2.6-7.1l0,0C272.6,2612.4,273.2,2612.1,273.7,2612.3L273.7,2612.3z " transform="matrix(1, 0, 0, 1, 0, 0)" overflow="visible"/>
        </clipPath>
        <rect x="262.8" y="2611.2" transform="matrix(0.3418 -0.9398 0.9398 0.3418 -2280.1101 1978.165)" clip-path="url(#SVGID_130_)" fill="#FFFFFF" width="18.6" height="11.1"/>
      </g>
      <g>
        <defs>
          <rect id="SVGID_131_" x="248.4" y="2605.5" width="35.4" height="31.8"/>
        </defs>
        <defs>
          <path id="SVGID_132_" d="M274.8,2620.6L274.8,2620.6L274.8,2620.6c0.7,0,1.3,0.6,1.3,1.3v13.5l0,0c0,0.7-0.6,1.3-1.3,1.3l0,0 l0,0c-0.7,0-1.3-0.6-1.3-1.3v-13.5l0,0C273.5,2621.1,274.1,2620.6,274.8,2620.6L274.8,2620.6z"/>
        </defs>
        <clipPath id="SVGID_133_">
          <rect x="248.4" y="2605.5" width="35.4" height="31.8" transform="matrix(1, 0, 0, 1, 0, 0)" overflow="visible"/>
        </clipPath>
        <clipPath id="SVGID_134_" clip-path="url(#SVGID_133_)">
          <path d="M274.8,2620.6L274.8,2620.6L274.8,2620.6c0.7,0,1.3,0.6,1.3,1.3v13.5l0,0c0,0.7-0.6,1.3-1.3,1.3l0,0 l0,0c-0.7,0-1.3-0.6-1.3-1.3v-13.5l0,0C273.5,2621.1,274.1,2620.6,274.8,2620.6L274.8,2620.6z" transform="matrix(1, 0, 0, 1, 0, 0)" overflow="visible"/>
        </clipPath>
        <rect x="269" y="2616" clip-path="url(#SVGID_134_)" fill="#FFFFFF" width="11.6" height="25.1"/>
      </g>
      <g>
        <defs>
          <rect id="SVGID_135_" x="248.4" y="2605.5" width="35.4" height="31.8"/>
        </defs>
        <defs>
          <path id="SVGID_136_" d="M278.3,2620.6L278.3,2620.6L278.3,2620.6c0.7,0,1.3,0.6,1.3,1.3v13.5l0,0c0,0.7-0.6,1.3-1.3,1.3l0,0 l0,0c-0.7,0-1.2-0.6-1.2-1.3v-13.5l0,0C277,2621.1,277.6,2620.6,278.3,2620.6L278.3,2620.6z"/>
        </defs>
        <clipPath id="SVGID_137_">
          <rect x="248.4" y="2605.5" width="35.4" height="31.8" transform="matrix(1, 0, 0, 1, 0, 0)" overflow="visible"/>
        </clipPath>
        <clipPath id="SVGID_138_" clip-path="url(#SVGID_137_)">
          <path d="M278.3,2620.6L278.3,2620.6L278.3,2620.6c0.7,0,1.3,0.6,1.3,1.3v13.5l0,0c0,0.7-0.6,1.3-1.3,1.3l0,0 l0,0c-0.7,0-1.2-0.6-1.2-1.3v-13.5l0,0C277,2621.1,277.6,2620.6,278.3,2620.6L278.3,2620.6z" transform="matrix(1, 0, 0, 1, 0, 0)" overflow="visible"/>
        </clipPath>
        <rect x="272.5" y="2616" clip-path="url(#SVGID_138_)" fill="#FFFFFF" width="11.6" height="25.1"/>
      </g>
      <g>
        <defs>
          <rect id="SVGID_139_" x="248.4" y="2605.5" width="35.4" height="31.8"/>
        </defs>
        <defs>
          <path id="SVGID_140_" d="M279.5,2612.3L279.5,2612.3L279.5,2612.3c0.5-0.2,1.1,0.1,1.3,0.6l2.6,7.1l0,0c0.2,0.5-0.1,1.1-0.6,1.3 l0,0l0,0c-0.5,0.2-1.1-0.1-1.3-0.6l-2.6-7.1l0,0C278.7,2613.1,279,2612.5,279.5,2612.3L279.5,2612.3z"/>
        </defs>
        <clipPath id="SVGID_141_">
          <rect x="248.4" y="2605.5" width="35.4" height="31.8" transform="matrix(1, 0, 0, 1, 0, 0)" overflow="visible"/>
        </clipPath>
        <clipPath id="SVGID_142_" clip-path="url(#SVGID_141_)">
          <path d="M279.5,2612.3L279.5,2612.3L279.5,2612.3c0.5-0.2,1.1,0.1,1.3,0.6l2.6,7.1l0,0c0.2,0.5-0.1,1.1-0.6,1.3 l0,0l0,0c-0.5,0.2-1.1-0.1-1.3-0.6l-2.6-7.1l0,0C278.7,2613.1,279,2612.5,279.5,2612.3L279.5,2612.3z" transform="matrix(1, 0, 0, 1, 0, 0)" overflow="visible"/>
        </clipPath>
        <rect x="275.6" y="2607.5" transform="matrix(0.9398 -0.3418 0.3418 0.9398 -877.5878 253.7418)" clip-path="url(#SVGID_142_)" fill="#FFFFFF" width="11.1" height="18.6"/>
      </g>
      <g>
        <defs>
          <rect id="SVGID_143_" x="248.4" y="2605.5" width="35.4" height="31.8"/>
        </defs>
        <defs>
          <path id="SVGID_144_" d="M273.5,2612.1h6.1l0,0c0.5,0,0.9,0.4,0.9,0.9c0,0,0,0,0,0l-0.4,10.2l0,0c0,0.5-0.4,0.9-0.9,0.9h-5.3 l0,0c-0.5,0-0.9-0.4-0.9-0.9l-0.4-10.2l0,0C272.5,2612.5,272.9,2612.1,273.5,2612.1C273.4,2612.1,273.5,2612.1,273.5,2612.1 L273.5,2612.1z"/>
        </defs>
        <clipPath id="SVGID_145_">
          <rect x="248.4" y="2605.5" width="35.4" height="31.8" transform="matrix(1, 0, 0, 1, 0, 0)" overflow="visible"/>
        </clipPath>
        <clipPath id="SVGID_146_" clip-path="url(#SVGID_145_)">
          <path d="M273.5,2612.1h6.1l0,0c0.5,0,0.9,0.4,0.9,0.9c0,0,0,0,0,0l-0.4,10.2l0,0c0,0.5-0.4,0.9-0.9,0.9h-5.3 l0,0c-0.5,0-0.9-0.4-0.9-0.9l-0.4-10.2l0,0C272.5,2612.5,272.9,2612.1,273.5,2612.1C273.4,2612.1,273.5,2612.1,273.5,2612.1 L273.5,2612.1z" transform="matrix(1, 0, 0, 1, 0, 0)" overflow="visible"/>
        </clipPath>
        <rect x="268" y="2607.5" clip-path="url(#SVGID_146_)" fill="#FFFFFF" width="17" height="21.1"/>
      </g>
      <g>
        <defs>
          <rect id="SVGID_147_" x="248.4" y="2605.5" width="35.4" height="31.8"/>
        </defs>
        <defs>
          <path id="SVGID_148_" d="M276.8,2611.1c1.5,0,2.8-1.2,2.8-2.8c0-1.5-1.2-2.8-2.8-2.8c-1.5,0-2.8,1.2-2.8,2.8 C274,2609.8,275.3,2611.1,276.8,2611.1L276.8,2611.1z"/>
        </defs>
        <clipPath id="SVGID_149_">
          <rect x="248.4" y="2605.5" width="35.4" height="31.8" transform="matrix(1, 0, 0, 1, 0, 0)" overflow="visible"/>
        </clipPath>
        <clipPath id="SVGID_150_" clip-path="url(#SVGID_149_)">
          <path d="M276.8,2611.1c1.5,0,2.8-1.2,2.8-2.8c0-1.5-1.2-2.8-2.8-2.8c-1.5,0-2.8,1.2-2.8,2.8 C274,2609.8,275.3,2611.1,276.8,2611.1L276.8,2611.1z" transform="matrix(1, 0, 0, 1, 0, 0)" overflow="visible"/>
        </clipPath>
        <rect x="269.5" y="2601" clip-path="url(#SVGID_150_)" fill="#FFFFFF" width="14.6" height="14.6"/>
      </g>
      <g>
        <defs>
          <rect id="SVGID_151_" x="265.5" y="2605.5" width="1.5" height="31.6"/>
        </defs>
        <clipPath id="SVGID_152_">
          <rect x="265.5" y="2605.5" width="1.5" height="31.6" transform="matrix(1, 0, 0, 1, 0, 0)" overflow="visible"/>
        </clipPath>
        <rect x="261" y="2601" clip-path="url(#SVGID_152_)" fill="#FFFFFF" width="10.6" height="40.7"/>
      </g>
    </g>
    <g>
      <path fill="#FFFFFF" d="M270.8,2674.8c0,4.3-3.5,7.8-7.7,7.8c-4.3,0-7.7-3.5-7.7-7.8c0-3.1,1.8-5.8,4.5-7c1-0.5,2.1-0.7,3.3-0.7 C267.3,2667.1,270.8,2670.6,270.8,2674.8"/>
      <polygon fill="#2DB4D0" points="258.6,2666.9 259.8,2670.9 261.2,2674.5 268.2,2674.5 270.9,2678 270.6,2667.1 &#9;&#9;"/>
      <path fill="#2DB4D0" d="M268.2,2674.9c0,2.8-2.3,5.1-5.1,5.1c-2.8,0-5.1-2.3-5.1-5.1c0-1.3,0.5-2.5,1.3-3.4 c0.2-0.2,0.4-0.4,0.6-0.6c0.1-0.1,0.1-0.1,0.2-0.2c0.1,0,0.1-0.1,0.2-0.1c0.8-0.6,1.8-0.9,2.9-0.9 C265.9,2669.8,268.2,2672.1,268.2,2674.9"/>
      <path fill="#FFFFFF" d="M265.4,2670.7c0.2,1.2-0.5,2.3-1.5,2.5l-1,0.1c-1,0.1-2-0.7-2.2-2l-0.4-2.8l-1.2-8.2 c-0.2-1.2,0.5-2.3,1.5-2.5l1-0.1c1-0.1,2,0.7,2.2,2L265.4,2670.7z"/>
      <path fill="#FFFFFF" d="M272.2,2671.7c0,1-0.9,1.7-2,1.7h-7.3c-1.1,0-2-0.8-2-1.7c0-1,0.9-1.7,2-1.7h7.3 C271.3,2669.9,272.2,2670.7,272.2,2671.7"/>
      <path fill="#FFFFFF" d="M276.8,2679.4c0.5,0.8,0.2,1.9-0.7,2.4c-0.8,0.5-1.9,0.2-2.4-0.7l-4.9-8.6c-0.5-0.8-0.2-1.9,0.7-2.4 c0.8-0.5,1.9-0.2,2.4,0.7L276.8,2679.4z"/>
      <path fill="#FFFFFF" d="M269.9,2665.5c0,0.6-0.5,1-1,1h-6.2c-0.6,0-1-0.5-1-1c0-0.6,0.5-1,1-1h6.2 C269.4,2664.4,269.9,2664.9,269.9,2665.5"/>
      <path fill="#FFFFFF" d="M263.5,2653.8c0,1.5-1.2,2.8-2.8,2.8c-1.5,0-2.8-1.2-2.8-2.8c0-1.5,1.3-2.8,2.8-2.8 C262.2,2651.1,263.5,2652.3,263.5,2653.8"/>
    </g>
  </g>
  <g id="exits">
    <g>
      <g>
        <defs>
          <polygon id="SVGID_153_" points="55.9,224.5 71.3,224.5 55.9,242.6 71.3,260.7 55.9,260.7 40.5,242.6 55.9,224.5 &#9;&#9;&#9;&#9;"/>
        </defs>
        <polygon points="55.9,224.5 71.3,224.5 55.9,242.6 71.3,260.7 55.9,260.7 40.5,242.6 55.9,224.5 &#9;&#9;&#9;&#9;" transform="matrix(1, 0, 0, 1, 0, 0)" overflow="visible" fill-rule="evenodd" clip-rule="evenodd" fill="#BDBDBD"/>
        <clipPath id="SVGID_154_">
          <polygon points="55.9,224.5 71.3,224.5 55.9,242.6 71.3,260.7 55.9,260.7 40.5,242.6 55.9,224.5 &#9;&#9;&#9;&#9;" transform="matrix(1, 0, 0, 1, 0, 0)" overflow="visible"/>
        </clipPath>
        <rect x="35.5" y="219.5" clip-path="url(#SVGID_154_)" fill="#BDBDBD" width="40.8" height="46.2"/>
      </g>
      <g>
        <defs>
          <polygon id="SVGID_155_" points="78.4,224.5 93.8,224.5 78.4,242.6 93.8,260.7 78.4,260.7 62.9,242.6 78.4,224.5 &#9;&#9;&#9;&#9;"/>
        </defs>
        <polygon points="78.4,224.5 93.8,224.5 78.4,242.6 93.8,260.7 78.4,260.7 62.9,242.6 78.4,224.5 &#9;&#9;&#9;&#9;" transform="matrix(1, 0, 0, 1, 0, 0)" overflow="visible" fill-rule="evenodd" clip-rule="evenodd" fill="#BDBDBD"/>
        <clipPath id="SVGID_156_">
          <polygon points="78.4,224.5 93.8,224.5 78.4,242.6 93.8,260.7 78.4,260.7 62.9,242.6 78.4,224.5 &#9;&#9;&#9;&#9;" transform="matrix(1, 0, 0, 1, 0, 0)" overflow="visible"/>
        </clipPath>
        <rect x="57.9" y="219.5" clip-path="url(#SVGID_156_)" fill="#BDBDBD" width="40.8" height="46.2"/>
      </g>
    </g>
    <g>
      <g>
        <defs>
          <polygon id="SVGID_157_" points="372.2,2484.8 356.8,2484.8 372.2,2502.9 356.8,2521 372.2,2521 387.6,2502.9 372.2,2484.8 &#9;&#9;&#9;&#9;&#10;&#9;&#9;&#9;&#9;&#9;"/>
        </defs>
        <polygon points="372.2,2484.8 356.8,2484.8 372.2,2502.9 356.8,2521 372.2,2521 387.6,2502.9 372.2,2484.8 &#9;&#9;&#9;&#9;&#10;&#9;&#9;&#9;&#9;&#9;" transform="matrix(1, 0, 0, 1, 0, 0)" overflow="visible" fill-rule="evenodd" clip-rule="evenodd" fill="#BDBDBD"/>
        <clipPath id="SVGID_158_">
          <polygon points="372.2,2484.8 356.8,2484.8 372.2,2502.9 356.8,2521 372.2,2521 387.6,2502.9 372.2,2484.8 &#9;&#9;&#9;&#9;&#10;&#9;&#9;&#9;&#9;&#9;" transform="matrix(1, 0, 0, 1, 0, 0)" overflow="visible"/>
        </clipPath>
        <rect x="351.8" y="2479.8" clip-path="url(#SVGID_158_)" fill="#BDBDBD" width="40.9" height="46.2"/>
      </g>
      <g>
        <defs>
          <polygon id="SVGID_159_" points="349.7,2484.8 334.3,2484.8 349.7,2502.9 334.3,2521 349.7,2521 365.2,2502.9 349.7,2484.8 &#9;&#9;&#9;&#9;&#10;&#9;&#9;&#9;&#9;&#9;"/>
        </defs>
        <polygon points="349.7,2484.8 334.3,2484.8 349.7,2502.9 334.3,2521 349.7,2521 365.2,2502.9 349.7,2484.8 &#9;&#9;&#9;&#9;&#10;&#9;&#9;&#9;&#9;&#9;" transform="matrix(1, 0, 0, 1, 0, 0)" overflow="visible" fill-rule="evenodd" clip-rule="evenodd" fill="#BDBDBD"/>
        <clipPath id="SVGID_160_">
          <polygon points="349.7,2484.8 334.3,2484.8 349.7,2502.9 334.3,2521 349.7,2521 365.2,2502.9 349.7,2484.8 &#9;&#9;&#9;&#9;&#10;&#9;&#9;&#9;&#9;&#9;" transform="matrix(1, 0, 0, 1, 0, 0)" overflow="visible"/>
        </clipPath>
        <rect x="329.3" y="2479.8" clip-path="url(#SVGID_160_)" fill="#BDBDBD" width="40.9" height="46.2"/>
      </g>
    </g>
    <g>
      <g>
        <defs>
          <polygon id="SVGID_161_" points="50.4,2484.8 65.8,2484.8 50.4,2502.9 65.8,2521 50.4,2521 35,2502.9 50.4,2484.8 &#9;&#9;&#9;&#9;"/>
        </defs>
        <polygon points="50.4,2484.8 65.8,2484.8 50.4,2502.9 65.8,2521 50.4,2521 35,2502.9 50.4,2484.8 &#9;&#9;&#9;&#9;" transform="matrix(1, 0, 0, 1, 0, 0)" overflow="visible" fill-rule="evenodd" clip-rule="evenodd" fill="#BDBDBD"/>
        <clipPath id="SVGID_162_">
          <polygon points="50.4,2484.8 65.8,2484.8 50.4,2502.9 65.8,2521 50.4,2521 35,2502.9 50.4,2484.8 &#9;&#9;&#9;&#9;" transform="matrix(1, 0, 0, 1, 0, 0)" overflow="visible"/>
        </clipPath>
        <rect x="30" y="2479.8" clip-path="url(#SVGID_162_)" fill="#BDBDBD" width="40.8" height="46.2"/>
      </g>
      <g>
        <defs>
          <polygon id="SVGID_163_" points="72.8,2484.8 88.3,2484.8 72.8,2502.9 88.3,2521 72.8,2521 57.4,2502.9 72.8,2484.8 &#9;&#9;&#9;&#9;"/>
        </defs>
        <polygon points="72.8,2484.8 88.3,2484.8 72.8,2502.9 88.3,2521 72.8,2521 57.4,2502.9 72.8,2484.8 &#9;&#9;&#9;&#9;" transform="matrix(1, 0, 0, 1, 0, 0)" overflow="visible" fill-rule="evenodd" clip-rule="evenodd" fill="#BDBDBD"/>
        <clipPath id="SVGID_164_">
          <polygon points="72.8,2484.8 88.3,2484.8 72.8,2502.9 88.3,2521 72.8,2521 57.4,2502.9 72.8,2484.8 &#9;&#9;&#9;&#9;" transform="matrix(1, 0, 0, 1, 0, 0)" overflow="visible"/>
        </clipPath>
        <rect x="52.4" y="2479.8" clip-path="url(#SVGID_164_)" fill="#BDBDBD" width="40.9" height="46.2"/>
      </g>
    </g>
    <g>
      <path fill="#333333" d="M95.6,246h-5.3v-7.8h5.3v1.6h-3.3v1.5h3.1v1.5h-3.1v1.6h3.3V246z"/>
      <path fill="#333333" d="M100.9,242.1l-2.4-3.8h2.3l1.4,2.6h0.1l1.4-2.6h2.2l-2.5,3.9l2.5,3.9h-2.2l-1.5-2.5h-0.1l-1.5,2.5h-2.1 L100.9,242.1z"/>
      <path fill="#333333" d="M108.9,246v-7.8h2v7.8H108.9z"/>
      <path fill="#333333" d="M116.2,246v-6.2H114v-1.6h6.4v1.6h-2.2v6.2H116.2z"/>
    </g>
    <g>
      <path fill="#333333" d="M94.3,2506.5h-5.3v-7.8h5.3v1.6h-3.3v1.5h3.1v1.5h-3.1v1.6h3.3V2506.5z"/>
      <path fill="#333333" d="M99.5,2502.6l-2.4-3.8h2.3l1.4,2.6h0.1l1.4-2.6h2.2l-2.5,3.9l2.5,3.9h-2.2l-1.5-2.5h-0.1l-1.5,2.5h-2.1 L99.5,2502.6z"/>
      <path fill="#333333" d="M107.6,2506.5v-7.8h2v7.8H107.6z"/>
      <path fill="#333333" d="M114.8,2506.5v-6.2h-2.2v-1.6h6.4v1.6h-2.2v6.2H114.8z"/>
    </g>
    <g>
      <path fill="#333333" d="M307.4,2506.5h-5.3v-7.8h5.3v1.6h-3.3v1.5h3.1v1.5h-3.1v1.6h3.3V2506.5z"/>
      <path fill="#333333" d="M312.7,2502.6l-2.4-3.8h2.3l1.4,2.6h0.1l1.4-2.6h2.2l-2.5,3.9l2.5,3.9h-2.2l-1.5-2.5h-0.1l-1.5,2.5h-2.1 L312.7,2502.6z"/>
      <path fill="#333333" d="M320.7,2506.5v-7.8h2v7.8H320.7z"/>
      <path fill="#333333" d="M328,2506.5v-6.2h-2.2v-1.6h6.4v1.6h-2.2v6.2H328z"/>
    </g>
    <g>
      <g>
        <defs>
          <polygon id="SVGID_165_" points="365.9,224.5 350.5,224.5 365.9,242.6 350.5,260.7 365.9,260.7 381.3,242.6 365.9,224.5 &#9;&#9;&#9;&#9;"/>
        </defs>
        <polygon points="365.9,224.5 350.5,224.5 365.9,242.6 350.5,260.7 365.9,260.7 381.3,242.6 365.9,224.5 &#9;&#9;&#9;&#9;" transform="matrix(1, 0, 0, 1, 0, 0)" overflow="visible" fill-rule="evenodd" clip-rule="evenodd" fill="#BDBDBD"/>
        <clipPath id="SVGID_166_">
          <polygon points="365.9,224.5 350.5,224.5 365.9,242.6 350.5,260.7 365.9,260.7 381.3,242.6 365.9,224.5 &#9;&#9;&#9;&#9;" transform="matrix(1, 0, 0, 1, 0, 0)" overflow="visible"/>
        </clipPath>
        <rect x="345.5" y="219.5" clip-path="url(#SVGID_166_)" fill="#BDBDBD" width="40.9" height="46.2"/>
      </g>
      <g>
        <defs>
          <polygon id="SVGID_167_" points="343.5,224.5 328,224.5 343.5,242.6 328,260.7 343.5,260.7 358.9,242.6 343.5,224.5 &#9;&#9;&#9;&#9;"/>
        </defs>
        <polygon points="343.5,224.5 328,224.5 343.5,242.6 328,260.7 343.5,260.7 358.9,242.6 343.5,224.5 &#9;&#9;&#9;&#9;" transform="matrix(1, 0, 0, 1, 0, 0)" overflow="visible" fill-rule="evenodd" clip-rule="evenodd" fill="#BDBDBD"/>
        <clipPath id="SVGID_168_">
          <polygon points="343.5,224.5 328,224.5 343.5,242.6 328,260.7 343.5,260.7 358.9,242.6 343.5,224.5 &#9;&#9;&#9;&#9;" transform="matrix(1, 0, 0, 1, 0, 0)" overflow="visible"/>
        </clipPath>
        <rect x="323" y="219.5" clip-path="url(#SVGID_168_)" fill="#BDBDBD" width="40.9" height="46.2"/>
      </g>
    </g>
    <g>
      <path fill="#333333" d="M308.8,246h-5.3v-7.8h5.3v1.6h-3.3v1.5h3.1v1.5h-3.1v1.6h3.3V246z"/>
      <path fill="#333333" d="M314.1,242.1l-2.4-3.8h2.3l1.4,2.6h0.1l1.4-2.6h2.2l-2.5,3.9l2.5,3.9h-2.2l-1.5-2.5h-0.1l-1.5,2.5h-2.1 L314.1,242.1z"/>
      <path fill="#333333" d="M322.1,246v-7.8h2v7.8H322.1z"/>
      <path fill="#333333" d="M329.4,246v-6.2h-2.2v-1.6h6.4v1.6h-2.2v6.2H329.4z"/>
    </g>
    <g>
      <g>
        <defs>
          <polygon id="SVGID_169_" points="35.9,1030 51.3,1030 35.9,1048.1 51.3,1066.2 35.9,1066.2 20.5,1048.1 35.9,1030 &#9;&#9;&#9;&#9;"/>
        </defs>
        <polygon points="35.9,1030 51.3,1030 35.9,1048.1 51.3,1066.2 35.9,1066.2 20.5,1048.1 35.9,1030 &#9;&#9;&#9;&#9;" transform="matrix(1, 0, 0, 1, 0, 0)" overflow="visible" fill-rule="evenodd" clip-rule="evenodd" fill="#BDBDBD"/>
        <clipPath id="SVGID_170_">
          <polygon points="35.9,1030 51.3,1030 35.9,1048.1 51.3,1066.2 35.9,1066.2 20.5,1048.1 35.9,1030 &#9;&#9;&#9;&#9;" transform="matrix(1, 0, 0, 1, 0, 0)" overflow="visible"/>
        </clipPath>
        <rect x="15.5" y="1025" clip-path="url(#SVGID_170_)" fill="#BDBDBD" width="40.8" height="46.2"/>
      </g>
      <g>
        <defs>
          <polygon id="SVGID_171_" points="58.4,1030 73.8,1030 58.4,1048.1 73.8,1066.2 58.4,1066.2 42.9,1048.1 58.4,1030 &#9;&#9;&#9;&#9;"/>
        </defs>
        <polygon points="58.4,1030 73.8,1030 58.4,1048.1 73.8,1066.2 58.4,1066.2 42.9,1048.1 58.4,1030 &#9;&#9;&#9;&#9;" transform="matrix(1, 0, 0, 1, 0, 0)" overflow="visible" fill-rule="evenodd" clip-rule="evenodd" fill="#BDBDBD"/>
        <clipPath id="SVGID_172_">
          <polygon points="58.4,1030 73.8,1030 58.4,1048.1 73.8,1066.2 58.4,1066.2 42.9,1048.1 58.4,1030 &#9;&#9;&#9;&#9;" transform="matrix(1, 0, 0, 1, 0, 0)" overflow="visible"/>
        </clipPath>
        <rect x="37.9" y="1025" clip-path="url(#SVGID_172_)" fill="#BDBDBD" width="40.8" height="46.2"/>
      </g>
    </g>
    <g>
      <path fill="#333333" d="M75.6,1051.5h-5.3v-7.8h5.3v1.6h-3.3v1.5h3.1v1.5h-3.1v1.6h3.3V1051.5z"/>
      <path fill="#333333" d="M80.9,1047.6l-2.4-3.8h2.3l1.4,2.6h0.1l1.4-2.6h2.2l-2.5,3.9l2.5,3.9h-2.2l-1.5-2.5h-0.1l-1.5,2.5h-2.1 L80.9,1047.6z"/>
      <path fill="#333333" d="M88.9,1051.5v-7.8h2v7.8H88.9z"/>
      <path fill="#333333" d="M96.2,1051.5v-6.2H94v-1.6h6.4v1.6h-2.2v6.2H96.2z"/>
    </g>
    <g>
      <g>
        <defs>
          <polygon id="SVGID_173_" points="385.9,1030 370.5,1030 385.9,1048.1 370.5,1066.2 385.9,1066.2 401.3,1048.1 385.9,1030 &#9;&#9;&#9;&#9;&#10;&#9;&#9;&#9;&#9;&#9;"/>
        </defs>
        <polygon points="385.9,1030 370.5,1030 385.9,1048.1 370.5,1066.2 385.9,1066.2 401.3,1048.1 385.9,1030 &#9;&#9;&#9;&#9;&#10;&#9;&#9;&#9;&#9;&#9;" transform="matrix(1, 0, 0, 1, 0, 0)" overflow="visible" fill-rule="evenodd" clip-rule="evenodd" fill="#BDBDBD"/>
        <clipPath id="SVGID_174_">
          <polygon points="385.9,1030 370.5,1030 385.9,1048.1 370.5,1066.2 385.9,1066.2 401.3,1048.1 385.9,1030 &#9;&#9;&#9;&#9;&#10;&#9;&#9;&#9;&#9;&#9;" transform="matrix(1, 0, 0, 1, 0, 0)" overflow="visible"/>
        </clipPath>
        <rect x="365.5" y="1025" clip-path="url(#SVGID_174_)" fill="#BDBDBD" width="40.9" height="46.2"/>
      </g>
      <g>
        <defs>
          <polygon id="SVGID_175_" points="363.5,1030 348,1030 363.5,1048.1 348,1066.2 363.5,1066.2 378.9,1048.1 363.5,1030 &#9;&#9;&#9;&#9;"/>
        </defs>
        <polygon points="363.5,1030 348,1030 363.5,1048.1 348,1066.2 363.5,1066.2 378.9,1048.1 363.5,1030 &#9;&#9;&#9;&#9;" transform="matrix(1, 0, 0, 1, 0, 0)" overflow="visible" fill-rule="evenodd" clip-rule="evenodd" fill="#BDBDBD"/>
        <clipPath id="SVGID_176_">
          <polygon points="363.5,1030 348,1030 363.5,1048.1 348,1066.2 363.5,1066.2 378.9,1048.1 363.5,1030 &#9;&#9;&#9;&#9;" transform="matrix(1, 0, 0, 1, 0, 0)" overflow="visible"/>
        </clipPath>
        <rect x="343" y="1025" clip-path="url(#SVGID_176_)" fill="#BDBDBD" width="40.9" height="46.2"/>
      </g>
    </g>
    <g>
      <path fill="#333333" d="M328.8,1051.5h-5.3v-7.8h5.3v1.6h-3.3v1.5h3.1v1.5h-3.1v1.6h3.3V1051.5z"/>
      <path fill="#333333" d="M334.1,1047.6l-2.4-3.8h2.3l1.4,2.6h0.1l1.4-2.6h2.2l-2.5,3.9l2.5,3.9h-2.2l-1.5-2.5h-0.1l-1.5,2.5h-2.1 L334.1,1047.6z"/>
      <path fill="#333333" d="M342.1,1051.5v-7.8h2v7.8H342.1z"/>
      <path fill="#333333" d="M349.4,1051.5v-6.2h-2.2v-1.6h6.4v1.6h-2.2v6.2H349.4z"/>
    </g>
    <g>
      <g>
        <defs>
          <polygon id="SVGID_177_" points="35.9,1160 51.3,1160 35.9,1178.1 51.3,1196.2 35.9,1196.2 20.5,1178.1 35.9,1160 &#9;&#9;&#9;&#9;"/>
        </defs>
        <polygon points="35.9,1160 51.3,1160 35.9,1178.1 51.3,1196.2 35.9,1196.2 20.5,1178.1 35.9,1160 &#9;&#9;&#9;&#9;" transform="matrix(1, 0, 0, 1, 0, 0)" overflow="visible" fill-rule="evenodd" clip-rule="evenodd" fill="#BDBDBD"/>
        <clipPath id="SVGID_178_">
          <polygon points="35.9,1160 51.3,1160 35.9,1178.1 51.3,1196.2 35.9,1196.2 20.5,1178.1 35.9,1160 &#9;&#9;&#9;&#9;" transform="matrix(1, 0, 0, 1, 0, 0)" overflow="visible"/>
        </clipPath>
        <rect x="15.5" y="1155" clip-path="url(#SVGID_178_)" fill="#BDBDBD" width="40.8" height="46.2"/>
      </g>
      <g>
        <defs>
          <polygon id="SVGID_179_" points="58.4,1160 73.8,1160 58.4,1178.1 73.8,1196.2 58.4,1196.2 42.9,1178.1 58.4,1160 &#9;&#9;&#9;&#9;"/>
        </defs>
        <polygon points="58.4,1160 73.8,1160 58.4,1178.1 73.8,1196.2 58.4,1196.2 42.9,1178.1 58.4,1160 &#9;&#9;&#9;&#9;" transform="matrix(1, 0, 0, 1, 0, 0)" overflow="visible" fill-rule="evenodd" clip-rule="evenodd" fill="#BDBDBD"/>
        <clipPath id="SVGID_180_">
          <polygon points="58.4,1160 73.8,1160 58.4,1178.1 73.8,1196.2 58.4,1196.2 42.9,1178.1 58.4,1160 &#9;&#9;&#9;&#9;" transform="matrix(1, 0, 0, 1, 0, 0)" overflow="visible"/>
        </clipPath>
        <rect x="37.9" y="1155" clip-path="url(#SVGID_180_)" fill="#BDBDBD" width="40.8" height="46.2"/>
      </g>
    </g>
    <g>
      <path fill="#333333" d="M75.6,1181.5h-5.3v-7.8h5.3v1.6h-3.3v1.5h3.1v1.5h-3.1v1.6h3.3V1181.5z"/>
      <path fill="#333333" d="M80.9,1177.6l-2.4-3.8h2.3l1.4,2.6h0.1l1.4-2.6h2.2l-2.5,3.9l2.5,3.9h-2.2l-1.5-2.5h-0.1l-1.5,2.5h-2.1 L80.9,1177.6z"/>
      <path fill="#333333" d="M88.9,1181.5v-7.8h2v7.8H88.9z"/>
      <path fill="#333333" d="M96.2,1181.5v-6.2H94v-1.6h6.4v1.6h-2.2v6.2H96.2z"/>
    </g>
    <g>
      <g>
        <defs>
          <polygon id="SVGID_181_" points="385.9,1160 370.5,1160 385.9,1178.1 370.5,1196.2 385.9,1196.2 401.3,1178.1 385.9,1160 &#9;&#9;&#9;&#9;&#10;&#9;&#9;&#9;&#9;&#9;"/>
        </defs>
        <polygon points="385.9,1160 370.5,1160 385.9,1178.1 370.5,1196.2 385.9,1196.2 401.3,1178.1 385.9,1160 &#9;&#9;&#9;&#9;&#10;&#9;&#9;&#9;&#9;&#9;" transform="matrix(1, 0, 0, 1, 0, 0)" overflow="visible" fill-rule="evenodd" clip-rule="evenodd" fill="#BDBDBD"/>
        <clipPath id="SVGID_182_">
          <polygon points="385.9,1160 370.5,1160 385.9,1178.1 370.5,1196.2 385.9,1196.2 401.3,1178.1 385.9,1160 &#9;&#9;&#9;&#9;&#10;&#9;&#9;&#9;&#9;&#9;" transform="matrix(1, 0, 0, 1, 0, 0)" overflow="visible"/>
        </clipPath>
        <rect x="365.5" y="1155" clip-path="url(#SVGID_182_)" fill="#BDBDBD" width="40.9" height="46.2"/>
      </g>
      <g>
        <defs>
          <polygon id="SVGID_183_" points="363.5,1160 348,1160 363.5,1178.1 348,1196.2 363.5,1196.2 378.9,1178.1 363.5,1160 &#9;&#9;&#9;&#9;"/>
        </defs>
        <polygon points="363.5,1160 348,1160 363.5,1178.1 348,1196.2 363.5,1196.2 378.9,1178.1 363.5,1160 &#9;&#9;&#9;&#9;" transform="matrix(1, 0, 0, 1, 0, 0)" overflow="visible" fill-rule="evenodd" clip-rule="evenodd" fill="#BDBDBD"/>
        <clipPath id="SVGID_184_">
          <polygon points="363.5,1160 348,1160 363.5,1178.1 348,1196.2 363.5,1196.2 378.9,1178.1 363.5,1160 &#9;&#9;&#9;&#9;" transform="matrix(1, 0, 0, 1, 0, 0)" overflow="visible"/>
        </clipPath>
        <rect x="343" y="1155" clip-path="url(#SVGID_184_)" fill="#BDBDBD" width="40.9" height="46.2"/>
      </g>
    </g>
    <g>
      <path fill="#333333" d="M328.8,1181.5h-5.3v-7.8h5.3v1.6h-3.3v1.5h3.1v1.5h-3.1v1.6h3.3V1181.5z"/>
      <path fill="#333333" d="M334.1,1177.6l-2.4-3.8h2.3l1.4,2.6h0.1l1.4-2.6h2.2l-2.5,3.9l2.5,3.9h-2.2l-1.5-2.5h-0.1l-1.5,2.5h-2.1 L334.1,1177.6z"/>
      <path fill="#333333" d="M342.1,1181.5v-7.8h2v7.8H342.1z"/>
      <path fill="#333333" d="M349.4,1181.5v-6.2h-2.2v-1.6h6.4v1.6h-2.2v6.2H349.4z"/>
    </g>
  </g>
  <g id="numbers">
    <g>
      <g>
        <path fill="#333333" d="M24.9,723.6c-0.4-0.8-0.6-1.8-0.6-3c0-1.7,0.3-3,1-3.9c0.7-0.9,1.6-1.4,2.9-1.4c0.9,0,1.6,0.2,2.2,0.7 c0.6,0.5,1,1.1,1.1,1.9H30c-0.1-0.4-0.3-0.7-0.7-1s-0.7-0.3-1.2-0.3c-0.8,0-1.3,0.3-1.8,1c-0.4,0.7-0.6,1.6-0.7,2.8h0.1 c0.5-1,1.4-1.5,2.6-1.5c0.9,0,1.7,0.3,2.3,0.9s0.9,1.4,0.9,2.4c0,1-0.3,1.8-1,2.5c-0.7,0.6-1.5,1-2.6,1 C26.7,725.7,25.6,725,24.9,723.6z M29.6,723.7c0.4-0.4,0.6-0.9,0.6-1.5c0-0.6-0.2-1.1-0.6-1.5c-0.4-0.4-0.9-0.6-1.5-0.6 c-0.6,0-1.1,0.2-1.5,0.6c-0.4,0.4-0.6,0.9-0.6,1.4c0,0.6,0.2,1.1,0.6,1.5c0.4,0.4,0.9,0.6,1.5,0.6S29.2,724.1,29.6,723.7z"/>
        <path fill="#333333" d="M29.8,782v-0.1h-5v-1.4h6.5v1.4l-4.3,8.5h-1.6L29.8,782z"/>
        <path fill="#333333" d="M25.3,854.9c-0.7-0.5-1-1.2-1-2.1c0-0.6,0.2-1.2,0.6-1.6c0.4-0.5,0.9-0.8,1.5-0.9v-0.1 c-0.5-0.1-0.9-0.4-1.2-0.8c-0.3-0.4-0.5-0.9-0.5-1.4c0-0.8,0.3-1.4,0.9-1.9s1.4-0.7,2.4-0.7s1.8,0.2,2.4,0.7s0.9,1.1,0.9,1.9 c0,0.5-0.2,1-0.5,1.4s-0.7,0.7-1.2,0.8v0.1c0.6,0.1,1.1,0.4,1.5,0.9c0.4,0.5,0.6,1,0.6,1.6c0,0.9-0.3,1.5-1,2.1 c-0.7,0.5-1.6,0.8-2.7,0.8S26,855.4,25.3,854.9z M29.6,853.9c0.4-0.3,0.6-0.7,0.6-1.3s-0.2-0.9-0.6-1.3s-0.9-0.5-1.5-0.5 s-1.1,0.2-1.5,0.5s-0.6,0.7-0.6,1.3s0.2,0.9,0.6,1.3c0.4,0.3,0.9,0.5,1.5,0.5S29.2,854.2,29.6,853.9z M29.3,849.2 c0.3-0.3,0.5-0.7,0.5-1.1c0-0.5-0.2-0.8-0.5-1.1s-0.8-0.4-1.3-0.4s-1,0.1-1.3,0.4c-0.3,0.3-0.5,0.7-0.5,1.1 c0,0.5,0.2,0.8,0.5,1.1c0.3,0.3,0.8,0.4,1.3,0.4S29,849.5,29.3,849.2z"/>
        <path fill="#333333" d="M25.6,919.9c-0.6-0.5-1-1.1-1.1-1.9H26c0.1,0.4,0.3,0.7,0.7,1s0.7,0.3,1.2,0.3c0.8,0,1.3-0.3,1.8-1 c0.4-0.7,0.6-1.6,0.7-2.8h-0.1c-0.5,1-1.4,1.5-2.6,1.5c-0.9,0-1.7-0.3-2.3-0.9c-0.6-0.6-0.9-1.4-0.9-2.4c0-1,0.3-1.8,1-2.5 c0.7-0.6,1.5-1,2.6-1c1.5,0,2.6,0.7,3.2,2c0.4,0.8,0.6,1.8,0.6,3c0,1.7-0.3,3-1,3.9c-0.7,0.9-1.6,1.4-2.9,1.4 C26.9,920.7,26.2,920.4,25.6,919.9z M29.4,915.2c0.4-0.4,0.6-0.9,0.6-1.4c0-0.6-0.2-1.1-0.6-1.5s-0.9-0.6-1.5-0.6 c-0.6,0-1.1,0.2-1.5,0.6s-0.6,0.9-0.6,1.5c0,0.6,0.2,1.1,0.6,1.5s0.9,0.6,1.5,0.6C28.5,915.8,29,915.6,29.4,915.2z"/>
        <path fill="#333333" d="M23.6,977.2h-0.1L21,979v-1.6l2.6-1.8h1.5v9.9h-1.5V977.2z"/>
        <path fill="#333333" d="M28.6,984.3c-0.6-0.9-1-2.2-1-3.8c0-1.6,0.3-2.9,1-3.8s1.5-1.4,2.7-1.4c1.1,0,2,0.5,2.7,1.4 c0.6,0.9,1,2.2,1,3.8c0,1.6-0.3,2.9-1,3.8c-0.6,0.9-1.5,1.4-2.7,1.4C30.2,985.7,29.3,985.2,28.6,984.3z M32.9,983.3 c0.4-0.7,0.5-1.6,0.5-2.9c0-1.2-0.2-2.2-0.5-2.8c-0.4-0.7-0.9-1-1.5-1s-1.2,0.3-1.6,1c-0.4,0.7-0.6,1.6-0.6,2.8 c0,1.2,0.2,2.2,0.6,2.9c0.4,0.7,0.9,1,1.6,1S32.5,984,32.9,983.3z"/>
      </g>
    </g>
    <g>
      <g>
        <path fill="#333333" d="M28.1,353H28l-2.5,1.8v-1.6l2.6-1.8h1.5v9.9h-1.5V353z"/>
        <path fill="#333333" d="M24.7,419.2c0-0.9,0.3-1.6,0.9-2.2c0.6-0.6,1.4-0.9,2.4-0.9c0.9,0,1.7,0.3,2.3,0.8s0.9,1.2,0.9,2 c0,0.5-0.2,1-0.5,1.6c-0.3,0.5-0.9,1.2-1.7,2l-2.2,2.2v0.1h4.5v1.4h-6.6v-1.1l3.3-3.5c0.7-0.7,1.1-1.2,1.3-1.6 c0.2-0.3,0.3-0.7,0.3-1.1c0-0.5-0.2-0.8-0.5-1.1s-0.8-0.5-1.3-0.5c-0.5,0-1,0.2-1.3,0.5c-0.3,0.3-0.5,0.7-0.5,1.3v0L24.7,419.2 L24.7,419.2z"/>
        <path fill="#333333" d="M26.7,485.5h1.2c0.5,0,1-0.1,1.3-0.4s0.5-0.7,0.5-1.1c0-0.5-0.2-0.8-0.5-1.1c-0.3-0.3-0.8-0.4-1.3-0.4 s-1,0.1-1.3,0.4c-0.3,0.3-0.5,0.7-0.6,1.1h-1.5c0.1-0.9,0.4-1.6,1-2.1s1.4-0.8,2.4-0.8c0.9,0,1.7,0.3,2.3,0.8 c0.6,0.5,0.9,1.1,0.9,1.9c0,0.6-0.2,1.1-0.5,1.5c-0.3,0.4-0.7,0.7-1.3,0.8v0.1c0.7,0.1,1.2,0.3,1.6,0.8c0.4,0.4,0.6,1,0.6,1.6 c0,0.8-0.3,1.5-1,2.1c-0.7,0.6-1.5,0.8-2.6,0.8c-1,0-1.9-0.3-2.5-0.8c-0.7-0.5-1-1.2-1-2.1h1.5c0.1,0.5,0.3,0.9,0.6,1.1 c0.4,0.3,0.9,0.4,1.5,0.4c0.6,0,1.1-0.2,1.5-0.5s0.6-0.7,0.6-1.2c0-0.5-0.2-0.9-0.6-1.2s-0.9-0.4-1.5-0.4h-1.2V485.5z"/>
        <path fill="#333333" d="M29,554.3h-4.8v-1.4c0.8-1.4,2.1-3.6,4.1-6.5h2.2v6.6h1.4v1.4h-1.4v1.9H29V554.3z M25.7,553H29v-5.3h-0.1 C27.8,549.4,26.7,551.1,25.7,553L25.7,553z"/>
        <path fill="#333333" d="M25.6,620.6c-0.6-0.5-1-1.3-1-2.1h1.5c0.1,0.5,0.3,0.9,0.6,1.2s0.8,0.4,1.4,0.4c0.6,0,1.1-0.2,1.5-0.6 s0.6-0.9,0.6-1.5s-0.2-1.1-0.6-1.5c-0.4-0.4-0.9-0.6-1.5-0.6c-0.9,0-1.5,0.3-1.9,1h-1.4l0.5-5.6h5.8v1.4h-4.6l-0.3,2.9h0.1 c0.5-0.6,1.2-0.9,2.1-0.9c0.9,0,1.7,0.3,2.3,0.9c0.6,0.6,0.9,1.4,0.9,2.4c0,1-0.3,1.8-1,2.5c-0.7,0.6-1.5,1-2.6,1 C27.1,621.4,26.3,621.2,25.6,620.6z"/>
      </g>
    </g>
    <g>
      <g>
        <path fill="#333333" d="M23.8,1239.3h-0.1l-2.5,1.8v-1.6l2.6-1.8h1.5v9.9h-1.5V1239.3z"/>
        <path fill="#333333" d="M28,1240.5c0-0.9,0.3-1.6,0.9-2.2c0.6-0.6,1.4-0.9,2.4-0.9c0.9,0,1.7,0.3,2.3,0.8s0.9,1.2,0.9,2 c0,0.5-0.2,1-0.5,1.6c-0.3,0.5-0.9,1.2-1.7,2l-2.2,2.2v0.1h4.5v1.4H28v-1.1l3.3-3.5c0.7-0.7,1.1-1.2,1.3-1.6 c0.2-0.3,0.3-0.7,0.3-1.1c0-0.5-0.2-0.8-0.5-1.1s-0.8-0.5-1.3-0.5c-0.5,0-1,0.2-1.3,0.5c-0.3,0.3-0.5,0.8-0.5,1.3v0L28,1240.5 L28,1240.5z"/>
        <path fill="#333333" d="M23.5,1304.3h-0.1L21,1306v-1.6l2.6-1.8h1.5v9.9h-1.5V1304.3z"/>
        <path fill="#333333" d="M32.3,1310.6h-4.8v-1.4c0.8-1.4,2.1-3.6,4.1-6.5h2.2v6.6h1.4v1.4h-1.4v1.9h-1.5V1310.6z M29,1309.2h3.4 v-5.3h-0.1C31.1,1305.6,30,1307.4,29,1309.2L29,1309.2z"/>
        <path fill="#333333" d="M23.7,1369.3h-0.1l-2.5,1.8v-1.6l2.6-1.8h1.5v9.9h-1.5V1369.3z"/>
        <path fill="#333333" d="M28.9,1376.9c-0.6-0.5-1-1.3-1-2.1h1.5c0.1,0.5,0.3,0.9,0.6,1.2c0.4,0.3,0.8,0.4,1.4,0.4 c0.6,0,1.1-0.2,1.5-0.6c0.4-0.4,0.6-0.9,0.6-1.5s-0.2-1.1-0.6-1.5c-0.4-0.4-0.9-0.6-1.5-0.6c-0.9,0-1.5,0.3-1.9,1h-1.4l0.5-5.6 h5.8v1.4h-4.6l-0.3,2.9h0.1c0.5-0.6,1.2-0.9,2.1-0.9c0.9,0,1.7,0.3,2.3,0.9c0.6,0.6,0.9,1.4,0.9,2.4c0,1-0.3,1.8-1,2.5 c-0.7,0.6-1.5,1-2.6,1C30.4,1377.7,29.6,1377.5,28.9,1376.9z"/>
        <path fill="#333333" d="M23.6,1434.3h-0.1L21,1436v-1.6l2.6-1.8h1.5v9.9h-1.5V1434.3z"/>
        <path fill="#333333" d="M28.2,1440.7c-0.4-0.8-0.6-1.8-0.6-3c0-1.7,0.3-3,1-3.9c0.7-0.9,1.6-1.4,2.9-1.4c0.9,0,1.6,0.2,2.2,0.7 c0.6,0.5,1,1.1,1.1,1.9h-1.5c-0.1-0.4-0.3-0.7-0.7-1s-0.7-0.3-1.2-0.3c-0.8,0-1.3,0.3-1.8,1c-0.4,0.7-0.6,1.6-0.7,2.8h0.1 c0.5-1,1.4-1.5,2.6-1.5c0.9,0,1.7,0.3,2.3,0.9c0.6,0.6,0.9,1.4,0.9,2.4c0,1-0.3,1.8-1,2.5c-0.7,0.6-1.5,1-2.6,1 C29.9,1442.7,28.9,1442,28.2,1440.7z M32.9,1440.8c0.4-0.4,0.6-0.9,0.6-1.5c0-0.6-0.2-1.1-0.6-1.5c-0.4-0.4-0.9-0.6-1.5-0.6 c-0.6,0-1.1,0.2-1.5,0.6c-0.4,0.4-0.6,0.9-0.6,1.4c0,0.6,0.2,1.1,0.6,1.5c0.4,0.4,0.9,0.6,1.5,0.6S32.5,1441.2,32.9,1440.8z"/>
        <path fill="#333333" d="M24.1,1499.3H24l-2.5,1.8v-1.6l2.6-1.8h1.5v9.9h-1.5V1499.3z"/>
        <path fill="#333333" d="M33,1499.1v-0.1h-5v-1.4h6.5v1.4l-4.3,8.5h-1.6L33,1499.1z"/>
        <path fill="#333333" d="M20.3,1565.5c0-0.9,0.3-1.6,0.9-2.2c0.6-0.6,1.4-0.9,2.4-0.9c0.9,0,1.7,0.3,2.3,0.8s0.9,1.2,0.9,2 c0,0.5-0.2,1-0.5,1.6c-0.3,0.5-0.9,1.2-1.7,2l-2.2,2.2v0.1H27v1.4h-6.6v-1.1l3.3-3.5c0.7-0.7,1.1-1.2,1.3-1.6 c0.2-0.3,0.3-0.7,0.3-1.1c0-0.5-0.2-0.8-0.5-1.1s-0.8-0.5-1.3-0.5c-0.5,0-1,0.2-1.3,0.5c-0.3,0.3-0.5,0.8-0.5,1.3v0L20.3,1565.5 L20.3,1565.5z"/>
        <path fill="#333333" d="M29.9,1571.9c-0.6-0.5-1-1.3-1-2.1h1.5c0.1,0.5,0.3,0.9,0.6,1.2c0.4,0.3,0.8,0.4,1.4,0.4 c0.6,0,1.1-0.2,1.5-0.6c0.4-0.4,0.6-0.9,0.6-1.5s-0.2-1.1-0.6-1.5c-0.4-0.4-0.9-0.6-1.5-0.6c-0.9,0-1.5,0.3-1.9,1H29l0.5-5.6h5.8 v1.4h-4.6l-0.3,2.9h0.1c0.5-0.6,1.2-0.9,2.1-0.9c0.9,0,1.7,0.3,2.3,0.9c0.6,0.6,0.9,1.4,0.9,2.4c0,1-0.3,1.8-1,2.5 c-0.7,0.6-1.5,1-2.6,1C31.3,1572.7,30.5,1572.5,29.9,1571.9z"/>
        <path fill="#333333" d="M20.2,1630.5c0-0.9,0.3-1.6,0.9-2.2c0.6-0.6,1.4-0.9,2.4-0.9c0.9,0,1.7,0.3,2.3,0.8s0.9,1.2,0.9,2 c0,0.5-0.2,1-0.5,1.6c-0.3,0.5-0.9,1.2-1.7,2l-2.2,2.2v0.1h4.5v1.4h-6.6v-1.1l3.3-3.5c0.7-0.7,1.1-1.2,1.3-1.6 c0.2-0.3,0.3-0.7,0.3-1.1c0-0.5-0.2-0.8-0.5-1.1s-0.8-0.5-1.3-0.5c-0.5,0-1,0.2-1.3,0.5c-0.3,0.3-0.5,0.8-0.5,1.3v0L20.2,1630.5 L20.2,1630.5z"/>
        <path fill="#333333" d="M29.1,1635.7c-0.4-0.8-0.6-1.8-0.6-3c0-1.7,0.3-3,1-3.9c0.7-0.9,1.6-1.4,2.9-1.4c0.9,0,1.6,0.2,2.2,0.7 c0.6,0.5,1,1.1,1.1,1.9h-1.5c-0.1-0.4-0.3-0.7-0.7-1s-0.7-0.3-1.2-0.3c-0.8,0-1.3,0.3-1.8,1c-0.4,0.7-0.6,1.6-0.7,2.8h0.1 c0.5-1,1.4-1.5,2.6-1.5c0.9,0,1.7,0.3,2.3,0.9c0.6,0.6,0.9,1.4,0.9,2.4c0,1-0.3,1.8-1,2.5c-0.7,0.6-1.5,1-2.6,1 C30.9,1637.7,29.8,1637,29.1,1635.7z M33.8,1635.8c0.4-0.4,0.6-0.9,0.6-1.5c0-0.6-0.2-1.1-0.6-1.5c-0.4-0.4-0.9-0.6-1.5-0.6 c-0.6,0-1.1,0.2-1.5,0.6c-0.4,0.4-0.6,0.9-0.6,1.4c0,0.6,0.2,1.1,0.6,1.5c0.4,0.4,0.9,0.6,1.5,0.6S33.5,1636.2,33.8,1635.8z"/>
        <path fill="#333333" d="M20.7,1695.5c0-0.9,0.3-1.6,0.9-2.2c0.6-0.6,1.4-0.9,2.4-0.9c0.9,0,1.7,0.3,2.3,0.8s0.9,1.2,0.9,2 c0,0.5-0.2,1-0.5,1.6c-0.3,0.5-0.9,1.2-1.7,2l-2.2,2.2v0.1h4.5v1.4h-6.6v-1.1l3.3-3.5c0.7-0.7,1.1-1.2,1.3-1.6 c0.2-0.3,0.3-0.7,0.3-1.1c0-0.5-0.2-0.8-0.5-1.1s-0.8-0.5-1.3-0.5c-0.5,0-1,0.2-1.3,0.5c-0.3,0.3-0.5,0.8-0.5,1.3v0L20.7,1695.5 L20.7,1695.5z"/>
        <path fill="#333333" d="M34,1694.1v-0.1h-5v-1.4h6.5v1.4l-4.3,8.5h-1.6L34,1694.1z"/>
        <path fill="#333333" d="M20.2,1760.5c0-0.9,0.3-1.6,0.9-2.2c0.6-0.6,1.4-0.9,2.4-0.9c0.9,0,1.7,0.3,2.3,0.8s0.9,1.2,0.9,2 c0,0.5-0.2,1-0.5,1.6c-0.3,0.5-0.9,1.2-1.7,2l-2.2,2.2v0.1h4.5v1.4h-6.6v-1.1l3.3-3.5c0.7-0.7,1.1-1.2,1.3-1.6 c0.2-0.3,0.3-0.7,0.3-1.1c0-0.5-0.2-0.8-0.5-1.1s-0.8-0.5-1.3-0.5c-0.5,0-1,0.2-1.3,0.5c-0.3,0.3-0.5,0.8-0.5,1.3v0L20.2,1760.5 L20.2,1760.5z"/>
        <path fill="#333333" d="M29.6,1766.9c-0.7-0.5-1-1.2-1-2.1c0-0.6,0.2-1.2,0.6-1.6c0.4-0.5,0.9-0.8,1.5-0.9v-0.1 c-0.5-0.1-0.9-0.4-1.2-0.8c-0.3-0.4-0.5-0.9-0.5-1.4c0-0.8,0.3-1.4,0.9-1.9c0.6-0.5,1.4-0.7,2.4-0.7s1.8,0.2,2.4,0.7 c0.6,0.5,0.9,1.1,0.9,1.9c0,0.5-0.2,1-0.5,1.4c-0.3,0.4-0.7,0.7-1.2,0.8v0.1c0.6,0.1,1.1,0.4,1.5,0.9c0.4,0.5,0.6,1,0.6,1.6 c0,0.9-0.3,1.5-1,2.1c-0.7,0.5-1.6,0.8-2.7,0.8S30.3,1767.5,29.6,1766.9z M33.8,1766c0.4-0.3,0.6-0.7,0.6-1.3 c0-0.5-0.2-0.9-0.6-1.3c-0.4-0.3-0.9-0.5-1.5-0.5s-1.1,0.2-1.5,0.5c-0.4,0.3-0.6,0.7-0.6,1.3c0,0.5,0.2,0.9,0.6,1.3 c0.4,0.3,0.9,0.5,1.5,0.5S33.4,1766.3,33.8,1766z M33.6,1761.3c0.3-0.3,0.5-0.7,0.5-1.1c0-0.5-0.2-0.8-0.5-1.1s-0.8-0.4-1.3-0.4 s-1,0.1-1.3,0.4c-0.3,0.3-0.5,0.7-0.5,1.1c0,0.5,0.2,0.8,0.5,1.1c0.3,0.3,0.8,0.4,1.3,0.4S33.2,1761.6,33.6,1761.3z"/>
        <path fill="#333333" d="M20.2,1825.5c0-0.9,0.3-1.6,0.9-2.2c0.6-0.6,1.4-0.9,2.4-0.9c0.9,0,1.7,0.3,2.3,0.8s0.9,1.2,0.9,2 c0,0.5-0.2,1-0.5,1.6c-0.3,0.5-0.9,1.2-1.7,2l-2.2,2.2v0.1h4.5v1.4h-6.6v-1.1l3.3-3.5c0.7-0.7,1.1-1.2,1.3-1.6 c0.2-0.3,0.3-0.7,0.3-1.1c0-0.5-0.2-0.8-0.5-1.1s-0.8-0.5-1.3-0.5c-0.5,0-1,0.2-1.3,0.5c-0.3,0.3-0.5,0.8-0.5,1.3v0L20.2,1825.5 L20.2,1825.5z"/>
        <path fill="#333333" d="M29.8,1832c-0.6-0.5-1-1.1-1.1-1.9h1.5c0.1,0.4,0.3,0.7,0.7,1s0.7,0.3,1.2,0.3c0.8,0,1.3-0.3,1.8-1 c0.4-0.7,0.6-1.6,0.7-2.8h-0.1c-0.5,1-1.4,1.5-2.6,1.5c-0.9,0-1.7-0.3-2.3-0.9c-0.6-0.6-0.9-1.4-0.9-2.4c0-1,0.3-1.8,1-2.5 c0.7-0.6,1.5-1,2.6-1c1.5,0,2.6,0.7,3.2,2c0.4,0.8,0.6,1.8,0.6,3c0,1.7-0.3,3-1,3.9c-0.7,0.9-1.6,1.4-2.9,1.4 C31.2,1832.7,30.4,1832.5,29.8,1832z M33.6,1827.2c0.4-0.4,0.6-0.9,0.6-1.4c0-0.6-0.2-1.1-0.6-1.5s-0.9-0.6-1.5-0.6 c-0.6,0-1.1,0.2-1.5,0.6c-0.4,0.4-0.6,0.9-0.6,1.5c0,0.6,0.2,1.1,0.6,1.5s0.9,0.6,1.5,0.6C32.7,1827.8,33.2,1827.6,33.6,1827.2z"/>
        <path fill="#333333" d="M22.3,1891.8h1.2c0.5,0,1-0.1,1.3-0.4c0.3-0.3,0.5-0.7,0.5-1.1c0-0.5-0.2-0.8-0.5-1.1 c-0.3-0.3-0.8-0.4-1.3-0.4s-1,0.1-1.3,0.4c-0.3,0.3-0.5,0.7-0.6,1.1h-1.5c0.1-0.9,0.4-1.6,1-2.1c0.6-0.5,1.4-0.8,2.4-0.8 c0.9,0,1.7,0.3,2.3,0.8c0.6,0.5,0.9,1.1,0.9,1.9c0,0.6-0.2,1.1-0.5,1.5c-0.3,0.4-0.7,0.7-1.3,0.8v0.1c0.7,0.1,1.2,0.3,1.6,0.8 c0.4,0.4,0.6,1,0.6,1.6c0,0.8-0.3,1.5-1,2.1c-0.7,0.6-1.5,0.8-2.6,0.8c-1,0-1.9-0.3-2.5-0.8c-0.7-0.5-1-1.2-1-2.1h1.5 c0.1,0.5,0.3,0.9,0.6,1.1c0.4,0.3,0.9,0.4,1.5,0.4c0.6,0,1.1-0.2,1.5-0.5c0.4-0.3,0.6-0.7,0.6-1.2c0-0.5-0.2-0.9-0.6-1.2 c-0.4-0.3-0.9-0.4-1.5-0.4h-1.2V1891.8z"/>
        <path fill="#333333" d="M29.7,1896.4c-0.6-0.9-1-2.2-1-3.8c0-1.6,0.3-2.9,1-3.8c0.6-0.9,1.5-1.4,2.7-1.4c1.1,0,2,0.5,2.7,1.4 c0.6,0.9,1,2.2,1,3.8c0,1.6-0.3,2.9-1,3.8c-0.6,0.9-1.5,1.4-2.7,1.4C31.3,1897.7,30.4,1897.3,29.7,1896.4z M34,1895.4 c0.4-0.7,0.5-1.6,0.5-2.9c0-1.2-0.2-2.2-0.5-2.8c-0.4-0.7-0.9-1-1.5-1s-1.2,0.3-1.6,1c-0.4,0.7-0.6,1.6-0.6,2.8 c0,1.2,0.2,2.2,0.6,2.9c0.4,0.7,0.9,1,1.6,1S33.6,1896.1,34,1895.4z"/>
        <path fill="#333333" d="M23.5,1956.8h1.2c0.5,0,1-0.1,1.3-0.4c0.3-0.3,0.5-0.7,0.5-1.1c0-0.5-0.2-0.8-0.5-1.1 c-0.3-0.3-0.8-0.4-1.3-0.4s-1,0.1-1.3,0.4c-0.3,0.3-0.5,0.7-0.6,1.1h-1.5c0.1-0.9,0.4-1.6,1-2.1c0.6-0.5,1.4-0.8,2.4-0.8 c0.9,0,1.7,0.3,2.3,0.8c0.6,0.5,0.9,1.1,0.9,1.9c0,0.6-0.2,1.1-0.5,1.5c-0.3,0.4-0.7,0.7-1.3,0.8v0.1c0.7,0.1,1.2,0.3,1.6,0.8 c0.4,0.4,0.6,1,0.6,1.6c0,0.8-0.3,1.5-1,2.1c-0.7,0.6-1.5,0.8-2.6,0.8c-1,0-1.9-0.3-2.5-0.8c-0.7-0.5-1-1.2-1-2.1h1.5 c0.1,0.5,0.3,0.9,0.6,1.1c0.4,0.3,0.9,0.4,1.5,0.4c0.6,0,1.1-0.2,1.5-0.5c0.4-0.3,0.6-0.7,0.6-1.2c0-0.5-0.2-0.9-0.6-1.2 c-0.4-0.3-0.9-0.4-1.5-0.4h-1.2V1956.8z"/>
        <path fill="#333333" d="M32.5,1954.3h-0.1l-2.5,1.8v-1.6l2.6-1.8H34v9.9h-1.5V1954.3z"/>
        <path fill="#333333" d="M22.5,2021.8h1.2c0.5,0,1-0.1,1.3-0.4c0.3-0.3,0.5-0.7,0.5-1.1c0-0.5-0.2-0.8-0.5-1.1 c-0.3-0.3-0.8-0.4-1.3-0.4s-1,0.1-1.3,0.4c-0.3,0.3-0.5,0.7-0.6,1.1h-1.5c0.1-0.9,0.4-1.6,1-2.1c0.6-0.5,1.4-0.8,2.4-0.8 c0.9,0,1.7,0.3,2.3,0.8c0.6,0.5,0.9,1.1,0.9,1.9c0,0.6-0.2,1.1-0.5,1.5c-0.3,0.4-0.7,0.7-1.3,0.8v0.1c0.7,0.1,1.2,0.3,1.6,0.8 c0.4,0.4,0.6,1,0.6,1.6c0,0.8-0.3,1.5-1,2.1c-0.7,0.6-1.5,0.8-2.6,0.8c-1,0-1.9-0.3-2.5-0.8c-0.7-0.5-1-1.2-1-2.1h1.5 c0.1,0.5,0.3,0.9,0.6,1.1c0.4,0.3,0.9,0.4,1.5,0.4c0.6,0,1.1-0.2,1.5-0.5c0.4-0.3,0.6-0.7,0.6-1.2c0-0.5-0.2-0.9-0.6-1.2 c-0.4-0.3-0.9-0.4-1.5-0.4h-1.2V2021.8z"/>
        <path fill="#333333" d="M29.1,2020.5c0-0.9,0.3-1.6,0.9-2.2c0.6-0.6,1.4-0.9,2.4-0.9c0.9,0,1.7,0.3,2.3,0.8s0.9,1.2,0.9,2 c0,0.5-0.2,1-0.5,1.6c-0.3,0.5-0.9,1.2-1.7,2l-2.2,2.2v0.1h4.5v1.4h-6.6v-1.1l3.3-3.5c0.7-0.7,1.1-1.2,1.3-1.6 c0.2-0.3,0.3-0.7,0.3-1.1c0-0.5-0.2-0.8-0.5-1.1s-0.8-0.5-1.3-0.5c-0.5,0-1,0.2-1.3,0.5c-0.3,0.3-0.5,0.8-0.5,1.3v0L29.1,2020.5 L29.1,2020.5z"/>
        <path fill="#333333" d="M22.3,2086.8h1.2c0.5,0,1-0.1,1.3-0.4c0.3-0.3,0.5-0.7,0.5-1.1c0-0.5-0.2-0.8-0.5-1.1 c-0.3-0.3-0.8-0.4-1.3-0.4s-1,0.1-1.3,0.4c-0.3,0.3-0.5,0.7-0.6,1.1h-1.5c0.1-0.9,0.4-1.6,1-2.1c0.6-0.5,1.4-0.8,2.4-0.8 c0.9,0,1.7,0.3,2.3,0.8c0.6,0.5,0.9,1.1,0.9,1.9c0,0.6-0.2,1.1-0.5,1.5c-0.3,0.4-0.7,0.7-1.3,0.8v0.1c0.7,0.1,1.2,0.3,1.6,0.8 c0.4,0.4,0.6,1,0.6,1.6c0,0.8-0.3,1.5-1,2.1c-0.7,0.6-1.5,0.8-2.6,0.8c-1,0-1.9-0.3-2.5-0.8c-0.7-0.5-1-1.2-1-2.1h1.5 c0.1,0.5,0.3,0.9,0.6,1.1c0.4,0.3,0.9,0.4,1.5,0.4c0.6,0,1.1-0.2,1.5-0.5c0.4-0.3,0.6-0.7,0.6-1.2c0-0.5-0.2-0.9-0.6-1.2 c-0.4-0.3-0.9-0.4-1.5-0.4h-1.2V2086.8z"/>
        <path fill="#333333" d="M31.1,2086.8h1.2c0.5,0,1-0.1,1.3-0.4c0.3-0.3,0.5-0.7,0.5-1.1c0-0.5-0.2-0.8-0.5-1.1 c-0.3-0.3-0.8-0.4-1.3-0.4s-1,0.1-1.3,0.4c-0.3,0.3-0.5,0.7-0.6,1.1H29c0.1-0.9,0.4-1.6,1-2.1c0.6-0.5,1.4-0.8,2.4-0.8 c0.9,0,1.7,0.3,2.3,0.8c0.6,0.5,0.9,1.1,0.9,1.9c0,0.6-0.2,1.1-0.5,1.5c-0.3,0.4-0.7,0.7-1.3,0.8v0.1c0.7,0.1,1.2,0.3,1.6,0.8 c0.4,0.4,0.6,1,0.6,1.6c0,0.8-0.3,1.5-1,2.1c-0.7,0.6-1.5,0.8-2.6,0.8c-1,0-1.9-0.3-2.5-0.8c-0.7-0.5-1-1.2-1-2.1h1.5 c0.1,0.5,0.3,0.9,0.6,1.1c0.4,0.3,0.9,0.4,1.5,0.4c0.6,0,1.1-0.2,1.5-0.5c0.4-0.3,0.6-0.7,0.6-1.2c0-0.5-0.2-0.9-0.6-1.2 c-0.4-0.3-0.9-0.4-1.5-0.4h-1.2V2086.8z"/>
        <path fill="#333333" d="M22.2,2151.8h1.2c0.5,0,1-0.1,1.3-0.4c0.3-0.3,0.5-0.7,0.5-1.1c0-0.5-0.2-0.8-0.5-1.1 c-0.3-0.3-0.8-0.4-1.3-0.4s-1,0.1-1.3,0.4c-0.3,0.3-0.5,0.7-0.6,1.1h-1.5c0.1-0.9,0.4-1.6,1-2.1c0.6-0.5,1.4-0.8,2.4-0.8 c0.9,0,1.7,0.3,2.3,0.8c0.6,0.5,0.9,1.1,0.9,1.9c0,0.6-0.2,1.1-0.5,1.5c-0.3,0.4-0.7,0.7-1.3,0.8v0.1c0.7,0.1,1.2,0.3,1.6,0.8 c0.4,0.4,0.6,1,0.6,1.6c0,0.8-0.3,1.5-1,2.1c-0.7,0.6-1.5,0.8-2.6,0.8c-1,0-1.9-0.3-2.5-0.8c-0.7-0.5-1-1.2-1-2.1h1.5 c0.1,0.5,0.3,0.9,0.6,1.1c0.4,0.3,0.9,0.4,1.5,0.4c0.6,0,1.1-0.2,1.5-0.5c0.4-0.3,0.6-0.7,0.6-1.2c0-0.5-0.2-0.9-0.6-1.2 c-0.4-0.3-0.9-0.4-1.5-0.4h-1.2V2151.8z"/>
        <path fill="#333333" d="M33.4,2155.6h-4.8v-1.4c0.8-1.4,2.1-3.6,4.1-6.5h2.2v6.6h1.4v1.4h-1.4v1.9h-1.5V2155.6z M30.1,2154.2h3.4 v-5.3h-0.1C32.2,2150.6,31.1,2152.4,30.1,2154.2L30.1,2154.2z"/>
        <path fill="#333333" d="M22.4,2216.8h1.2c0.5,0,1-0.1,1.3-0.4c0.3-0.3,0.5-0.7,0.5-1.1c0-0.5-0.2-0.8-0.5-1.1 c-0.3-0.3-0.8-0.4-1.3-0.4s-1,0.1-1.3,0.4c-0.3,0.3-0.5,0.7-0.6,1.1h-1.5c0.1-0.9,0.4-1.6,1-2.1c0.6-0.5,1.4-0.8,2.4-0.8 c0.9,0,1.7,0.3,2.3,0.8c0.6,0.5,0.9,1.1,0.9,1.9c0,0.6-0.2,1.1-0.5,1.5c-0.3,0.4-0.7,0.7-1.3,0.8v0.1c0.7,0.1,1.2,0.3,1.6,0.8 c0.4,0.4,0.6,1,0.6,1.6c0,0.8-0.3,1.5-1,2.1c-0.7,0.6-1.5,0.8-2.6,0.8c-1,0-1.9-0.3-2.5-0.8c-0.7-0.5-1-1.2-1-2.1h1.5 c0.1,0.5,0.3,0.9,0.6,1.1c0.4,0.3,0.9,0.4,1.5,0.4c0.6,0,1.1-0.2,1.5-0.5c0.4-0.3,0.6-0.7,0.6-1.2c0-0.5-0.2-0.9-0.6-1.2 c-0.4-0.3-0.9-0.4-1.5-0.4h-1.2V2216.8z"/>
        <path fill="#333333" d="M30,2221.9c-0.6-0.5-1-1.3-1-2.1h1.5c0.1,0.5,0.3,0.9,0.6,1.2c0.4,0.3,0.8,0.4,1.4,0.4 c0.6,0,1.1-0.2,1.5-0.6c0.4-0.4,0.6-0.9,0.6-1.5s-0.2-1.1-0.6-1.5c-0.4-0.4-0.9-0.6-1.5-0.6c-0.9,0-1.5,0.3-1.9,1h-1.4l0.5-5.6 h5.8v1.4h-4.6l-0.3,2.9h0.1c0.5-0.6,1.2-0.9,2.1-0.9c0.9,0,1.7,0.3,2.3,0.9c0.6,0.6,0.9,1.4,0.9,2.4c0,1-0.3,1.8-1,2.5 c-0.7,0.6-1.5,1-2.6,1C31.5,2222.7,30.7,2222.5,30,2221.9z"/>
        <path fill="#333333" d="M22.3,2281.8h1.2c0.5,0,1-0.1,1.3-0.4c0.3-0.3,0.5-0.7,0.5-1.1c0-0.5-0.2-0.8-0.5-1.1 c-0.3-0.3-0.8-0.4-1.3-0.4s-1,0.1-1.3,0.4c-0.3,0.3-0.5,0.7-0.6,1.1h-1.5c0.1-0.9,0.4-1.6,1-2.1c0.6-0.5,1.4-0.8,2.4-0.8 c0.9,0,1.7,0.3,2.3,0.8c0.6,0.5,0.9,1.1,0.9,1.9c0,0.6-0.2,1.1-0.5,1.5c-0.3,0.4-0.7,0.7-1.3,0.8v0.1c0.7,0.1,1.2,0.3,1.6,0.8 c0.4,0.4,0.6,1,0.6,1.6c0,0.8-0.3,1.5-1,2.1c-0.7,0.6-1.5,0.8-2.6,0.8c-1,0-1.9-0.3-2.5-0.8c-0.7-0.5-1-1.2-1-2.1h1.5 c0.1,0.5,0.3,0.9,0.6,1.1c0.4,0.3,0.9,0.4,1.5,0.4c0.6,0,1.1-0.2,1.5-0.5c0.4-0.3,0.6-0.7,0.6-1.2c0-0.5-0.2-0.9-0.6-1.2 c-0.4-0.3-0.9-0.4-1.5-0.4h-1.2V2281.8z"/>
        <path fill="#333333" d="M29.3,2285.7c-0.4-0.8-0.6-1.8-0.6-3c0-1.7,0.3-3,1-3.9c0.7-0.9,1.6-1.4,2.9-1.4c0.9,0,1.6,0.2,2.2,0.7 c0.6,0.5,1,1.1,1.1,1.9h-1.5c-0.1-0.4-0.3-0.7-0.7-1s-0.7-0.3-1.2-0.3c-0.8,0-1.3,0.3-1.8,1c-0.4,0.7-0.6,1.6-0.7,2.8h0.1 c0.5-1,1.4-1.5,2.6-1.5c0.9,0,1.7,0.3,2.3,0.9c0.6,0.6,0.9,1.4,0.9,2.4c0,1-0.3,1.8-1,2.5c-0.7,0.6-1.5,1-2.6,1 C31.1,2287.7,30,2287,29.3,2285.7z M34,2285.8c0.4-0.4,0.6-0.9,0.6-1.5c0-0.6-0.2-1.1-0.6-1.5c-0.4-0.4-0.9-0.6-1.5-0.6 c-0.6,0-1.1,0.2-1.5,0.6c-0.4,0.4-0.6,0.9-0.6,1.4c0,0.6,0.2,1.1,0.6,1.5c0.4,0.4,0.9,0.6,1.5,0.6S33.6,2286.2,34,2285.8z"/>
        <path fill="#333333" d="M22.8,2346.8H24c0.5,0,1-0.1,1.3-0.4c0.3-0.3,0.5-0.7,0.5-1.1c0-0.5-0.2-0.8-0.5-1.1 c-0.3-0.3-0.8-0.4-1.3-0.4s-1,0.1-1.3,0.4c-0.3,0.3-0.5,0.7-0.6,1.1h-1.5c0.1-0.9,0.4-1.6,1-2.1c0.6-0.5,1.4-0.8,2.4-0.8 c0.9,0,1.7,0.3,2.3,0.8c0.6,0.5,0.9,1.1,0.9,1.9c0,0.6-0.2,1.1-0.5,1.5c-0.3,0.4-0.7,0.7-1.3,0.8v0.1c0.7,0.1,1.2,0.3,1.6,0.8 c0.4,0.4,0.6,1,0.6,1.6c0,0.8-0.3,1.5-1,2.1c-0.7,0.6-1.5,0.8-2.6,0.8c-1,0-1.9-0.3-2.5-0.8c-0.7-0.5-1-1.2-1-2.1h1.5 c0.1,0.5,0.3,0.9,0.6,1.1c0.4,0.3,0.9,0.4,1.5,0.4c0.6,0,1.1-0.2,1.5-0.5c0.4-0.3,0.6-0.7,0.6-1.2c0-0.5-0.2-0.9-0.6-1.2 c-0.4-0.3-0.9-0.4-1.5-0.4h-1.2V2346.8z"/>
        <path fill="#333333" d="M34.2,2344.1v-0.1h-5v-1.4h6.5v1.4l-4.3,8.5h-1.6L34.2,2344.1z"/>
        <path fill="#333333" d="M22.2,2411.8h1.2c0.5,0,1-0.1,1.3-0.4c0.3-0.3,0.5-0.7,0.5-1.1c0-0.5-0.2-0.8-0.5-1.1 c-0.3-0.3-0.8-0.4-1.3-0.4s-1,0.1-1.3,0.4c-0.3,0.3-0.5,0.7-0.6,1.1h-1.5c0.1-0.9,0.4-1.6,1-2.1c0.6-0.5,1.4-0.8,2.4-0.8 c0.9,0,1.7,0.3,2.3,0.8c0.6,0.5,0.9,1.1,0.9,1.9c0,0.6-0.2,1.1-0.5,1.5c-0.3,0.4-0.7,0.7-1.3,0.8v0.1c0.7,0.1,1.2,0.3,1.6,0.8 c0.4,0.4,0.6,1,0.6,1.6c0,0.8-0.3,1.5-1,2.1c-0.7,0.6-1.5,0.8-2.6,0.8c-1,0-1.9-0.3-2.5-0.8c-0.7-0.5-1-1.2-1-2.1h1.5 c0.1,0.5,0.3,0.9,0.6,1.1c0.4,0.3,0.9,0.4,1.5,0.4c0.6,0,1.1-0.2,1.5-0.5c0.4-0.3,0.6-0.7,0.6-1.2c0-0.5-0.2-0.9-0.6-1.2 c-0.4-0.3-0.9-0.4-1.5-0.4h-1.2V2411.8z"/>
        <path fill="#333333" d="M29.7,2416.9c-0.7-0.5-1-1.2-1-2.1c0-0.6,0.2-1.2,0.6-1.6c0.4-0.5,0.9-0.8,1.5-0.9v-0.1 c-0.5-0.1-0.9-0.4-1.2-0.8c-0.3-0.4-0.5-0.9-0.5-1.4c0-0.8,0.3-1.4,0.9-1.9c0.6-0.5,1.4-0.7,2.4-0.7s1.8,0.2,2.4,0.7 c0.6,0.5,0.9,1.1,0.9,1.9c0,0.5-0.2,1-0.5,1.4c-0.3,0.4-0.7,0.7-1.2,0.8v0.1c0.6,0.1,1.1,0.4,1.5,0.9c0.4,0.5,0.6,1,0.6,1.6 c0,0.9-0.3,1.5-1,2.1c-0.7,0.5-1.6,0.8-2.7,0.8S30.4,2417.5,29.7,2416.9z M34,2416c0.4-0.3,0.6-0.7,0.6-1.3 c0-0.5-0.2-0.9-0.6-1.3c-0.4-0.3-0.9-0.5-1.5-0.5s-1.1,0.2-1.5,0.5c-0.4,0.3-0.6,0.7-0.6,1.3c0,0.5,0.2,0.9,0.6,1.3 c0.4,0.3,0.9,0.5,1.5,0.5S33.6,2416.3,34,2416z M33.7,2411.3c0.3-0.3,0.5-0.7,0.5-1.1c0-0.5-0.2-0.8-0.5-1.1s-0.8-0.4-1.3-0.4 s-1,0.1-1.3,0.4c-0.3,0.3-0.5,0.7-0.5,1.1c0,0.5,0.2,0.8,0.5,1.1c0.3,0.3,0.8,0.4,1.3,0.4S33.4,2411.6,33.7,2411.3z"/>
      </g>
    </g>
    <g>
      <g>
        <path fill="#333333" d="M24.8,1109.3h-0.1l-2.5,1.8v-1.6l2.6-1.8h1.5v9.9h-1.5V1109.3z"/>
        <path fill="#333333" d="M31.4,1109.3h-0.1l-2.5,1.8v-1.6l2.6-1.8h1.5v9.9h-1.5V1109.3z"/>
      </g>
    </g>
  </g>
</svg>