<?xml version="1.0" standalone="no"?>
<!DOCTYPE svg PUBLIC "-//W3C//DTD SVG 20010904//EN"
 "http://www.w3.org/TR/2001/REC-SVG-20010904/DTD/svg10.dtd">
<svg version="1.0" xmlns="http://www.w3.org/2000/svg"
 width="1280.000000pt" height="640.000000pt" viewBox="0 0 1280.000000 640.000000"
 preserveAspectRatio="xMidYMid meet">
<metadata>
Created by potrace 1.15, written by Peter Selinger 2001-2017
</metadata>
<g transform="translate(0.000000,640.000000) scale(0.100000,-0.100000)"
fill="#000000" stroke="none">
<path d="M6599 5843 c0 -5 1 -141 3 -303 4 -400 0 -671 -14 -942 l-11 -227
-41 -5 c-23 -3 -160 -10 -306 -16 -146 -6 -357 -15 -470 -20 -218 -10 -805
-37 -1545 -70 -429 -19 -651 -29 -1100 -50 -110 -5 -322 -14 -472 -21 l-271
-12 -165 131 c-90 73 -170 138 -177 147 -6 8 -22 83 -34 167 l-21 152 -35 7
c-18 4 -84 10 -145 14 l-112 7 -6 -31 -7 -32 -532 427 c-293 235 -538 431
-544 436 -7 5 -111 -2 -249 -17 -130 -14 -240 -25 -245 -25 -5 0 191 -334 437
-742 245 -409 447 -748 450 -754 3 -7 -22 -14 -69 -18 -100 -10 -199 -31 -252
-54 -43 -19 -45 -22 -51 -74 -15 -118 29 -198 139 -254 42 -22 76 -41 75 -44
0 -3 -186 -122 -414 -265 -228 -143 -415 -263 -415 -267 0 -11 -2 -11 255 17
l230 25 434 171 433 171 92 -25 c89 -25 119 -33 391 -96 224 -52 806 -179 895
-195 118 -22 513 -49 1075 -76 956 -45 1469 -78 1595 -101 30 -5 95 -13 143
-17 l89 -7 -74 -96 c-40 -53 -122 -156 -181 -228 l-108 -131 -447 -337 c-817
-616 -1123 -846 -1569 -1182 l-443 -332 16 -24 c27 -42 100 -70 174 -68 85 2
152 26 324 119 304 164 1128 637 1971 1129 256 150 399 228 415 226 14 0 147
-23 295 -51 442 -81 597 -97 1010 -106 l260 -6 35 23 c93 63 148 317 105 484
-19 72 -84 161 -135 184 -27 12 -67 16 -185 15 -143 -1 -239 -13 -562 -68 -40
-7 -73 -10 -72 -7 0 3 152 106 337 228 l337 221 150 5 c196 8 431 55 856 172
92 26 678 48 2479 95 665 17 941 29 1027 44 285 51 788 191 969 271 71 31 149
105 170 161 52 136 -39 250 -306 382 -74 36 -196 107 -270 158 -275 187 -389
226 -775 269 -189 21 -564 45 -694 45 -94 0 -1065 -42 -2636 -115 -291 -13
-533 -21 -536 -17 -6 6 -477 1245 -524 1375 l-20 57 -212 0 c-117 0 -213 -3
-214 -7z"/>
</g>
</svg>
