<?xml version="1.0" encoding="utf-8"?>
<svg viewBox="0 2.838 93.365 94.924" xmlns="http://www.w3.org/2000/svg">
  <path d="M 87.112 35.262 C 84.564 35.262 82.499 37.327 82.499 39.876 L 82.499 71.41 C 82.215 71.508 81.929 71.589 81.653 71.723 C 81.572 71.76 77.239 73.833 70.247 75.769 C 68.021 74.208 65.193 73.512 62.314 74.069 C 51.735 76.121 41.469 76.147 30.903 74.134 C 28.053 73.597 25.257 74.28 23.046 75.814 C 16.077 73.881 11.76 71.8 11.632 71.738 C 11.373 71.61 11.106 71.533 10.84 71.441 L 10.84 39.874 C 10.84 37.327 8.775 35.26 6.226 35.26 C 3.678 35.26 1.613 37.326 1.613 39.874 L 1.613 77.552 C 1.613 77.774 1.647 77.983 1.677 78.196 C 1.773 80.643 3.133 82.968 5.481 84.135 C 5.879 84.331 11.26 86.963 19.848 89.299 C 21.286 91.933 23.845 93.925 27.022 94.532 C 33.52 95.767 40.043 96.395 46.416 96.395 C 52.937 96.395 59.616 95.74 66.267 94.451 C 69.41 93.844 71.942 91.876 73.376 89.278 C 81.951 86.954 87.346 84.347 87.745 84.151 C 89.932 83.078 91.285 81.005 91.55 78.755 C 91.654 78.37 91.729 77.971 91.729 77.553 L 91.729 39.874 C 91.728 37.327 89.661 35.262 87.112 35.262 Z M 17.402 37.568 L 17.401 66.66 C 18.319 67.015 19.435 67.431 20.772 67.875 C 24.349 66.063 28.531 65.447 32.528 66.203 C 42.156 68.04 51.217 68.017 60.887 66.14 C 64.922 65.36 69.094 65.975 72.681 67.781 C 73.911 67.37 74.955 66.988 75.832 66.649 L 75.849 37.566 C 75.849 32.368 79.699 28.091 84.692 27.34 L 84.692 13.275 C 84.692 10.727 82.765 9.525 80.079 8.66 C 80.079 8.66 65.452 4.43 46.914 4.43 C 28.371 4.43 13.175 8.66 13.175 8.66 C 10.556 9.474 8.561 10.725 8.561 13.275 L 8.561 27.341 C 13.552 28.092 17.402 32.37 17.402 37.568 Z"/>
</svg>