<?xml version="1.0" encoding="utf-8"?>
<svg viewBox="0 0 425 2831" style="enable-background:new 0 0 425 2831;" xmlns="http://www.w3.org/2000/svg">
  <defs>
    <style type="text/css">
	.st0{clip-path:url(#SVGID_3_);}
	.st1{clip-path:url(#SVGID_7_);}
	.st2{clip-path:url(#SVGID_12_);}
	.st3{clip-path:url(#SVGID_13_);}
	.st4{clip-path:url(#SVGID_14_);fill:#F3F3F3;}
	.st5{clip-path:url(#SVGID_17_);}
	.st6{clip-path:url(#SVGID_18_);fill:#FFFFFF;}
	.st7{fill:#E5E5E5;}
	.st8{fill:#424242;}
	.st9{fill-rule:evenodd;clip-rule:evenodd;fill:#FFFFFF;}
	.st10{fill:#F3F3F3;}
	.st11{fill:#333333;}
	.st12{opacity:0.36;}
	.st13{fill:#2DB4D0;}
	.st14{fill:#BDBDBD;}
	.st15{fill:#CFCFCF;}
	.st16{fill:none;stroke:#BDBDBD;stroke-width:2;stroke-miterlimit:10;}
	.st17{fill:#FFCC00;}
	.st18{fill:#E2A62A;}
	.st19{fill:none;stroke:#E2A62A;stroke-width:2;stroke-miterlimit:10;}
	.st20{fill:#E26154;}
	.st21{fill:#C14437;}
	.st22{fill:#FFFFFF;}
	.st23{clip-path:url(#SVGID_29_);}
	.st24{clip-path:url(#SVGID_30_);fill:#FFFFFF;}
	.st25{clip-path:url(#SVGID_33_);}
	.st26{clip-path:url(#SVGID_34_);fill:#FFFFFF;}
	.st27{clip-path:url(#SVGID_37_);}
	.st28{clip-path:url(#SVGID_38_);fill:#FFFFFF;}
	.st29{clip-path:url(#SVGID_41_);}
	.st30{clip-path:url(#SVGID_42_);fill:#FFFFFF;}
	.st31{clip-path:url(#SVGID_45_);}
	.st32{clip-path:url(#SVGID_46_);fill:#FFFFFF;}
	.st33{clip-path:url(#SVGID_49_);}
	.st34{clip-path:url(#SVGID_50_);fill:#FFFFFF;}
	.st35{clip-path:url(#SVGID_53_);}
	.st36{clip-path:url(#SVGID_54_);fill:#FFFFFF;}
	.st37{clip-path:url(#SVGID_57_);}
	.st38{clip-path:url(#SVGID_58_);fill:#FFFFFF;}
	.st39{clip-path:url(#SVGID_61_);}
	.st40{clip-path:url(#SVGID_62_);fill:#FFFFFF;}
	.st41{clip-path:url(#SVGID_65_);}
	.st42{clip-path:url(#SVGID_66_);fill:#FFFFFF;}
	.st43{clip-path:url(#SVGID_69_);}
	.st44{clip-path:url(#SVGID_70_);fill:#FFFFFF;}
	.st45{clip-path:url(#SVGID_73_);}
	.st46{clip-path:url(#SVGID_74_);fill:#FFFFFF;}
	.st47{clip-path:url(#SVGID_77_);}
	.st48{clip-path:url(#SVGID_78_);fill:#FFFFFF;}
	.st49{clip-path:url(#SVGID_80_);fill:#FFFFFF;}
	.st50{clip-path:url(#SVGID_85_);}
	.st51{clip-path:url(#SVGID_86_);fill:#FFFFFF;}
	.st52{clip-path:url(#SVGID_89_);}
	.st53{clip-path:url(#SVGID_90_);fill:#FFFFFF;}
	.st54{clip-path:url(#SVGID_92_);fill:#FFFFFF;}
	.st55{fill-rule:evenodd;clip-rule:evenodd;fill:#2DB4D0;}
	.st56{clip-path:url(#SVGID_97_);}
	.st57{clip-path:url(#SVGID_98_);fill:#FFFFFF;}
	.st58{clip-path:url(#SVGID_101_);}
	.st59{clip-path:url(#SVGID_102_);fill:#FFFFFF;}
	.st60{clip-path:url(#SVGID_105_);}
	.st61{clip-path:url(#SVGID_106_);fill:#FFFFFF;}
	.st62{clip-path:url(#SVGID_109_);}
	.st63{clip-path:url(#SVGID_110_);fill:#FFFFFF;}
	.st64{clip-path:url(#SVGID_113_);}
	.st65{clip-path:url(#SVGID_114_);fill:#FFFFFF;}
	.st66{clip-path:url(#SVGID_117_);}
	.st67{clip-path:url(#SVGID_118_);fill:#FFFFFF;}
	.st68{clip-path:url(#SVGID_121_);}
	.st69{clip-path:url(#SVGID_122_);fill:#FFFFFF;}
	.st70{clip-path:url(#SVGID_125_);}
	.st71{clip-path:url(#SVGID_126_);fill:#FFFFFF;}
	.st72{clip-path:url(#SVGID_129_);}
	.st73{clip-path:url(#SVGID_130_);fill:#FFFFFF;}
	.st74{clip-path:url(#SVGID_133_);}
	.st75{clip-path:url(#SVGID_134_);fill:#FFFFFF;}
	.st76{clip-path:url(#SVGID_137_);}
	.st77{clip-path:url(#SVGID_138_);fill:#FFFFFF;}
	.st78{clip-path:url(#SVGID_141_);}
	.st79{clip-path:url(#SVGID_142_);fill:#FFFFFF;}
	.st80{clip-path:url(#SVGID_145_);}
	.st81{clip-path:url(#SVGID_146_);fill:#FFFFFF;}
	.st82{clip-path:url(#SVGID_148_);fill:#FFFFFF;}
	.st83{clip-path:url(#SVGID_151_);}
	.st84{clip-path:url(#SVGID_152_);fill:#FFFFFF;}
	.st85{clip-path:url(#SVGID_155_);}
	.st86{clip-path:url(#SVGID_156_);fill:#FFFFFF;}
	.st87{clip-path:url(#SVGID_158_);fill:#FFFFFF;}
	.st88{clip-path:url(#SVGID_160_);fill:#BDBDBD;}
	.st89{clip-path:url(#SVGID_162_);fill:#BDBDBD;}
	.st90{clip-path:url(#SVGID_164_);fill:#BDBDBD;}
	.st91{clip-path:url(#SVGID_166_);fill:#BDBDBD;}
	.st92{clip-path:url(#SVGID_168_);fill:#BDBDBD;}
	.st93{clip-path:url(#SVGID_170_);fill:#BDBDBD;}
	.st94{clip-path:url(#SVGID_172_);fill:#BDBDBD;}
	.st95{clip-path:url(#SVGID_174_);fill:#BDBDBD;}
</style>
  </defs>
  <g id="Layer_1">
    <g id="plane_bgr_1_">
      <g>
        <defs>
          <polygon id="SVGID_1_" points="10.5,2769.7 412.8,2778.8 412.8,-26.5 10.5,-35.6 &#9;&#9;&#9;&#9;"/>
        </defs>
        <defs>
          <polygon id="SVGID_2_" points="10.5,-35.5 412.8,-26.4 412.8,2778.8 10.5,2769.8 &#9;&#9;&#9;&#9;"/>
        </defs>
      </g>
      <g>
        <defs>
          <polygon id="SVGID_5_" points="10.5,2769.7 412.8,2778.8 412.8,-26.5 10.5,-35.6 &#9;&#9;&#9;&#9;"/>
        </defs>
        <defs>
          <polygon id="SVGID_6_" points="10.5,-35.5 412.8,-26.4 412.8,2778.8 10.5,2769.8 &#9;&#9;&#9;&#9;"/>
        </defs>
      </g>
      <g>
        <defs>
          <polygon id="SVGID_9_" points="10.5,2769.7 412.8,2778.8 412.8,-26.5 10.5,-35.6 &#9;&#9;&#9;&#9;"/>
        </defs>
        <defs>
          <path id="SVGID_10_" d="M35.1,307.6c65.2-229.1,141.1-255.1,177-255.1c35.5,0,110.2,29.6,177,255.1l0,0 c2.3,8.8,3.4,17.8,3.4,26.8v1840.2l0,0c0,8.9-1.1,17.8-3.3,26.5c-87.4,343.1-146.4,539.2-177.1,539.2 c-30.7,0-89.7-196.1-177.1-539.2l0,0c-2.2-8.6-3.3-17.5-3.3-26.5V334.4l0,0C31.7,325.3,32.9,316.3,35.1,307.6L35.1,307.6z"/>
        </defs>
        <defs>
          <polygon id="SVGID_11_" points="10.5,-35.5 412.8,-26.4 412.8,2778.8 10.5,2769.8 &#9;&#9;&#9;&#9;"/>
        </defs>
        <clipPath id="SVGID_12_">
          <polygon points="10.5,2769.7 412.8,2778.8 412.8,-26.5 10.5,-35.6 &#9;&#9;&#9;&#9;" transform="matrix(1, 0, 0, 1, 0, 0)" style="overflow: visible;"/>
        </clipPath>
        <clipPath id="SVGID_13_" class="st2">
          <path d="M35.1,307.6c65.2-229.1,141.1-255.1,177-255.1c35.5,0,110.2,29.6,177,255.1l0,0 c2.3,8.8,3.4,17.8,3.4,26.8v1840.2l0,0c0,8.9-1.1,17.8-3.3,26.5c-87.4,343.1-146.4,539.2-177.1,539.2 c-30.7,0-89.7-196.1-177.1-539.2l0,0c-2.2-8.6-3.3-17.5-3.3-26.5V334.4l0,0C31.7,325.3,32.9,316.3,35.1,307.6L35.1,307.6z" transform="matrix(1, 0, 0, 1, 0, 0)" style="overflow: visible;"/>
        </clipPath>
        <clipPath id="SVGID_14_" class="st3">
          <polygon points="10.5,-35.5 412.8,-26.4 412.8,2778.8 10.5,2769.8 &#9;&#9;&#9;&#9;" transform="matrix(1, 0, 0, 1, 0, 0)" style="overflow: visible;"/>
        </clipPath>
        <rect x="26.4" y="-31.9" class="st4" width="371.5" height="2798.3"/>
      </g>
      <g>
        <defs>
          <polygon id="SVGID_15_" points="10.5,2764.9 412.8,2773.9 414.3,-31.3 12,-40.4 &#9;&#9;&#9;&#9;"/>
        </defs>
        <defs>
          <path id="SVGID_16_" d="M40.4,352.5L40.4,352.5v1792.4c50.3,247.7,107.5,326.2,171.7,326.2c64.2,0,121.5-78.5,171.7-326.2V352.2 c0,0,0-33.2-9.3-56.8c0,0-42.1-17.5-164.5-17.5c0,0-134.8,2.4-162.2,19.6C47.9,297.5,37.7,334.5,40.4,352.5z"/>
        </defs>
        <clipPath id="SVGID_17_">
          <polygon points="10.5,2764.9 412.8,2773.9 414.3,-31.3 12,-40.4 &#9;&#9;&#9;&#9;" transform="matrix(1, 0, 0, 1, 0, 0)" style="overflow: visible;"/>
        </clipPath>
        <clipPath id="SVGID_18_" class="st5">
          <path d="M40.4,352.5L40.4,352.5v1792.4c50.3,247.7,107.5,326.2,171.7,326.2c64.2,0,121.5-78.5,171.7-326.2V352.2 c0,0,0-33.2-9.3-56.8c0,0-42.1-17.5-164.5-17.5c0,0-134.8,2.4-162.2,19.6C47.9,297.5,37.7,334.5,40.4,352.5z" transform="matrix(1, 0, 0, 1, 0, 0)" style="overflow: visible;"/>
        </clipPath>
        <rect x="37.7" y="98.6" class="st6" width="354.2" height="2423.3"/>
      </g>
      <g>
        <defs>
          <rect id="SVGID_19_" x="10.5" y="-35" width="402.3" height="2805.3"/>
        </defs>
      </g>
      <g/>
    </g>
    <g id="wings_1_">
      <polygon class="st7" points="39.8,929.3 19,958.7 19,1482 39.8,1469 &#9;&#9;"/>
      <polygon class="st7" points="383.7,929.3 404.4,958.7 404.4,1482 383.7,1469 &#9;&#9;"/>
    </g>
    <path id="nose_mobile" class="st9" d="M47.9,297.5c0,0,42-200.8,163.7-197.5c0,0,115.7-11.3,163,195.4"/>
    <g id="wings_back">
      <path class="st10" d="M14.4,2519.1l46.6-38.2l33.9-61.8c0,0,44.4,171.2,81.7,265.7c0,0-34.4,4.9-51.9,14l-110.3,51.1V2519.1z"/>
      <path class="st10" d="M410.6,2519.1l-46.6-38.2l-33.9-61.8c0,0-44.2,169.7-81.7,265.7c0,0,34.4,4.9,51.9,14l110.3,51.1V2519.1z"/>
    </g>
  </g>
  <g id="Layer_10" class="st12">
    <g>
      <defs>
        <path id="SVGID_21_" d="M41.5,871.8h138.2c0.6,0,1.1,0.4,1.1,0.8v254c0,0.5-0.5,0.8-1.1,0.8H41.5c-0.6,0-1.1-0.4-1.1-0.8l0-254 c0-0.5,1-0.8,1.6-0.8H41.5z"/>
      </defs>
      <path d="M41.5,871.8h138.2c0.6,0,1.1,0.4,1.1,0.8v254c0,0.5-0.5,0.8-1.1,0.8H41.5c-0.6,0-1.1-0.4-1.1-0.8l0-254 c0-0.5,1-0.8,1.6-0.8H41.5z" transform="matrix(1, 0, 0, 1, 0, 0)" style="overflow: visible; fill-rule: evenodd; clip-rule: evenodd; fill: rgb(45, 180, 208);"/>
    </g>
    <g>
      <defs>
        <path id="SVGID_23_" d="M244.1,872.7h138.8c0.6,0,1.1,0.4,1.1,0.8v253.1c0,0.5-0.5,0.8-1.1,0.8H244.1c-0.6,0-1.1-0.4-1.1-0.8 l0-253.1c0-0.5,1-0.8,1.6-0.8H244.1z"/>
      </defs>
      <path d="M244.1,872.7h138.8c0.6,0,1.1,0.4,1.1,0.8v253.1c0,0.5-0.5,0.8-1.1,0.8H244.1c-0.6,0-1.1-0.4-1.1-0.8 l0-253.1c0-0.5,1-0.8,1.6-0.8H244.1z" transform="matrix(1, 0, 0, 1, 0, 0)" style="overflow: visible; fill-rule: evenodd; clip-rule: evenodd; fill: rgb(45, 180, 208);"/>
    </g>
  </g>
  <g id="rooms">
    <g>
      <defs>
        <path id="SVGID_25_" d="M189.6,102v100.4c0,1.4-1.1,2.5-2.5,2.5H81C81,204.9,121.2,112.4,189.6,102z"/>
      </defs>
      <path d="M189.6,102v100.4c0,1.4-1.1,2.5-2.5,2.5H81C81,204.9,121.2,112.4,189.6,102z" transform="matrix(1, 0, 0, 1, 0, 0)" style="overflow: visible; fill-rule: evenodd; clip-rule: evenodd; fill: rgb(45, 180, 208);"/>
    </g>
    <g>
      <g>
        <defs>
          <rect id="SVGID_27_" x="128.8" y="151.9" width="35.4" height="31.8"/>
        </defs>
        <defs>
          <path id="SVGID_28_" d="M133,158.7L133,158.7L133,158.7c0.5,0.2,0.8,0.8,0.6,1.3l-2.6,7.1l0,0c-0.2,0.5-0.8,0.8-1.3,0.6l0,0l0,0 c-0.5-0.2-0.8-0.8-0.6-1.3l2.6-7.1l0,0C131.9,158.8,132.5,158.5,133,158.7L133,158.7z"/>
        </defs>
        <clipPath id="SVGID_29_">
          <rect x="128.8" y="151.9" width="35.4" height="31.8" transform="matrix(1, 0, 0, 1, 0, 0)" style="overflow: visible;"/>
        </clipPath>
        <clipPath id="SVGID_30_" class="st23">
          <path d="M133,158.7L133,158.7L133,158.7c0.5,0.2,0.8,0.8,0.6,1.3l-2.6,7.1l0,0c-0.2,0.5-0.8,0.8-1.3,0.6l0,0l0,0 c-0.5-0.2-0.8-0.8-0.6-1.3l2.6-7.1l0,0C131.9,158.8,132.5,158.5,133,158.7L133,158.7z" transform="matrix(1, 0, 0, 1, 0, 0)" style="overflow: visible;"/>
        </clipPath>
        <rect x="122.1" y="157.6" transform="matrix(0.3419 -0.9397 0.9397 0.3419 -66.8821 230.8511)" class="st24" width="18.6" height="11.1"/>
      </g>
      <g>
        <defs>
          <rect id="SVGID_31_" x="128.8" y="151.9" width="35.4" height="31.8"/>
        </defs>
        <defs>
          <path id="SVGID_32_" d="M134.1,172L134.1,172L134.1,172c0.7,0,1.3,0.6,1.3,1.3v8.5l0,0c0,0.7-0.6,1.3-1.3,1.3l0,0l0,0 c-0.7,0-1.3-0.6-1.3-1.3v-8.5l0,0C132.8,172.5,133.4,172,134.1,172L134.1,172z"/>
        </defs>
        <clipPath id="SVGID_33_">
          <rect x="128.8" y="151.9" width="35.4" height="31.8" transform="matrix(1, 0, 0, 1, 0, 0)" style="overflow: visible;"/>
        </clipPath>
        <clipPath id="SVGID_34_" class="st25">
          <path d="M134.1,172L134.1,172L134.1,172c0.7,0,1.3,0.6,1.3,1.3v8.5l0,0c0,0.7-0.6,1.3-1.3,1.3l0,0l0,0 c-0.7,0-1.3-0.6-1.3-1.3v-8.5l0,0C132.8,172.5,133.4,172,134.1,172L134.1,172z" transform="matrix(1, 0, 0, 1, 0, 0)" style="overflow: visible;"/>
        </clipPath>
        <rect x="128.3" y="167.4" class="st26" width="11.6" height="20.1"/>
      </g>
      <g>
        <defs>
          <rect id="SVGID_35_" x="128.8" y="151.9" width="35.4" height="31.8"/>
        </defs>
        <defs>
          <path id="SVGID_36_" d="M137.6,172L137.6,172L137.6,172c0.7,0,1.3,0.6,1.3,1.3v8.5l0,0c0,0.7-0.6,1.3-1.3,1.3l0,0l0,0 c-0.7,0-1.3-0.6-1.3-1.3v-8.5l0,0C136.3,172.5,136.9,172,137.6,172L137.6,172z"/>
        </defs>
        <clipPath id="SVGID_37_">
          <rect x="128.8" y="151.9" width="35.4" height="31.8" transform="matrix(1, 0, 0, 1, 0, 0)" style="overflow: visible;"/>
        </clipPath>
        <clipPath id="SVGID_38_" class="st27">
          <path d="M137.6,172L137.6,172L137.6,172c0.7,0,1.3,0.6,1.3,1.3v8.5l0,0c0,0.7-0.6,1.3-1.3,1.3l0,0l0,0 c-0.7,0-1.3-0.6-1.3-1.3v-8.5l0,0C136.3,172.5,136.9,172,137.6,172L137.6,172z" transform="matrix(1, 0, 0, 1, 0, 0)" style="overflow: visible;"/>
        </clipPath>
        <rect x="131.8" y="167.4" class="st28" width="11.6" height="20.1"/>
      </g>
      <g>
        <defs>
          <rect id="SVGID_39_" x="128.8" y="151.9" width="35.4" height="31.8"/>
        </defs>
        <defs>
          <path id="SVGID_40_" d="M138.8,158.7L138.8,158.7L138.8,158.7c0.5-0.2,1.1,0.1,1.3,0.6l2.6,7.1l0,0c0.2,0.5-0.1,1.1-0.6,1.3l0,0 l0,0c-0.5,0.2-1.1-0.1-1.3-0.6l-2.6-7.1l0,0C138,159.5,138.3,158.9,138.8,158.7L138.8,158.7z"/>
        </defs>
        <clipPath id="SVGID_41_">
          <rect x="128.8" y="151.9" width="35.4" height="31.8" transform="matrix(1, 0, 0, 1, 0, 0)" style="overflow: visible;"/>
        </clipPath>
        <clipPath id="SVGID_42_" class="st29">
          <path d="M138.8,158.7L138.8,158.7L138.8,158.7c0.5-0.2,1.1,0.1,1.3,0.6l2.6,7.1l0,0c0.2,0.5-0.1,1.1-0.6,1.3l0,0 l0,0c-0.5,0.2-1.1-0.1-1.3-0.6l-2.6-7.1l0,0C138,159.5,138.3,158.9,138.8,158.7L138.8,158.7z" transform="matrix(1, 0, 0, 1, 0, 0)" style="overflow: visible;"/>
        </clipPath>
        <rect x="134.9" y="153.9" transform="matrix(0.9398 -0.3418 0.3418 0.9398 -47.321 57.8263)" class="st30" width="11.1" height="18.6"/>
      </g>
      <g>
        <defs>
          <rect id="SVGID_43_" x="128.8" y="151.9" width="35.4" height="31.8"/>
        </defs>
        <defs>
          <path id="SVGID_44_" d="M132.8,158.4h6l0,0c0.5,0,0.9,0.4,0.9,0.9c0,0,0,0.1,0,0.1l-0.9,7h-6l-0.9-7l0,0c-0.1-0.5,0.3-1,0.8-1 C132.8,158.4,132.8,158.4,132.8,158.4L132.8,158.4z"/>
        </defs>
        <clipPath id="SVGID_45_">
          <rect x="128.8" y="151.9" width="35.4" height="31.8" transform="matrix(1, 0, 0, 1, 0, 0)" style="overflow: visible;"/>
        </clipPath>
        <clipPath id="SVGID_46_" class="st31">
          <path d="M132.8,158.4h6l0,0c0.5,0,0.9,0.4,0.9,0.9c0,0,0,0.1,0,0.1l-0.9,7h-6l-0.9-7l0,0c-0.1-0.5,0.3-1,0.8-1 C132.8,158.4,132.8,158.4,132.8,158.4L132.8,158.4z" transform="matrix(1, 0, 0, 1, 0, 0)" style="overflow: visible;"/>
        </clipPath>
        <rect x="127.4" y="153.9" class="st32" width="16.9" height="17.1"/>
      </g>
      <g>
        <defs>
          <rect id="SVGID_47_" x="128.8" y="151.9" width="35.4" height="31.8"/>
        </defs>
        <defs>
          <path id="SVGID_48_" d="M132,173h7.7l0,0c0.5,0,0.9-0.4,0.9-0.9c0-0.1,0-0.1,0-0.2l-1.7-6.9h-6l-1.7,6.9l0,0 c-0.1,0.5,0.2,1,0.7,1.1C131.8,173,131.9,173,132,173L132,173z"/>
        </defs>
        <clipPath id="SVGID_49_">
          <rect x="128.8" y="151.9" width="35.4" height="31.8" transform="matrix(1, 0, 0, 1, 0, 0)" style="overflow: visible;"/>
        </clipPath>
        <clipPath id="SVGID_50_" class="st33">
          <path d="M132,173h7.7l0,0c0.5,0,0.9-0.4,0.9-0.9c0-0.1,0-0.1,0-0.2l-1.7-6.9h-6l-1.7,6.9l0,0 c-0.1,0.5,0.2,1,0.7,1.1C131.8,173,131.9,173,132,173L132,173z" transform="matrix(1, 0, 0, 1, 0, 0)" style="overflow: visible;"/>
        </clipPath>
        <rect x="126.5" y="160.4" class="st34" width="18.6" height="17.1"/>
      </g>
      <g>
        <defs>
          <rect id="SVGID_51_" x="128.8" y="151.9" width="35.4" height="31.8"/>
        </defs>
        <defs>
          <path id="SVGID_52_" d="M136.1,157.4c1.5,0,2.8-1.2,2.8-2.8c0-1.5-1.2-2.8-2.8-2.8c-1.5,0-2.8,1.2-2.8,2.8 C133.3,156.2,134.5,157.4,136.1,157.4L136.1,157.4z"/>
        </defs>
        <clipPath id="SVGID_53_">
          <rect x="128.8" y="151.9" width="35.4" height="31.8" transform="matrix(1, 0, 0, 1, 0, 0)" style="overflow: visible;"/>
        </clipPath>
        <clipPath id="SVGID_54_" class="st35">
          <path d="M136.1,157.4c1.5,0,2.8-1.2,2.8-2.8c0-1.5-1.2-2.8-2.8-2.8c-1.5,0-2.8,1.2-2.8,2.8 C133.3,156.2,134.5,157.4,136.1,157.4L136.1,157.4z" transform="matrix(1, 0, 0, 1, 0, 0)" style="overflow: visible;"/>
        </clipPath>
        <rect x="128.8" y="147.4" class="st36" width="14.6" height="14.6"/>
      </g>
      <g>
        <defs>
          <rect id="SVGID_55_" x="128.8" y="151.9" width="35.4" height="31.8"/>
        </defs>
        <defs>
          <path id="SVGID_56_" d="M154.1,158.7L154.1,158.7L154.1,158.7c0.5,0.2,0.8,0.8,0.6,1.3l-2.6,7.1l0,0c-0.2,0.5-0.8,0.8-1.3,0.6 l0,0l0,0c-0.5-0.2-0.8-0.8-0.6-1.3l2.6-7.1l0,0C153,158.8,153.6,158.5,154.1,158.7L154.1,158.7z"/>
        </defs>
        <clipPath id="SVGID_57_">
          <rect x="128.8" y="151.9" width="35.4" height="31.8" transform="matrix(1, 0, 0, 1, 0, 0)" style="overflow: visible;"/>
        </clipPath>
        <clipPath id="SVGID_58_" class="st37">
          <path d="M154.1,158.7L154.1,158.7L154.1,158.7c0.5,0.2,0.8,0.8,0.6,1.3l-2.6,7.1l0,0c-0.2,0.5-0.8,0.8-1.3,0.6 l0,0l0,0c-0.5-0.2-0.8-0.8-0.6-1.3l2.6-7.1l0,0C153,158.8,153.6,158.5,154.1,158.7L154.1,158.7z" transform="matrix(1, 0, 0, 1, 0, 0)" style="overflow: visible;"/>
        </clipPath>
        <rect x="143.1" y="157.6" transform="matrix(0.3418 -0.9398 0.9398 0.3418 -53.0056 250.6785)" class="st38" width="18.6" height="11.1"/>
      </g>
      <g>
        <defs>
          <rect id="SVGID_59_" x="128.8" y="151.9" width="35.4" height="31.8"/>
        </defs>
        <defs>
          <path id="SVGID_60_" d="M155.1,167L155.1,167L155.1,167c0.7,0,1.3,0.6,1.3,1.3v13.5l0,0c0,0.7-0.6,1.3-1.3,1.3l0,0l0,0 c-0.7,0-1.3-0.6-1.3-1.3v-13.5l0,0C153.9,167.5,154.4,167,155.1,167L155.1,167z"/>
        </defs>
        <clipPath id="SVGID_61_">
          <rect x="128.8" y="151.9" width="35.4" height="31.8" transform="matrix(1, 0, 0, 1, 0, 0)" style="overflow: visible;"/>
        </clipPath>
        <clipPath id="SVGID_62_" class="st39">
          <path d="M155.1,167L155.1,167L155.1,167c0.7,0,1.3,0.6,1.3,1.3v13.5l0,0c0,0.7-0.6,1.3-1.3,1.3l0,0l0,0 c-0.7,0-1.3-0.6-1.3-1.3v-13.5l0,0C153.9,167.5,154.4,167,155.1,167L155.1,167z" transform="matrix(1, 0, 0, 1, 0, 0)" style="overflow: visible;"/>
        </clipPath>
        <rect x="149.3" y="162.4" class="st40" width="11.6" height="25.1"/>
      </g>
      <g>
        <defs>
          <rect id="SVGID_63_" x="128.8" y="151.9" width="35.4" height="31.8"/>
        </defs>
        <defs>
          <path id="SVGID_64_" d="M158.6,167L158.6,167L158.6,167c0.7,0,1.3,0.6,1.3,1.3v13.5l0,0c0,0.7-0.6,1.3-1.3,1.3l0,0l0,0 c-0.7,0-1.2-0.6-1.2-1.3v-13.5l0,0C157.4,167.5,157.9,167,158.6,167L158.6,167z"/>
        </defs>
        <clipPath id="SVGID_65_">
          <rect x="128.8" y="151.9" width="35.4" height="31.8" transform="matrix(1, 0, 0, 1, 0, 0)" style="overflow: visible;"/>
        </clipPath>
        <clipPath id="SVGID_66_" class="st41">
          <path d="M158.6,167L158.6,167L158.6,167c0.7,0,1.3,0.6,1.3,1.3v13.5l0,0c0,0.7-0.6,1.3-1.3,1.3l0,0l0,0 c-0.7,0-1.2-0.6-1.2-1.3v-13.5l0,0C157.4,167.5,157.9,167,158.6,167L158.6,167z" transform="matrix(1, 0, 0, 1, 0, 0)" style="overflow: visible;"/>
        </clipPath>
        <rect x="152.8" y="162.4" class="st42" width="11.6" height="25.1"/>
      </g>
      <g>
        <defs>
          <rect id="SVGID_67_" x="128.8" y="151.9" width="35.4" height="31.8"/>
        </defs>
        <defs>
          <path id="SVGID_68_" d="M159.8,158.7L159.8,158.7L159.8,158.7c0.5-0.2,1.1,0.1,1.3,0.6l2.6,7.1l0,0c0.2,0.5-0.1,1.1-0.6,1.3l0,0 l0,0c-0.5,0.2-1.1-0.1-1.3-0.6l-2.6-7.1l0,0C159.1,159.5,159.3,158.9,159.8,158.7L159.8,158.7z"/>
        </defs>
        <clipPath id="SVGID_69_">
          <rect x="128.8" y="151.9" width="35.4" height="31.8" transform="matrix(1, 0, 0, 1, 0, 0)" style="overflow: visible;"/>
        </clipPath>
        <clipPath id="SVGID_70_" class="st43">
          <path d="M159.8,158.7L159.8,158.7L159.8,158.7c0.5-0.2,1.1,0.1,1.3,0.6l2.6,7.1l0,0c0.2,0.5-0.1,1.1-0.6,1.3l0,0 l0,0c-0.5,0.2-1.1-0.1-1.3-0.6l-2.6-7.1l0,0C159.1,159.5,159.3,158.9,159.8,158.7L159.8,158.7z" transform="matrix(1, 0, 0, 1, 0, 0)" style="overflow: visible;"/>
        </clipPath>
        <rect x="155.9" y="153.9" transform="matrix(0.9398 -0.3418 0.3418 0.9398 -46.0532 65.0297)" class="st44" width="11.1" height="18.6"/>
      </g>
      <g>
        <defs>
          <rect id="SVGID_71_" x="128.8" y="151.9" width="35.4" height="31.8"/>
        </defs>
        <defs>
          <path id="SVGID_72_" d="M153.8,158.4h6.1l0,0c0.5,0,0.9,0.4,0.9,0.9c0,0,0,0,0,0l-0.4,10.2l0,0c0,0.5-0.4,0.9-0.9,0.9h-5.3l0,0 c-0.5,0-0.9-0.4-0.9-0.9l-0.4-10.2l0,0C152.9,158.9,153.3,158.5,153.8,158.4C153.8,158.4,153.8,158.4,153.8,158.4L153.8,158.4z"/>
        </defs>
        <clipPath id="SVGID_73_">
          <rect x="128.8" y="151.9" width="35.4" height="31.8" transform="matrix(1, 0, 0, 1, 0, 0)" style="overflow: visible;"/>
        </clipPath>
        <clipPath id="SVGID_74_" class="st45">
          <path d="M153.8,158.4h6.1l0,0c0.5,0,0.9,0.4,0.9,0.9c0,0,0,0,0,0l-0.4,10.2l0,0c0,0.5-0.4,0.9-0.9,0.9h-5.3l0,0 c-0.5,0-0.9-0.4-0.9-0.9l-0.4-10.2l0,0C152.9,158.9,153.3,158.5,153.8,158.4C153.8,158.4,153.8,158.4,153.8,158.4L153.8,158.4z" transform="matrix(1, 0, 0, 1, 0, 0)" style="overflow: visible;"/>
        </clipPath>
        <rect x="148.4" y="153.9" class="st46" width="17" height="21.1"/>
      </g>
      <g>
        <defs>
          <rect id="SVGID_75_" x="128.8" y="151.9" width="35.4" height="31.8"/>
        </defs>
        <defs>
          <path id="SVGID_76_" d="M157.1,157.4c1.5,0,2.8-1.2,2.8-2.8c0-1.5-1.2-2.8-2.8-2.8c-1.5,0-2.8,1.2-2.8,2.8 C154.4,156.2,155.6,157.4,157.1,157.4L157.1,157.4z"/>
        </defs>
        <clipPath id="SVGID_77_">
          <rect x="128.8" y="151.9" width="35.4" height="31.8" transform="matrix(1, 0, 0, 1, 0, 0)" style="overflow: visible;"/>
        </clipPath>
        <clipPath id="SVGID_78_" class="st47">
          <path d="M157.1,157.4c1.5,0,2.8-1.2,2.8-2.8c0-1.5-1.2-2.8-2.8-2.8c-1.5,0-2.8,1.2-2.8,2.8 C154.4,156.2,155.6,157.4,157.1,157.4L157.1,157.4z" transform="matrix(1, 0, 0, 1, 0, 0)" style="overflow: visible;"/>
        </clipPath>
        <rect x="149.8" y="147.4" class="st48" width="14.6" height="14.6"/>
      </g>
      <g>
        <defs>
          <rect id="SVGID_79_" x="145.9" y="151.9" width="1.5" height="31.6"/>
        </defs>
        <clipPath id="SVGID_80_">
          <rect x="145.9" y="151.9" width="1.5" height="31.6" transform="matrix(1, 0, 0, 1, 0, 0)" style="overflow: visible;"/>
        </clipPath>
        <rect x="141.3" y="147.4" class="st49" width="10.6" height="40.7"/>
      </g>
    </g>
    <g>
      <defs>
        <path id="SVGID_81_" d="M330.2,177.7h-95.1c-1.4,0-2.5-1.1-2.5-2.5V102C290,111.3,330.2,177.7,330.2,177.7z"/>
      </defs>
      <path d="M330.2,177.7h-95.1c-1.4,0-2.5-1.1-2.5-2.5V102C290,111.3,330.2,177.7,330.2,177.7z" transform="matrix(1, 0, 0, 1, 0, 0)" style="overflow: visible; fill-rule: evenodd; clip-rule: evenodd; fill: rgb(45, 180, 208);"/>
    </g>
    <g>
      <g>
        <defs>
          <rect id="SVGID_83_" x="255.6" y="145" width="28.8" height="16.9"/>
        </defs>
        <defs>
          <path id="SVGID_84_" d="M269,161.9c7.4,0,13.3-0.6,13.3-1.4c0-0.8-6-1.4-13.3-1.4c-7.4,0-13.3,0.6-13.3,1.4 C255.6,161.2,261.6,161.9,269,161.9L269,161.9z"/>
        </defs>
        <clipPath id="SVGID_85_">
          <rect x="255.6" y="145" width="28.8" height="16.9" transform="matrix(1, 0, 0, 1, 0, 0)" style="overflow: visible;"/>
        </clipPath>
        <clipPath id="SVGID_86_" class="st50">
          <path d="M269,161.9c7.4,0,13.3-0.6,13.3-1.4c0-0.8-6-1.4-13.3-1.4c-7.4,0-13.3,0.6-13.3,1.4 C255.6,161.2,261.6,161.9,269,161.9L269,161.9z" transform="matrix(1, 0, 0, 1, 0, 0)" style="overflow: visible;"/>
        </clipPath>
        <rect x="252.1" y="155.5" class="st51" width="33.7" height="9.8"/>
      </g>
      <g>
        <defs>
          <rect id="SVGID_87_" x="255.6" y="145" width="28.8" height="16.9"/>
        </defs>
        <defs>
          <path id="SVGID_88_" d="M260.4,145h17.1l0,0c0.3,0,0.6,0.2,0.7,0.6c0.6,3,0.8,5.6,0.6,7.9c-0.2,2.3-1.3,4.6-3.3,6.8l0,0 c-0.1,0.2-0.3,0.2-0.5,0.2h-12.1l0,0c-0.2,0-0.4-0.1-0.5-0.2c-2-1.9-3.1-4.1-3.3-6.8c-0.2-2.6,0-5.2,0.6-7.9l0,0 C259.8,145.2,260.1,145,260.4,145L260.4,145z"/>
        </defs>
        <clipPath id="SVGID_89_">
          <rect x="255.6" y="145" width="28.8" height="16.9" transform="matrix(1, 0, 0, 1, 0, 0)" style="overflow: visible;"/>
        </clipPath>
        <clipPath id="SVGID_90_" class="st52">
          <path d="M260.4,145h17.1l0,0c0.3,0,0.6,0.2,0.7,0.6c0.6,3,0.8,5.6,0.6,7.9c-0.2,2.3-1.3,4.6-3.3,6.8l0,0 c-0.1,0.2-0.3,0.2-0.5,0.2h-12.1l0,0c-0.2,0-0.4-0.1-0.5-0.2c-2-1.9-3.1-4.1-3.3-6.8c-0.2-2.6,0-5.2,0.6-7.9l0,0 C259.8,145.2,260.1,145,260.4,145L260.4,145z" transform="matrix(1, 0, 0, 1, 0, 0)" style="overflow: visible;"/>
        </clipPath>
        <rect x="255.5" y="141.5" class="st53" width="26.9" height="22.5"/>
      </g>
      <g>
        <defs>
          <rect id="SVGID_91_" x="255.6" y="145" width="28.8" height="16.9"/>
        </defs>
        <clipPath id="SVGID_92_">
          <rect x="255.6" y="145" width="28.8" height="16.9" transform="matrix(1, 0, 0, 1, 0, 0)" style="overflow: visible;"/>
        </clipPath>
        <path class="st54" d="M280.2,156.9c-2.3,0-4.2-1.9-4.2-4.2c0-2.3,1.9-4.2,4.2-4.2c2.3,0,4.2,1.9,4.2,4.2 C284.4,155.1,282.5,156.9,280.2,156.9z M280.2,149.9c-1.5,0-2.8,1.3-2.8,2.8c0,1.6,1.3,2.8,2.8,2.8c1.6,0,2.8-1.3,2.8-2.8 C283,151.2,281.8,149.9,280.2,149.9z"/>
      </g>
    </g>
    <path class="st10" d="M385.6,863.1H258c-1.8,0-3.3-1.5-3.3-3.3c0-1.8,1.5-3.3,3.3-3.3h127.7"/>
    <path class="st10" d="M37,863.1h124.9c1.8,0,3.3-1.5,3.3-3.3c0-1.8-1.5-3.3-3.3-3.3H37"/>
    <g>
      <g>
        <path class="st14" d="M149.1,234.7h-17.2c0,0-4.3-0.1-4.3-5l0-20.3c0.1-0.8,0.9-2.3,2.9-2.3c1.8,0,2.7,0.8,2.7,2.4v16.8 c0.2,0.4,1.5,2.9,7,2.9c6,0,7.5-2.7,7.7-2.9v-16.7c0-0.8,0.6-2.4,2.5-2.4c1.4,0,2.2,0.7,2.7,2.1c0,0,0,0.1,0,0.1l0,0 c0.1,0.5,0.1,3.1,0.1,20.8c0,0,0.1,2.1-1.1,3.4C151.3,234.4,150.3,234.7,149.1,234.7z M128.4,209.6v20.2c0,4,3.3,4.1,3.4,4.1 h17.2c1,0,1.7-0.3,2.2-0.8c1-1.1,0.9-2.8,0.9-2.8c0-7.8,0.1-19.5,0-20.6c0,0,0-0.1,0-0.1c-0.2-0.7-0.6-1.5-1.8-1.5 c-1.5,0-1.6,1.4-1.6,1.5v16.7c0,0.6-2.1,3.8-8.6,3.8c-6.6,0-7.8-3.4-7.9-3.5l0-0.1v-16.9c0-0.5,0-1.5-1.8-1.5 C128.7,208.1,128.4,209.3,128.4,209.6z"/>
        <path class="st14" d="M129.5,208.1c0-0.1-0.1-1.4,0.9-2.4c0.7-0.8,1.8-1.2,3.3-1.2l14.1,0c1.1,0.2,3.3,1.2,3.3,3.5l-0.9-0.1 c0-1.9-2.2-2.4-2.5-2.5h-14c-1.2,0-2,0.3-2.6,0.9c-0.6,0.6-0.7,1.5-0.7,1.7L129.5,208.1z"/>
      </g>
      <path class="st13" d="M147.5,226.1v-11.6h-14.1v11.6c0,0,1.3,2.9,6.9,2.7C140.3,228.9,146,228.9,147.5,226.1z"/>
    </g>
    <g>
      <defs>
        <path id="SVGID_93_" d="M235,254.1h125.4c1.1,0,2,0.9,2,2l20,72.6c0,1.1-0.9,2-2,2H235c-1.1,0-2-0.9-2-2v-72.6 C233,255,233.8,254.1,235,254.1L235,254.1z"/>
      </defs>
      <path d="M235,254.1h125.4c1.1,0,2,0.9,2,2l20,72.6c0,1.1-0.9,2-2,2H235c-1.1,0-2-0.9-2-2v-72.6 C233,255,233.8,254.1,235,254.1L235,254.1z" transform="matrix(1, 0, 0, 1, 0, 0)" style="overflow: visible; fill-rule: evenodd; clip-rule: evenodd; fill: rgb(45, 180, 208);"/>
    </g>
    <path class="st10" d="M39,326.2h85.9c1.8,0,3.3-1.5,3.3-3.3c0-1.8-1.5-3.3-3.3-3.3H39"/>
    <g id="PDF">
      <g id="SG-Seat-Map-Redesign-02" transform="translate(-219.000000, -653.000000)">
        <g id="closet" transform="translate(220.000000, 654.000000)">
          <path class="st22" d="M315.1,304.3h-27.5l-0.2-0.1c-1-0.6-1.4-1.5-1.1-2.6c0.9-3.2,9.4-7.3,15.1-7.3c5.6,0,14.1,4.3,15,7.5 c0.3,1-0.1,1.9-1,2.4L315.1,304.3z M288.2,302.3h26.3c0-0.1-0.2-0.4-0.6-0.8c-2.1-2.3-8.2-5.2-12.5-5.2 c-5.3,0-12.7,3.8-13.2,5.8C288.1,302.2,288.1,302.2,288.2,302.3z"/>
          <path class="st22" d="M301.4,292.3c-0.5,0-1-0.1-1.5-0.3c-1.4-0.5-2.5-1.7-2.8-3.2c-0.1-0.3-0.1-0.7-0.1-1c0-2.5,2-4.5,4.5-4.5 c2.5,0,4.5,2,4.5,4.5h-2c0-1.4-1.1-2.5-2.5-2.5c-1.4,0-2.5,1.1-2.5,2.5c0,0.2,0,0.4,0.1,0.6c0.2,0.8,0.8,1.5,1.6,1.8 c0.3,0.1,0.6,0.2,0.9,0.2V292.3z"/>
          <rect id="Rectangle-13" x="300.9" y="290.3" class="st22" width="2" height="5"/>
        </g>
      </g>
    </g>
    <path class="st10" d="M380.2,2222.6H258.9c-1.8,0-3.3-1.5-3.3-3.3s1.5-3.3,3.3-3.3h121.3"/>
    <path class="st10" d="M43.4,2222.6h119.5c1.8,0,3.3-1.5,3.3-3.3s-1.5-3.3-3.3-3.3H43.4"/>
    <path class="st55" d="M83.4,2310.9c0,0,41.5,151.1,117.7,159.3c0,0,7.2,1.8,7.2-7.2s0-143.2,0-143.2s2.1-9-11.9-9 S83.4,2310.9,83.4,2310.9z"/>
    <path class="st55" d="M341.7,2310.9c0,0-44.1,152.4-119.5,159.3c0,0-7.2,1.8-7.2-7.2s0-143.2,0-143.2s-2.1-9,11.9-9 C240.9,2310.9,341.7,2310.9,341.7,2310.9z"/>
    <g>
      <g>
        <defs>
          <rect id="SVGID_95_" x="141.7" y="2366.4" width="35.4" height="31.8"/>
        </defs>
        <defs>
          <path id="SVGID_96_" d="M145.9,2373.2L145.9,2373.2L145.9,2373.2c0.5,0.2,0.8,0.8,0.6,1.3l-2.6,7.1l0,0 c-0.2,0.5-0.8,0.8-1.3,0.6l0,0l0,0c-0.5-0.2-0.8-0.8-0.6-1.3l2.6-7.1l0,0C144.8,2373.3,145.4,2373,145.9,2373.2L145.9,2373.2z"/>
        </defs>
        <clipPath id="SVGID_97_">
          <rect x="141.7" y="2366.4" width="35.4" height="31.8" transform="matrix(1, 0, 0, 1, 0, 0)" style="overflow: visible;"/>
        </clipPath>
        <clipPath id="SVGID_98_" class="st56">
          <path d="M145.9,2373.2L145.9,2373.2L145.9,2373.2c0.5,0.2,0.8,0.8,0.6,1.3l-2.6,7.1l0,0 c-0.2,0.5-0.8,0.8-1.3,0.6l0,0l0,0c-0.5-0.2-0.8-0.8-0.6-1.3l2.6-7.1l0,0C144.8,2373.3,145.4,2373,145.9,2373.2L145.9,2373.2z" transform="matrix(1, 0, 0, 1, 0, 0)" style="overflow: visible;"/>
        </clipPath>
        <rect x="135" y="2372.2" transform="matrix(0.3419 -0.9397 0.9397 0.3419 -2139.4451 1700.373)" class="st57" width="18.6" height="11.1"/>
      </g>
      <g>
        <defs>
          <rect id="SVGID_99_" x="141.7" y="2366.4" width="35.4" height="31.8"/>
        </defs>
        <defs>
          <path id="SVGID_100_" d="M147,2386.5L147,2386.5L147,2386.5c0.7,0,1.3,0.6,1.3,1.3v8.5l0,0c0,0.7-0.6,1.3-1.3,1.3l0,0l0,0 c-0.7,0-1.3-0.6-1.3-1.3v-8.5l0,0C145.7,2387.1,146.3,2386.5,147,2386.5L147,2386.5z"/>
        </defs>
        <clipPath id="SVGID_101_">
          <rect x="141.7" y="2366.4" width="35.4" height="31.8" transform="matrix(1, 0, 0, 1, 0, 0)" style="overflow: visible;"/>
        </clipPath>
        <clipPath id="SVGID_102_" class="st58">
          <path d="M147,2386.5L147,2386.5L147,2386.5c0.7,0,1.3,0.6,1.3,1.3v8.5l0,0c0,0.7-0.6,1.3-1.3,1.3l0,0l0,0 c-0.7,0-1.3-0.6-1.3-1.3v-8.5l0,0C145.7,2387.1,146.3,2386.5,147,2386.5L147,2386.5z" transform="matrix(1, 0, 0, 1, 0, 0)" style="overflow: visible;"/>
        </clipPath>
        <rect x="141.2" y="2382" class="st59" width="11.6" height="20.1"/>
      </g>
      <g>
        <defs>
          <rect id="SVGID_103_" x="141.7" y="2366.4" width="35.4" height="31.8"/>
        </defs>
        <defs>
          <path id="SVGID_104_" d="M150.5,2386.5L150.5,2386.5L150.5,2386.5c0.7,0,1.3,0.6,1.3,1.3v8.5l0,0c0,0.7-0.6,1.3-1.3,1.3l0,0l0,0 c-0.7,0-1.3-0.6-1.3-1.3v-8.5l0,0C149.2,2387.1,149.8,2386.5,150.5,2386.5L150.5,2386.5z"/>
        </defs>
        <clipPath id="SVGID_105_">
          <rect x="141.7" y="2366.4" width="35.4" height="31.8" transform="matrix(1, 0, 0, 1, 0, 0)" style="overflow: visible;"/>
        </clipPath>
        <clipPath id="SVGID_106_" class="st60">
          <path d="M150.5,2386.5L150.5,2386.5L150.5,2386.5c0.7,0,1.3,0.6,1.3,1.3v8.5l0,0c0,0.7-0.6,1.3-1.3,1.3l0,0l0,0 c-0.7,0-1.3-0.6-1.3-1.3v-8.5l0,0C149.2,2387.1,149.8,2386.5,150.5,2386.5L150.5,2386.5z" transform="matrix(1, 0, 0, 1, 0, 0)" style="overflow: visible;"/>
        </clipPath>
        <rect x="144.7" y="2382" class="st61" width="11.6" height="20.1"/>
      </g>
      <g>
        <defs>
          <rect id="SVGID_107_" x="141.7" y="2366.4" width="35.4" height="31.8"/>
        </defs>
        <defs>
          <path id="SVGID_108_" d="M151.7,2373.2L151.7,2373.2L151.7,2373.2c0.5-0.2,1.1,0.1,1.3,0.6l2.6,7.1l0,0c0.2,0.5-0.1,1.1-0.6,1.3 l0,0l0,0c-0.5,0.2-1.1-0.1-1.3-0.6l-2.6-7.1l0,0C150.9,2374,151.2,2373.4,151.7,2373.2L151.7,2373.2z"/>
        </defs>
        <clipPath id="SVGID_109_">
          <rect x="141.7" y="2366.4" width="35.4" height="31.8" transform="matrix(1, 0, 0, 1, 0, 0)" style="overflow: visible;"/>
        </clipPath>
        <clipPath id="SVGID_110_" class="st62">
          <path d="M151.7,2373.2L151.7,2373.2L151.7,2373.2c0.5-0.2,1.1,0.1,1.3,0.6l2.6,7.1l0,0c0.2,0.5-0.1,1.1-0.6,1.3 l0,0l0,0c-0.5,0.2-1.1-0.1-1.3-0.6l-2.6-7.1l0,0C150.9,2374,151.2,2373.4,151.7,2373.2L151.7,2373.2z" transform="matrix(1, 0, 0, 1, 0, 0)" style="overflow: visible;"/>
        </clipPath>
        <rect x="147.8" y="2368.4" transform="matrix(0.9398 -0.3418 0.3418 0.9398 -803.5554 195.6513)" class="st63" width="11.1" height="18.6"/>
      </g>
      <g>
        <defs>
          <rect id="SVGID_111_" x="141.7" y="2366.4" width="35.4" height="31.8"/>
        </defs>
        <defs>
          <path id="SVGID_112_" d="M145.8,2373h6l0,0c0.5,0,0.9,0.4,0.9,0.9c0,0,0,0.1,0,0.1l-0.9,7h-6l-0.9-7l0,0c-0.1-0.5,0.3-1,0.8-1 C145.7,2373,145.7,2373,145.8,2373L145.8,2373z"/>
        </defs>
        <clipPath id="SVGID_113_">
          <rect x="141.7" y="2366.4" width="35.4" height="31.8" transform="matrix(1, 0, 0, 1, 0, 0)" style="overflow: visible;"/>
        </clipPath>
        <clipPath id="SVGID_114_" class="st64">
          <path d="M145.8,2373h6l0,0c0.5,0,0.9,0.4,0.9,0.9c0,0,0,0.1,0,0.1l-0.9,7h-6l-0.9-7l0,0c-0.1-0.5,0.3-1,0.8-1 C145.7,2373,145.7,2373,145.8,2373L145.8,2373z" transform="matrix(1, 0, 0, 1, 0, 0)" style="overflow: visible;"/>
        </clipPath>
        <rect x="140.3" y="2368.4" class="st65" width="16.9" height="17.1"/>
      </g>
      <g>
        <defs>
          <rect id="SVGID_115_" x="141.7" y="2366.4" width="35.4" height="31.8"/>
        </defs>
        <defs>
          <path id="SVGID_116_" d="M144.9,2387.5h7.7l0,0c0.5,0,0.9-0.4,0.9-0.9c0-0.1,0-0.1,0-0.2l-1.7-6.9h-6l-1.7,6.9l0,0 c-0.1,0.5,0.2,1,0.7,1.1C144.7,2387.5,144.8,2387.5,144.9,2387.5L144.9,2387.5z"/>
        </defs>
        <clipPath id="SVGID_117_">
          <rect x="141.7" y="2366.4" width="35.4" height="31.8" transform="matrix(1, 0, 0, 1, 0, 0)" style="overflow: visible;"/>
        </clipPath>
        <clipPath id="SVGID_118_" class="st66">
          <path d="M144.9,2387.5h7.7l0,0c0.5,0,0.9-0.4,0.9-0.9c0-0.1,0-0.1,0-0.2l-1.7-6.9h-6l-1.7,6.9l0,0 c-0.1,0.5,0.2,1,0.7,1.1C144.7,2387.5,144.8,2387.5,144.9,2387.5L144.9,2387.5z" transform="matrix(1, 0, 0, 1, 0, 0)" style="overflow: visible;"/>
        </clipPath>
        <rect x="139.4" y="2374.9" class="st67" width="18.6" height="17.1"/>
      </g>
      <g>
        <defs>
          <rect id="SVGID_119_" x="141.7" y="2366.4" width="35.4" height="31.8"/>
        </defs>
        <defs>
          <path id="SVGID_120_" d="M149,2372c1.5,0,2.8-1.2,2.8-2.8c0-1.5-1.2-2.8-2.8-2.8c-1.5,0-2.8,1.2-2.8,2.8 C146.2,2370.7,147.5,2372,149,2372L149,2372z"/>
        </defs>
        <clipPath id="SVGID_121_">
          <rect x="141.7" y="2366.4" width="35.4" height="31.8" transform="matrix(1, 0, 0, 1, 0, 0)" style="overflow: visible;"/>
        </clipPath>
        <clipPath id="SVGID_122_" class="st68">
          <path d="M149,2372c1.5,0,2.8-1.2,2.8-2.8c0-1.5-1.2-2.8-2.8-2.8c-1.5,0-2.8,1.2-2.8,2.8 C146.2,2370.7,147.5,2372,149,2372L149,2372z" transform="matrix(1, 0, 0, 1, 0, 0)" style="overflow: visible;"/>
        </clipPath>
        <rect x="141.7" y="2361.9" class="st69" width="14.6" height="14.6"/>
      </g>
      <g>
        <defs>
          <rect id="SVGID_123_" x="141.7" y="2366.4" width="35.4" height="31.8"/>
        </defs>
        <defs>
          <path id="SVGID_124_" d="M167,2373.2L167,2373.2L167,2373.2c0.5,0.2,0.8,0.8,0.6,1.3l-2.6,7.1l0,0c-0.2,0.5-0.8,0.8-1.3,0.6l0,0 l0,0c-0.5-0.2-0.8-0.8-0.6-1.3l2.6-7.1l0,0C165.9,2373.3,166.5,2373,167,2373.2L167,2373.2z"/>
        </defs>
        <clipPath id="SVGID_125_">
          <rect x="141.7" y="2366.4" width="35.4" height="31.8" transform="matrix(1, 0, 0, 1, 0, 0)" style="overflow: visible;"/>
        </clipPath>
        <clipPath id="SVGID_126_" class="st70">
          <path d="M167,2373.2L167,2373.2L167,2373.2c0.5,0.2,0.8,0.8,0.6,1.3l-2.6,7.1l0,0c-0.2,0.5-0.8,0.8-1.3,0.6l0,0 l0,0c-0.5-0.2-0.8-0.8-0.6-1.3l2.6-7.1l0,0C165.9,2373.3,166.5,2373,167,2373.2L167,2373.2z" transform="matrix(1, 0, 0, 1, 0, 0)" style="overflow: visible;"/>
        </clipPath>
        <rect x="156.1" y="2372.2" transform="matrix(0.3417 -0.9398 0.9398 0.3417 -2125.7009 1720.5856)" class="st71" width="18.6" height="11.1"/>
      </g>
      <g>
        <defs>
          <rect id="SVGID_127_" x="141.7" y="2366.4" width="35.4" height="31.8"/>
        </defs>
        <defs>
          <path id="SVGID_128_" d="M168,2381.5L168,2381.5L168,2381.5c0.7,0,1.3,0.6,1.3,1.3v13.5l0,0c0,0.7-0.6,1.3-1.3,1.3l0,0l0,0 c-0.7,0-1.3-0.6-1.3-1.3v-13.5l0,0C166.8,2382,167.4,2381.5,168,2381.5L168,2381.5z"/>
        </defs>
        <clipPath id="SVGID_129_">
          <rect x="141.7" y="2366.4" width="35.4" height="31.8" transform="matrix(1, 0, 0, 1, 0, 0)" style="overflow: visible;"/>
        </clipPath>
        <clipPath id="SVGID_130_" class="st72">
          <path d="M168,2381.5L168,2381.5L168,2381.5c0.7,0,1.3,0.6,1.3,1.3v13.5l0,0c0,0.7-0.6,1.3-1.3,1.3l0,0l0,0 c-0.7,0-1.3-0.6-1.3-1.3v-13.5l0,0C166.8,2382,167.4,2381.5,168,2381.5L168,2381.5z" transform="matrix(1, 0, 0, 1, 0, 0)" style="overflow: visible;"/>
        </clipPath>
        <rect x="162.3" y="2376.9" class="st73" width="11.6" height="25.1"/>
      </g>
      <g>
        <defs>
          <rect id="SVGID_131_" x="141.7" y="2366.4" width="35.4" height="31.8"/>
        </defs>
        <defs>
          <path id="SVGID_132_" d="M171.6,2381.5L171.6,2381.5L171.6,2381.5c0.7,0,1.3,0.6,1.3,1.3v13.5l0,0c0,0.7-0.6,1.3-1.3,1.3l0,0 l0,0c-0.7,0-1.2-0.6-1.2-1.3v-13.5l0,0C170.3,2382,170.9,2381.5,171.6,2381.5L171.6,2381.5z"/>
        </defs>
        <clipPath id="SVGID_133_">
          <rect x="141.7" y="2366.4" width="35.4" height="31.8" transform="matrix(1, 0, 0, 1, 0, 0)" style="overflow: visible;"/>
        </clipPath>
        <clipPath id="SVGID_134_" class="st74">
          <path d="M171.6,2381.5L171.6,2381.5L171.6,2381.5c0.7,0,1.3,0.6,1.3,1.3v13.5l0,0c0,0.7-0.6,1.3-1.3,1.3l0,0 l0,0c-0.7,0-1.2-0.6-1.2-1.3v-13.5l0,0C170.3,2382,170.9,2381.5,171.6,2381.5L171.6,2381.5z" transform="matrix(1, 0, 0, 1, 0, 0)" style="overflow: visible;"/>
        </clipPath>
        <rect x="165.8" y="2376.9" class="st75" width="11.6" height="25.1"/>
      </g>
      <g>
        <defs>
          <rect id="SVGID_135_" x="141.7" y="2366.4" width="35.4" height="31.8"/>
        </defs>
        <defs>
          <path id="SVGID_136_" d="M172.8,2373.2L172.8,2373.2L172.8,2373.2c0.5-0.2,1.1,0.1,1.3,0.6l2.6,7.1l0,0c0.2,0.5-0.1,1.1-0.6,1.3 l0,0l0,0c-0.5,0.2-1.1-0.1-1.3-0.6l-2.6-7.1l0,0C172,2374,172.2,2373.4,172.8,2373.2L172.8,2373.2z"/>
        </defs>
        <clipPath id="SVGID_137_">
          <rect x="141.7" y="2366.4" width="35.4" height="31.8" transform="matrix(1, 0, 0, 1, 0, 0)" style="overflow: visible;"/>
        </clipPath>
        <clipPath id="SVGID_138_" class="st76">
          <path d="M172.8,2373.2L172.8,2373.2L172.8,2373.2c0.5-0.2,1.1,0.1,1.3,0.6l2.6,7.1l0,0c0.2,0.5-0.1,1.1-0.6,1.3 l0,0l0,0c-0.5,0.2-1.1-0.1-1.3-0.6l-2.6-7.1l0,0C172,2374,172.2,2373.4,172.8,2373.2L172.8,2373.2z" transform="matrix(1, 0, 0, 1, 0, 0)" style="overflow: visible;"/>
        </clipPath>
        <rect x="168.9" y="2368.4" transform="matrix(0.9398 -0.3418 0.3418 0.9398 -802.2859 202.8521)" class="st77" width="11.1" height="18.6"/>
      </g>
      <g>
        <defs>
          <rect id="SVGID_139_" x="141.7" y="2366.4" width="35.4" height="31.8"/>
        </defs>
        <defs>
          <path id="SVGID_140_" d="M166.7,2373h6.1l0,0c0.5,0,0.9,0.4,0.9,0.9c0,0,0,0,0,0l-0.4,10.2l0,0c0,0.5-0.4,0.9-0.9,0.9h-5.3l0,0 c-0.5,0-0.9-0.4-0.9-0.9l-0.4-10.2l0,0C165.8,2373.4,166.2,2373,166.7,2373C166.7,2373,166.7,2373,166.7,2373L166.7,2373z"/>
        </defs>
        <clipPath id="SVGID_141_">
          <rect x="141.7" y="2366.4" width="35.4" height="31.8" transform="matrix(1, 0, 0, 1, 0, 0)" style="overflow: visible;"/>
        </clipPath>
        <clipPath id="SVGID_142_" class="st78">
          <path d="M166.7,2373h6.1l0,0c0.5,0,0.9,0.4,0.9,0.9c0,0,0,0,0,0l-0.4,10.2l0,0c0,0.5-0.4,0.9-0.9,0.9h-5.3l0,0 c-0.5,0-0.9-0.4-0.9-0.9l-0.4-10.2l0,0C165.8,2373.4,166.2,2373,166.7,2373C166.7,2373,166.7,2373,166.7,2373L166.7,2373z" transform="matrix(1, 0, 0, 1, 0, 0)" style="overflow: visible;"/>
        </clipPath>
        <rect x="161.3" y="2368.4" class="st79" width="17" height="21.1"/>
      </g>
      <g>
        <defs>
          <rect id="SVGID_143_" x="141.7" y="2366.4" width="35.4" height="31.8"/>
        </defs>
        <defs>
          <path id="SVGID_144_" d="M170.1,2372c1.5,0,2.8-1.2,2.8-2.8c0-1.5-1.2-2.8-2.8-2.8c-1.5,0-2.8,1.2-2.8,2.8 C167.3,2370.7,168.5,2372,170.1,2372L170.1,2372z"/>
        </defs>
        <clipPath id="SVGID_145_">
          <rect x="141.7" y="2366.4" width="35.4" height="31.8" transform="matrix(1, 0, 0, 1, 0, 0)" style="overflow: visible;"/>
        </clipPath>
        <clipPath id="SVGID_146_" class="st80">
          <path d="M170.1,2372c1.5,0,2.8-1.2,2.8-2.8c0-1.5-1.2-2.8-2.8-2.8c-1.5,0-2.8,1.2-2.8,2.8 C167.3,2370.7,168.5,2372,170.1,2372L170.1,2372z" transform="matrix(1, 0, 0, 1, 0, 0)" style="overflow: visible;"/>
        </clipPath>
        <rect x="162.7" y="2361.9" class="st81" width="14.6" height="14.6"/>
      </g>
      <g>
        <defs>
          <rect id="SVGID_147_" x="158.8" y="2366.4" width="1.5" height="31.6"/>
        </defs>
        <clipPath id="SVGID_148_">
          <rect x="158.8" y="2366.4" width="1.5" height="31.6" transform="matrix(1, 0, 0, 1, 0, 0)" style="overflow: visible;"/>
        </clipPath>
        <rect x="154.2" y="2361.9" class="st82" width="10.6" height="40.7"/>
      </g>
    </g>
    <g>
      <g>
        <defs>
          <rect id="SVGID_149_" x="247.8" y="2372.6" width="28.8" height="16.9"/>
        </defs>
        <defs>
          <path id="SVGID_150_" d="M261.2,2389.4c7.4,0,13.3-0.6,13.3-1.4c0-0.8-6-1.4-13.3-1.4c-7.4,0-13.3,0.6-13.3,1.4 C247.8,2388.8,253.8,2389.4,261.2,2389.4L261.2,2389.4z"/>
        </defs>
        <clipPath id="SVGID_151_">
          <rect x="247.8" y="2372.6" width="28.8" height="16.9" transform="matrix(1, 0, 0, 1, 0, 0)" style="overflow: visible;"/>
        </clipPath>
        <clipPath id="SVGID_152_" class="st83">
          <path d="M261.2,2389.4c7.4,0,13.3-0.6,13.3-1.4c0-0.8-6-1.4-13.3-1.4c-7.4,0-13.3,0.6-13.3,1.4 C247.8,2388.8,253.8,2389.4,261.2,2389.4L261.2,2389.4z" transform="matrix(1, 0, 0, 1, 0, 0)" style="overflow: visible;"/>
        </clipPath>
        <rect x="244.3" y="2383.1" class="st84" width="33.7" height="9.8"/>
      </g>
      <g>
        <defs>
          <rect id="SVGID_153_" x="247.8" y="2372.6" width="28.8" height="16.9"/>
        </defs>
        <defs>
          <path id="SVGID_154_" d="M252.6,2372.6h17.1l0,0c0.3,0,0.6,0.2,0.7,0.6c0.6,3,0.8,5.6,0.6,7.9c-0.2,2.3-1.3,4.6-3.3,6.8l0,0 c-0.1,0.2-0.3,0.2-0.5,0.2h-12.1l0,0c-0.2,0-0.4-0.1-0.5-0.2c-2-1.9-3.1-4.1-3.3-6.8c-0.2-2.6,0-5.2,0.6-7.9l0,0 C252,2372.8,252.3,2372.6,252.6,2372.6L252.6,2372.6z"/>
        </defs>
        <clipPath id="SVGID_155_">
          <rect x="247.8" y="2372.6" width="28.8" height="16.9" transform="matrix(1, 0, 0, 1, 0, 0)" style="overflow: visible;"/>
        </clipPath>
        <clipPath id="SVGID_156_" class="st85">
          <path d="M252.6,2372.6h17.1l0,0c0.3,0,0.6,0.2,0.7,0.6c0.6,3,0.8,5.6,0.6,7.9c-0.2,2.3-1.3,4.6-3.3,6.8l0,0 c-0.1,0.2-0.3,0.2-0.5,0.2h-12.1l0,0c-0.2,0-0.4-0.1-0.5-0.2c-2-1.9-3.1-4.1-3.3-6.8c-0.2-2.6,0-5.2,0.6-7.9l0,0 C252,2372.8,252.3,2372.6,252.6,2372.6L252.6,2372.6z" transform="matrix(1, 0, 0, 1, 0, 0)" style="overflow: visible;"/>
        </clipPath>
        <rect x="247.7" y="2369" class="st86" width="26.9" height="22.5"/>
      </g>
      <g>
        <defs>
          <rect id="SVGID_157_" x="247.8" y="2372.6" width="28.8" height="16.9"/>
        </defs>
        <clipPath id="SVGID_158_">
          <rect x="247.8" y="2372.6" width="28.8" height="16.9" transform="matrix(1, 0, 0, 1, 0, 0)" style="overflow: visible;"/>
        </clipPath>
        <path class="st87" d="M272.4,2384.5c-2.3,0-4.2-1.9-4.2-4.2c0-2.3,1.9-4.2,4.2-4.2c2.3,0,4.2,1.9,4.2,4.2 C276.6,2382.6,274.7,2384.5,272.4,2384.5z M272.4,2377.5c-1.5,0-2.8,1.3-2.8,2.8c0,1.6,1.3,2.8,2.8,2.8c1.6,0,2.8-1.3,2.8-2.8 C275.2,2378.7,274,2377.5,272.4,2377.5z"/>
      </g>
    </g>
  </g>
  <g id="exits">
    <g>
      <g>
        <defs>
          <polygon id="SVGID_159_" points="54.1,243.4 69.5,243.4 54.1,261.4 69.5,279.5 54.1,279.5 38.7,261.4 54.1,243.4 &#9;&#9;&#9;&#9;"/>
        </defs>
        <polygon points="54.1,243.4 69.5,243.4 54.1,261.4 69.5,279.5 54.1,279.5 38.7,261.4 54.1,243.4 &#9;&#9;&#9;&#9;" transform="matrix(1, 0, 0, 1, 0, 0)" style="overflow: visible; fill-rule: evenodd; clip-rule: evenodd; fill: rgb(189, 189, 189);"/>
        <clipPath id="SVGID_160_">
          <polygon points="54.1,243.4 69.5,243.4 54.1,261.4 69.5,279.5 54.1,279.5 38.7,261.4 54.1,243.4 &#9;&#9;&#9;&#9;" transform="matrix(1, 0, 0, 1, 0, 0)" style="overflow: visible;"/>
        </clipPath>
        <rect x="33.7" y="238.4" class="st88" width="40.8" height="46.2"/>
      </g>
      <g>
        <defs>
          <polygon id="SVGID_161_" points="76.5,243.4 92,243.4 76.5,261.4 92,279.5 76.5,279.5 61.1,261.4 76.5,243.4 &#9;&#9;&#9;&#9;"/>
        </defs>
        <polygon points="76.5,243.4 92,243.4 76.5,261.4 92,279.5 76.5,279.5 61.1,261.4 76.5,243.4 &#9;&#9;&#9;&#9;" transform="matrix(1, 0, 0, 1, 0, 0)" style="overflow: visible; fill-rule: evenodd; clip-rule: evenodd; fill: rgb(189, 189, 189);"/>
        <clipPath id="SVGID_162_">
          <polygon points="76.5,243.4 92,243.4 76.5,261.4 92,279.5 76.5,279.5 61.1,261.4 76.5,243.4 &#9;&#9;&#9;&#9;" transform="matrix(1, 0, 0, 1, 0, 0)" style="overflow: visible;"/>
        </clipPath>
        <rect x="56.1" y="238.4" class="st89" width="40.8" height="46.2"/>
      </g>
    </g>
    <g>
      <g>
        <defs>
          <polygon id="SVGID_163_" points="380.4,2253.3 365,2253.3 380.4,2271.4 365,2289.5 380.4,2289.5 395.8,2271.4 380.4,2253.3 &#9;&#9;&#9;&#9;&#10;&#9;&#9;&#9;&#9;&#9;"/>
        </defs>
        <polygon points="380.4,2253.3 365,2253.3 380.4,2271.4 365,2289.5 380.4,2289.5 395.8,2271.4 380.4,2253.3 &#9;&#9;&#9;&#9;&#10;&#9;&#9;&#9;&#9;&#9;" transform="matrix(1, 0, 0, 1, 0, 0)" style="overflow: visible; fill-rule: evenodd; clip-rule: evenodd; fill: rgb(189, 189, 189);"/>
        <clipPath id="SVGID_164_">
          <polygon points="380.4,2253.3 365,2253.3 380.4,2271.4 365,2289.5 380.4,2289.5 395.8,2271.4 380.4,2253.3 &#9;&#9;&#9;&#9;&#10;&#9;&#9;&#9;&#9;&#9;" transform="matrix(1, 0, 0, 1, 0, 0)" style="overflow: visible;"/>
        </clipPath>
        <rect x="360" y="2248.3" class="st90" width="40.9" height="46.2"/>
      </g>
      <g>
        <defs>
          <polygon id="SVGID_165_" points="358,2253.3 342.6,2253.3 358,2271.4 342.6,2289.5 358,2289.5 373.4,2271.4 358,2253.3 &#9;&#9;&#9;&#9;"/>
        </defs>
        <polygon points="358,2253.3 342.6,2253.3 358,2271.4 342.6,2289.5 358,2289.5 373.4,2271.4 358,2253.3 &#9;&#9;&#9;&#9;" transform="matrix(1, 0, 0, 1, 0, 0)" style="overflow: visible; fill-rule: evenodd; clip-rule: evenodd; fill: rgb(189, 189, 189);"/>
        <clipPath id="SVGID_166_">
          <polygon points="358,2253.3 342.6,2253.3 358,2271.4 342.6,2289.5 358,2289.5 373.4,2271.4 358,2253.3 &#9;&#9;&#9;&#9;" transform="matrix(1, 0, 0, 1, 0, 0)" style="overflow: visible;"/>
        </clipPath>
        <rect x="337.6" y="2248.3" class="st91" width="40.9" height="46.2"/>
      </g>
    </g>
    <g>
      <g>
        <defs>
          <polygon id="SVGID_167_" points="39.6,2253.3 55,2253.3 39.6,2271.4 55,2289.5 39.6,2289.5 24.2,2271.4 39.6,2253.3 &#9;&#9;&#9;&#9;"/>
        </defs>
        <polygon points="39.6,2253.3 55,2253.3 39.6,2271.4 55,2289.5 39.6,2289.5 24.2,2271.4 39.6,2253.3 &#9;&#9;&#9;&#9;" transform="matrix(1, 0, 0, 1, 0, 0)" style="overflow: visible; fill-rule: evenodd; clip-rule: evenodd; fill: rgb(189, 189, 189);"/>
        <clipPath id="SVGID_168_">
          <polygon points="39.6,2253.3 55,2253.3 39.6,2271.4 55,2289.5 39.6,2289.5 24.2,2271.4 39.6,2253.3 &#9;&#9;&#9;&#9;" transform="matrix(1, 0, 0, 1, 0, 0)" style="overflow: visible;"/>
        </clipPath>
        <rect x="19.2" y="2248.3" class="st92" width="40.8" height="46.2"/>
      </g>
      <g>
        <defs>
          <polygon id="SVGID_169_" points="62,2253.3 77.5,2253.3 62,2271.4 77.5,2289.5 62,2289.5 46.6,2271.4 62,2253.3 &#9;&#9;&#9;&#9;"/>
        </defs>
        <polygon points="62,2253.3 77.5,2253.3 62,2271.4 77.5,2289.5 62,2289.5 46.6,2271.4 62,2253.3 &#9;&#9;&#9;&#9;" transform="matrix(1, 0, 0, 1, 0, 0)" style="overflow: visible; fill-rule: evenodd; clip-rule: evenodd; fill: rgb(189, 189, 189);"/>
        <clipPath id="SVGID_170_">
          <polygon points="62,2253.3 77.5,2253.3 62,2271.4 77.5,2289.5 62,2289.5 46.6,2271.4 62,2253.3 &#9;&#9;&#9;&#9;" transform="matrix(1, 0, 0, 1, 0, 0)" style="overflow: visible;"/>
        </clipPath>
        <rect x="41.6" y="2248.3" class="st93" width="40.9" height="46.2"/>
      </g>
    </g>
    <g>
      <path class="st11" d="M93.8,265.7h-5.3v-7.8h5.3v1.6h-3.3v1.5h3.1v1.5h-3.1v1.6h3.3V265.7z"/>
      <path class="st11" d="M99.1,261.8l-2.4-3.8H99l1.4,2.6h0.1l1.4-2.6h2.2l-2.5,3.9l2.5,3.9h-2.2l-1.5-2.5h-0.1l-1.5,2.5h-2.1 L99.1,261.8z"/>
      <path class="st11" d="M107.1,265.7v-7.8h2v7.8H107.1z"/>
      <path class="st11" d="M114.4,265.7v-6.2h-2.2v-1.6h6.4v1.6h-2.2v6.2H114.4z"/>
    </g>
    <g>
      <path class="st11" d="M83.4,2275h-5.3v-7.8h5.3v1.6h-3.3v1.5h3.1v1.5h-3.1v1.6h3.3V2275z"/>
      <path class="st11" d="M88.7,2271.1l-2.4-3.8h2.3l1.4,2.6h0.1l1.4-2.6h2.2l-2.5,3.9l2.5,3.9h-2.2l-1.5-2.5h-0.1l-1.5,2.5h-2.1 L88.7,2271.1z"/>
      <path class="st11" d="M96.7,2275v-7.8h2v7.8H96.7z"/>
      <path class="st11" d="M104,2275v-6.2h-2.2v-1.6h6.4v1.6H106v6.2H104z"/>
    </g>
    <g>
      <path class="st11" d="M315.7,2275h-5.3v-7.8h5.3v1.6h-3.3v1.5h3.1v1.5h-3.1v1.6h3.3V2275z"/>
      <path class="st11" d="M320.9,2271.1l-2.4-3.8h2.3l1.4,2.6h0.1l1.4-2.6h2.2l-2.5,3.9l2.5,3.9h-2.2l-1.5-2.5h-0.1l-1.5,2.5h-2.1 L320.9,2271.1z"/>
      <path class="st11" d="M329,2275v-7.8h2v7.8H329z"/>
      <path class="st11" d="M336.2,2275v-6.2H334v-1.6h6.4v1.6h-2.2v6.2H336.2z"/>
    </g>
    <g>
      <g>
        <defs>
          <polygon id="SVGID_171_" points="367.8,195.3 352.4,195.3 367.8,213.4 352.4,231.4 367.8,231.4 383.2,213.4 367.8,195.3 &#9;&#9;&#9;&#9;"/>
        </defs>
        <polygon points="367.8,195.3 352.4,195.3 367.8,213.4 352.4,231.4 367.8,231.4 383.2,213.4 367.8,195.3 &#9;&#9;&#9;&#9;" transform="matrix(1, 0, 0, 1, 0, 0)" style="overflow: visible; fill-rule: evenodd; clip-rule: evenodd; fill: rgb(189, 189, 189);"/>
        <clipPath id="SVGID_172_">
          <polygon points="367.8,195.3 352.4,195.3 367.8,213.4 352.4,231.4 367.8,231.4 383.2,213.4 367.8,195.3 &#9;&#9;&#9;&#9;" transform="matrix(1, 0, 0, 1, 0, 0)" style="overflow: visible;"/>
        </clipPath>
        <rect x="347.4" y="190.3" class="st94" width="40.9" height="46.2"/>
      </g>
      <g>
        <defs>
          <polygon id="SVGID_173_" points="345.4,195.3 330,195.3 345.4,213.4 330,231.4 345.4,231.4 360.8,213.4 345.4,195.3 &#9;&#9;&#9;&#9;"/>
        </defs>
        <polygon points="345.4,195.3 330,195.3 345.4,213.4 330,231.4 345.4,231.4 360.8,213.4 345.4,195.3 &#9;&#9;&#9;&#9;" transform="matrix(1, 0, 0, 1, 0, 0)" style="overflow: visible; fill-rule: evenodd; clip-rule: evenodd; fill: rgb(189, 189, 189);"/>
        <clipPath id="SVGID_174_">
          <polygon points="345.4,195.3 330,195.3 345.4,213.4 330,231.4 345.4,231.4 360.8,213.4 345.4,195.3 &#9;&#9;&#9;&#9;" transform="matrix(1, 0, 0, 1, 0, 0)" style="overflow: visible;"/>
        </clipPath>
        <rect x="324.9" y="190.3" class="st95" width="40.9" height="46.2"/>
      </g>
    </g>
    <g>
      <path class="st11" d="M311.6,217.6h-5.3v-7.8h5.3v1.6h-3.3v1.5h3.1v1.5h-3.1v1.6h3.3V217.6z"/>
      <path class="st11" d="M316.9,213.7l-2.4-3.8h2.3l1.4,2.6h0.1l1.4-2.6h2.2l-2.5,3.9l2.5,3.9h-2.2l-1.5-2.5h-0.1l-1.5,2.5h-2.1 L316.9,213.7z"/>
      <path class="st11" d="M324.9,217.6v-7.8h2v7.8H324.9z"/>
      <path class="st11" d="M332.2,217.6v-6.2h-2.2v-1.6h6.4v1.6h-2.2v6.2H332.2z"/>
    </g>
  </g>
  <g id="numbers">
    <g>
      <g>
        <path class="st11" d="M28.1,438.2H28l-2.5,1.8v-1.6l2.6-1.8h1.5v9.9h-1.5V438.2z"/>
        <path class="st11" d="M24.7,557.4c0-0.9,0.3-1.6,0.9-2.2c0.6-0.6,1.4-0.9,2.4-0.9c0.9,0,1.7,0.3,2.3,0.8s0.9,1.2,0.9,2 c0,0.5-0.2,1-0.5,1.6c-0.3,0.5-0.9,1.2-1.7,2l-2.2,2.2v0.1h4.5v1.4h-6.6v-1.1l3.3-3.5c0.7-0.7,1.1-1.2,1.3-1.6 c0.2-0.3,0.3-0.7,0.3-1.1c0-0.5-0.2-0.8-0.5-1.1s-0.8-0.5-1.3-0.5c-0.5,0-1,0.2-1.3,0.5c-0.3,0.3-0.5,0.7-0.5,1.3v0L24.7,557.4 L24.7,557.4z"/>
        <path class="st11" d="M26.7,676.8h1.2c0.5,0,1-0.1,1.3-0.4s0.5-0.7,0.5-1.1c0-0.5-0.2-0.8-0.5-1.1c-0.3-0.3-0.8-0.4-1.3-0.4 s-1,0.1-1.3,0.4c-0.3,0.3-0.5,0.7-0.6,1.1h-1.5c0.1-0.9,0.4-1.6,1-2.1s1.4-0.8,2.4-0.8c0.9,0,1.7,0.3,2.3,0.8 c0.6,0.5,0.9,1.1,0.9,1.9c0,0.6-0.2,1.1-0.5,1.5c-0.3,0.4-0.7,0.7-1.3,0.8v0.1c0.7,0.1,1.2,0.3,1.6,0.8c0.4,0.4,0.6,1,0.6,1.6 c0,0.8-0.3,1.5-1,2.1c-0.7,0.6-1.5,0.8-2.6,0.8c-1,0-1.9-0.3-2.5-0.8c-0.7-0.5-1-1.2-1-2.1h1.5c0.1,0.5,0.3,0.9,0.6,1.1 c0.4,0.3,0.9,0.4,1.5,0.4c0.6,0,1.1-0.2,1.5-0.5s0.6-0.7,0.6-1.2c0-0.5-0.2-0.9-0.6-1.2S28.6,678,28,678h-1.2V676.8z"/>
        <path class="st11" d="M29,798.5h-4.8v-1.4c0.8-1.4,2.1-3.6,4.1-6.5h2.2v6.6h1.4v1.4h-1.4v1.9H29V798.5z M25.7,797.2H29v-5.3h-0.1 C27.8,793.6,26.7,795.3,25.7,797.2L25.7,797.2z"/>
        <path class="st11" d="M24.9,928.6c-0.4-0.8-0.6-1.8-0.6-3c0-1.7,0.3-3,1-3.9c0.7-0.9,1.6-1.4,2.9-1.4c0.9,0,1.6,0.2,2.2,0.7 c0.6,0.5,1,1.1,1.1,1.9H30c-0.1-0.4-0.3-0.7-0.7-1s-0.7-0.3-1.2-0.3c-0.8,0-1.3,0.3-1.8,1c-0.4,0.7-0.6,1.6-0.7,2.8h0.1 c0.5-1,1.4-1.5,2.6-1.5c0.9,0,1.7,0.3,2.3,0.9s0.9,1.4,0.9,2.4c0,1-0.3,1.8-1,2.5c-0.7,0.6-1.5,1-2.6,1 C26.7,930.7,25.6,930,24.9,928.6z M29.6,928.8c0.4-0.4,0.6-0.9,0.6-1.5c0-0.6-0.2-1.1-0.6-1.5c-0.4-0.4-0.9-0.6-1.5-0.6 c-0.6,0-1.1,0.2-1.5,0.6c-0.4,0.4-0.6,0.9-0.6,1.4c0,0.6,0.2,1.1,0.6,1.5c0.4,0.4,0.9,0.6,1.5,0.6S29.2,929.1,29.6,928.8z"/>
        <path class="st11" d="M29.8,1004.1v-0.1h-5v-1.4h6.5v1.4l-4.3,8.5h-1.6L29.8,1004.1z"/>
        <path class="st11" d="M25.3,1092.9c-0.7-0.5-1-1.2-1-2.1c0-0.6,0.2-1.2,0.6-1.6c0.4-0.5,0.9-0.8,1.5-0.9v-0.1 c-0.5-0.1-0.9-0.4-1.2-0.8c-0.3-0.4-0.5-0.9-0.5-1.4c0-0.8,0.3-1.4,0.9-1.9s1.4-0.7,2.4-0.7s1.8,0.2,2.4,0.7s0.9,1.1,0.9,1.9 c0,0.5-0.2,1-0.5,1.4s-0.7,0.7-1.2,0.8v0.1c0.6,0.1,1.1,0.4,1.5,0.9c0.4,0.5,0.6,1,0.6,1.6c0,0.9-0.3,1.5-1,2.1 c-0.7,0.5-1.6,0.8-2.7,0.8S26,1093.4,25.3,1092.9z M29.6,1091.9c0.4-0.3,0.6-0.7,0.6-1.3s-0.2-0.9-0.6-1.3s-0.9-0.5-1.5-0.5 s-1.1,0.2-1.5,0.5s-0.6,0.7-0.6,1.3s0.2,0.9,0.6,1.3c0.4,0.3,0.9,0.5,1.5,0.5S29.2,1092.3,29.6,1091.9z M29.3,1087.3 c0.3-0.3,0.5-0.7,0.5-1.1c0-0.5-0.2-0.8-0.5-1.1s-0.8-0.4-1.3-0.4s-1,0.1-1.3,0.4c-0.3,0.3-0.5,0.7-0.5,1.1 c0,0.5,0.2,0.8,0.5,1.1c0.3,0.3,0.8,0.4,1.3,0.4S29,1087.5,29.3,1087.3z"/>
        <path class="st11" d="M25.6,1195c-0.6-0.5-1-1.1-1.1-1.9H26c0.1,0.4,0.3,0.7,0.7,1s0.7,0.3,1.2,0.3c0.8,0,1.3-0.3,1.8-1 c0.4-0.7,0.6-1.6,0.7-2.8h-0.1c-0.5,1-1.4,1.5-2.6,1.5c-0.9,0-1.7-0.3-2.3-0.9c-0.6-0.6-0.9-1.4-0.9-2.4c0-1,0.3-1.8,1-2.5 c0.7-0.6,1.5-1,2.6-1c1.5,0,2.6,0.7,3.2,2c0.4,0.8,0.6,1.8,0.6,3c0,1.7-0.3,3-1,3.9c-0.7,0.9-1.6,1.4-2.9,1.4 C26.9,1195.7,26.2,1195.4,25.6,1195z M29.4,1190.2c0.4-0.4,0.6-0.9,0.6-1.4c0-0.6-0.2-1.1-0.6-1.5s-0.9-0.6-1.5-0.6 c-0.6,0-1.1,0.2-1.5,0.6s-0.6,0.9-0.6,1.5c0,0.6,0.2,1.1,0.6,1.5s0.9,0.6,1.5,0.6C28.5,1190.8,29,1190.6,29.4,1190.2z"/>
        <path class="st11" d="M23.6,1268.2h-0.1L21,1270v-1.6l2.6-1.8h1.5v9.9h-1.5V1268.2z"/>
        <path class="st11" d="M28.6,1275.3c-0.6-0.9-1-2.2-1-3.8c0-1.6,0.3-2.9,1-3.8s1.5-1.4,2.7-1.4c1.1,0,2,0.5,2.7,1.4 c0.6,0.9,1,2.2,1,3.8c0,1.6-0.3,2.9-1,3.8c-0.6,0.9-1.5,1.4-2.7,1.4C30.2,1276.7,29.3,1276.2,28.6,1275.3z M32.9,1274.4 c0.4-0.7,0.5-1.6,0.5-2.9c0-1.2-0.2-2.2-0.5-2.8c-0.4-0.7-0.9-1-1.5-1s-1.2,0.3-1.6,1c-0.4,0.7-0.6,1.6-0.6,2.8 c0,1.2,0.2,2.2,0.6,2.9c0.4,0.7,0.9,1,1.6,1S32.5,1275,32.9,1274.4z"/>
        <path class="st11" d="M24.8,1349.2h-0.1l-2.5,1.8v-1.6l2.6-1.8h1.5v9.9h-1.5V1349.2z"/>
        <path class="st11" d="M31.4,1349.2h-0.1l-2.5,1.8v-1.6l2.6-1.8h1.5v9.9h-1.5V1349.2z"/>
        <path class="st11" d="M23.8,1432.2h-0.1l-2.5,1.8v-1.6l2.6-1.8h1.5v9.9h-1.5V1432.2z"/>
        <path class="st11" d="M28,1433.4c0-0.9,0.3-1.6,0.9-2.2c0.6-0.6,1.4-0.9,2.4-0.9c0.9,0,1.7,0.3,2.3,0.8s0.9,1.2,0.9,2 c0,0.5-0.2,1-0.5,1.6c-0.3,0.5-0.9,1.2-1.7,2l-2.2,2.2v0.1h4.5v1.4H28v-1.1l3.3-3.5c0.7-0.7,1.1-1.2,1.3-1.6 c0.2-0.3,0.3-0.7,0.3-1.1c0-0.5-0.2-0.8-0.5-1.1s-0.8-0.5-1.3-0.5c-0.5,0-1,0.2-1.3,0.5c-0.3,0.3-0.5,0.7-0.5,1.3v0L28,1433.4 L28,1433.4z"/>
        <path class="st11" d="M23.7,1513.2h-0.1l-2.5,1.8v-1.6l2.6-1.8h1.5v9.9h-1.5V1513.2z"/>
        <path class="st11" d="M30,1515.8h1.2c0.5,0,1-0.1,1.3-0.4s0.5-0.7,0.5-1.1c0-0.5-0.2-0.8-0.5-1.1c-0.3-0.3-0.8-0.4-1.3-0.4 s-1,0.1-1.3,0.4c-0.3,0.3-0.5,0.7-0.6,1.1h-1.5c0.1-0.9,0.4-1.6,1-2.1s1.4-0.8,2.4-0.8c0.9,0,1.7,0.3,2.3,0.8 c0.6,0.5,0.9,1.1,0.9,1.9c0,0.6-0.2,1.1-0.5,1.5c-0.3,0.4-0.7,0.7-1.3,0.8v0.1c0.7,0.1,1.2,0.3,1.6,0.8c0.4,0.4,0.6,1,0.6,1.6 c0,0.8-0.3,1.5-1,2.1c-0.7,0.6-1.5,0.8-2.6,0.8c-1,0-1.9-0.3-2.5-0.8c-0.7-0.5-1-1.2-1-2.1h1.5c0.1,0.5,0.3,0.9,0.6,1.1 c0.4,0.3,0.9,0.4,1.5,0.4c0.6,0,1.1-0.2,1.5-0.5s0.6-0.7,0.6-1.2c0-0.5-0.2-0.9-0.6-1.2s-0.9-0.4-1.5-0.4H30V1515.8z"/>
        <path class="st11" d="M23.5,1594.2h-0.1L21,1596v-1.6l2.6-1.8h1.5v9.9h-1.5V1594.2z"/>
        <path class="st11" d="M32.3,1600.5h-4.8v-1.4c0.8-1.4,2.1-3.6,4.1-6.5h2.2v6.6h1.4v1.4h-1.4v1.9h-1.5V1600.5z M29,1599.2h3.4 v-5.3h-0.1C31.1,1595.6,30,1597.3,29,1599.2L29,1599.2z"/>
        <path class="st11" d="M23.7,1675.2h-0.1l-2.5,1.8v-1.6l2.6-1.8h1.5v9.9h-1.5V1675.2z"/>
        <path class="st11" d="M28.9,1682.9c-0.6-0.5-1-1.3-1-2.1h1.5c0.1,0.5,0.3,0.9,0.6,1.2s0.8,0.4,1.4,0.4c0.6,0,1.1-0.2,1.5-0.6 s0.6-0.9,0.6-1.5s-0.2-1.1-0.6-1.5c-0.4-0.4-0.9-0.6-1.5-0.6c-0.9,0-1.5,0.3-1.9,1h-1.4l0.5-5.6h5.8v1.4h-4.6l-0.3,2.9h0.1 c0.5-0.6,1.2-0.9,2.1-0.9c0.9,0,1.7,0.3,2.3,0.9c0.6,0.6,0.9,1.4,0.9,2.4c0,1-0.3,1.8-1,2.5c-0.7,0.6-1.5,1-2.6,1 C30.4,1683.7,29.6,1683.4,28.9,1682.9z"/>
        <path class="st11" d="M23.6,1758.2h-0.1L21,1760v-1.6l2.6-1.8h1.5v9.9h-1.5V1758.2z"/>
        <path class="st11" d="M28.2,1764.6c-0.4-0.8-0.6-1.8-0.6-3c0-1.7,0.3-3,1-3.9c0.7-0.9,1.6-1.4,2.9-1.4c0.9,0,1.6,0.2,2.2,0.7 c0.6,0.5,1,1.1,1.1,1.9h-1.5c-0.1-0.4-0.3-0.7-0.7-1s-0.7-0.3-1.2-0.3c-0.8,0-1.3,0.3-1.8,1c-0.4,0.7-0.6,1.6-0.7,2.8h0.1 c0.5-1,1.4-1.5,2.6-1.5c0.9,0,1.7,0.3,2.3,0.9s0.9,1.4,0.9,2.4c0,1-0.3,1.8-1,2.5c-0.7,0.6-1.5,1-2.6,1 C29.9,1766.7,28.9,1766,28.2,1764.6z M32.9,1764.8c0.4-0.4,0.6-0.9,0.6-1.5c0-0.6-0.2-1.1-0.6-1.5c-0.4-0.4-0.9-0.6-1.5-0.6 c-0.6,0-1.1,0.2-1.5,0.6c-0.4,0.4-0.6,0.9-0.6,1.4c0,0.6,0.2,1.1,0.6,1.5c0.4,0.4,0.9,0.6,1.5,0.6 C32,1765.3,32.5,1765.1,32.9,1764.8z"/>
        <path class="st11" d="M24.1,1839.2H24l-2.5,1.8v-1.6l2.6-1.8h1.5v9.9h-1.5V1839.2z"/>
        <path class="st11" d="M33,1839.1v-0.1h-5v-1.4h6.5v1.4l-4.3,8.5h-1.6L33,1839.1z"/>
        <path class="st11" d="M23.5,1920.2h-0.1L21,1922v-1.6l2.6-1.8h1.5v9.9h-1.5V1920.2z"/>
        <path class="st11" d="M28.6,1927.9c-0.7-0.5-1-1.2-1-2.1c0-0.6,0.2-1.2,0.6-1.6c0.4-0.5,0.9-0.8,1.5-0.9v-0.1 c-0.5-0.1-0.9-0.4-1.2-0.8c-0.3-0.4-0.5-0.9-0.5-1.4c0-0.8,0.3-1.4,0.9-1.9s1.4-0.7,2.4-0.7c1,0,1.8,0.2,2.4,0.7s0.9,1.1,0.9,1.9 c0,0.5-0.2,1-0.5,1.4s-0.7,0.7-1.2,0.8v0.1c0.6,0.1,1.1,0.4,1.5,0.9c0.4,0.5,0.6,1,0.6,1.6c0,0.9-0.3,1.5-1,2.1 c-0.7,0.5-1.6,0.8-2.7,0.8C30.2,1928.7,29.3,1928.4,28.6,1927.9z M32.8,1926.9c0.4-0.3,0.6-0.7,0.6-1.3s-0.2-0.9-0.6-1.3 s-0.9-0.5-1.5-0.5s-1.1,0.2-1.5,0.5s-0.6,0.7-0.6,1.3s0.2,0.9,0.6,1.3c0.4,0.3,0.9,0.5,1.5,0.5S32.5,1927.3,32.8,1926.9z M32.6,1922.3c0.3-0.3,0.5-0.7,0.5-1.1c0-0.5-0.2-0.8-0.5-1.1s-0.8-0.4-1.3-0.4s-1,0.1-1.3,0.4c-0.3,0.3-0.5,0.7-0.5,1.1 c0,0.5,0.2,0.8,0.5,1.1c0.3,0.3,0.8,0.4,1.3,0.4S32.3,1922.5,32.6,1922.3z"/>
        <path class="st11" d="M23.6,2004.2h-0.1L21,2006v-1.6l2.6-1.8h1.5v9.9h-1.5V2004.2z"/>
        <path class="st11" d="M28.9,2012c-0.6-0.5-1-1.1-1.1-1.9h1.5c0.1,0.4,0.3,0.7,0.7,1s0.7,0.3,1.2,0.3c0.8,0,1.3-0.3,1.8-1 c0.4-0.7,0.6-1.6,0.7-2.8h-0.1c-0.5,1-1.4,1.5-2.6,1.5c-0.9,0-1.7-0.3-2.3-0.9c-0.6-0.6-0.9-1.4-0.9-2.4c0-1,0.3-1.8,1-2.5 c0.7-0.6,1.5-1,2.6-1c1.5,0,2.6,0.7,3.2,2c0.4,0.8,0.6,1.8,0.6,3c0,1.7-0.3,3-1,3.9c-0.7,0.9-1.6,1.4-2.9,1.4 C30.2,2012.7,29.5,2012.4,28.9,2012z M32.7,2007.2c0.4-0.4,0.6-0.9,0.6-1.4c0-0.6-0.2-1.1-0.6-1.5s-0.9-0.6-1.5-0.6 c-0.6,0-1.1,0.2-1.5,0.6s-0.6,0.9-0.6,1.5c0,0.6,0.2,1.1,0.6,1.5s0.9,0.6,1.5,0.6C31.8,2007.8,32.3,2007.6,32.7,2007.2z"/>
        <path class="st11" d="M20.2,2086.4c0-0.9,0.3-1.6,0.9-2.2c0.6-0.6,1.4-0.9,2.4-0.9c0.9,0,1.7,0.3,2.3,0.8s0.9,1.2,0.9,2 c0,0.5-0.2,1-0.5,1.6c-0.3,0.5-0.9,1.2-1.7,2l-2.2,2.2v0.1h4.5v1.4h-6.6v-1.1l3.3-3.5c0.7-0.7,1.1-1.2,1.3-1.6 c0.2-0.3,0.3-0.7,0.3-1.1c0-0.5-0.2-0.8-0.5-1.1s-0.8-0.5-1.3-0.5c-0.5,0-1,0.2-1.3,0.5c-0.3,0.3-0.5,0.8-0.5,1.3v0L20.2,2086.4 L20.2,2086.4z"/>
        <path class="st11" d="M29.6,2092.3c-0.6-0.9-1-2.2-1-3.8c0-1.6,0.3-2.9,1-3.8s1.5-1.4,2.7-1.4c1.1,0,2,0.5,2.7,1.4 c0.6,0.9,1,2.2,1,3.8c0,1.6-0.3,2.9-1,3.8c-0.6,0.9-1.5,1.4-2.7,1.4C31.1,2093.7,30.2,2093.2,29.6,2092.3z M33.8,2091.4 c0.4-0.7,0.5-1.6,0.5-2.9c0-1.2-0.2-2.2-0.5-2.8c-0.4-0.7-0.9-1-1.5-1c-0.7,0-1.2,0.3-1.6,1c-0.4,0.7-0.6,1.6-0.6,2.8 c0,1.2,0.2,2.2,0.6,2.9c0.4,0.7,0.9,1,1.6,1C32.9,2092.3,33.5,2092,33.8,2091.4z"/>
        <path class="st11" d="M21.4,2167.4c0-0.9,0.3-1.6,0.9-2.2c0.6-0.6,1.4-0.9,2.4-0.9c0.9,0,1.7,0.3,2.3,0.8s0.9,1.2,0.9,2 c0,0.5-0.2,1-0.5,1.6c-0.3,0.5-0.9,1.2-1.7,2l-2.2,2.2v0.1h4.5v1.4h-6.6v-1.1l3.3-3.5c0.7-0.7,1.1-1.2,1.3-1.6 c0.2-0.3,0.3-0.7,0.3-1.1c0-0.5-0.2-0.8-0.5-1.1s-0.8-0.5-1.3-0.5c-0.5,0-1,0.2-1.3,0.5c-0.3,0.3-0.5,0.8-0.5,1.3v0L21.4,2167.4 L21.4,2167.4z"/>
        <path class="st11" d="M32.3,2166.2h-0.1l-2.5,1.8v-1.6l2.6-1.8h1.5v9.9h-1.5V2166.2z"/>
      </g>
    </g>
    <g/>
  </g>
</svg>